<svg width="128" height="39" xmlns="http://www.w3.org/2000/svg" xmlns:xlink="http://www.w3.org/1999/xlink" xml:space="preserve" overflow="hidden"><g transform="translate(-1056 -145)"><g><g><g><g><path d="M38.9969 10.2095C38.9969 7.96357 40.7641 6.35543 43.1434 6.35543 44.4639 6.35543 45.566 6.82454 46.2857 7.676L45.1515 8.69776C44.639 8.12262 43.9948 7.8238 43.2317 7.8238 41.8019 7.8238 40.7882 8.80379 40.7882 10.2095 40.7882 11.6152 41.8035 12.5952 43.2317 12.5952 43.9948 12.5952 44.639 12.2964 45.1515 11.7116L46.2857 12.7334C45.566 13.5961 44.4639 14.0636 43.1321 14.0636 40.7641 14.0636 38.9969 12.4554 38.9969 10.2095" fill="#F15B40" fill-rule="nonzero" fill-opacity="1" transform="matrix(1.13994 0 0 1 1056.11 146)"/><path d="M56.8278 8.4632 58.3331 8.4632 58.3331 9.74039 56.8712 9.74039 56.8535 14.0636 55.1506 14.0636 55.1683 9.74039 54.2461 9.74039 54.2461 8.4632 55.1683 8.4632 55.1683 8.20776C55.1683 6.91933 55.9587 6.0775 57.4206 6.0775 57.901 6.0775 58.4022 6.1739 58.7187 6.38596L58.2705 7.58925C58.0857 7.46073 57.8447 7.38683 57.5829 7.38683 57.0816 7.38683 56.8246 7.65351 56.8246 8.2174L56.8246 8.4616Z" fill="#FFFFFF" fill-rule="nonzero" fill-opacity="1" transform="matrix(1.13994 0 0 1 1056.11 146)"/><path d="M58.6721 11.114C58.6721 9.38856 60.036 8.16439 61.9012 8.16439 63.7664 8.16439 65.1191 9.38856 65.1191 11.114 65.1191 12.8394 63.7487 14.0636 61.8836 14.0636 60.0184 14.0636 58.6705 12.8394 58.6705 11.114M63.3953 11.114C63.3953 10.1244 62.7511 9.52672 61.9012 9.52672 61.0514 9.52672 60.3959 10.1227 60.3959 11.114 60.3959 12.1052 61.0498 12.7012 61.9012 12.7012 62.7527 12.7012 63.3953 12.1052 63.3953 11.114" fill="#FFFFFF" fill-rule="nonzero" fill-opacity="1" transform="matrix(1.13994 0 0 1 1056.11 146)"/><path d="M69.9548 8.16117 69.9548 9.7179C69.8102 9.70666 69.6993 9.69702 69.566 9.69702 68.6133 9.69702 67.9819 10.2047 67.9819 11.318L67.9643 14.0636 66.2356 14.0636 66.2356 8.24793 67.9032 8.24793 67.9032 9.01585C68.3241 8.45356 69.0326 8.16117 69.9532 8.16117" fill="#FFFFFF" fill-rule="nonzero" fill-opacity="1" transform="matrix(1.13994 0 0 1 1056.11 146)"/><path d="M76.9143 8.24953 76.9143 13.0193C76.9143 15.1496 75.719 16.128 73.6016 16.128 72.4883 16.128 71.4087 15.8613 70.7211 15.3392L71.3974 14.1471C71.9003 14.5407 72.718 14.7961 73.4715 14.7961 74.6715 14.7961 75.2129 14.2644 75.2129 13.2314L75.2129 12.9856C74.7647 13.4643 74.1221 13.6989 73.3574 13.6989 71.7316 13.6989 70.4223 12.6016 70.4223 10.9308 70.4223 9.26004 71.7316 8.16278 73.3574 8.16278 74.1767 8.16278 74.8531 8.42947 75.2997 8.98211L75.2997 8.24793 76.9143 8.24793ZM75.2338 10.9324C75.2338 10.0922 74.5896 9.52672 73.6964 9.52672 72.8031 9.52672 72.1461 10.0906 72.1461 10.9324 72.1461 11.7743 72.8015 12.3382 73.6964 12.3382 74.5912 12.3382 75.2338 11.7743 75.2338 10.9324" fill="#FFFFFF" fill-rule="nonzero" fill-opacity="1" transform="matrix(1.13994 0 0 1 1056.11 146)"/><path d="M84.2143 11.5831 79.7739 11.5831C79.9377 12.2964 80.5595 12.7334 81.4543 12.7334 82.076 12.7334 82.5243 12.5518 82.9275 12.1791L83.8336 13.1382C83.289 13.7455 82.452 14.0652 81.3949 14.0652 79.3658 14.0652 78.0629 12.8201 78.0629 11.1156 78.0629 9.41106 79.4044 8.16599 81.194 8.16599 82.9837 8.16599 84.2497 9.29539 84.2497 11.1365 84.2497 11.265 84.2272 11.4449 84.2175 11.5831M79.7546 10.6143 82.6463 10.6143C82.5259 9.8898 81.97 9.4223 81.2069 9.4223 80.4438 9.4223 79.8767 9.88016 79.7562 10.6143" fill="#FFFFFF" fill-rule="nonzero" fill-opacity="1" transform="matrix(1.13994 0 0 1 1056.11 146)"/><path d="M50.3712 12.6996C49.5229 12.6964 48.8707 12.102 48.8707 11.114 48.8707 10.126 49.5229 9.52994 50.3712 9.52833L50.3712 8.16599C48.5076 8.16921 47.1468 9.39178 47.1468 11.1156 47.1468 12.8394 48.4931 14.0652 50.3599 14.0652 50.3631 14.0652 50.3679 14.0652 50.3712 14.0652L50.3712 12.7028Z" fill="#F15B40" fill-rule="nonzero" fill-opacity="1" transform="matrix(1.13994 0 0 1 1056.11 146)"/><path d="M50.3712 12.6996C51.2194 12.6964 51.8717 12.102 51.8717 11.114 51.8717 10.126 51.2194 9.52994 50.3712 9.52833L50.3712 8.16599C52.2347 8.16921 53.5955 9.39178 53.5955 11.1156 53.5955 12.841 52.2492 14.0652 50.3824 14.0652 50.3792 14.0652 50.3744 14.0652 50.3712 14.0652L50.3712 12.7028Z" fill="#FFFFFF" fill-rule="nonzero" fill-opacity="1" transform="matrix(1.13994 0 0 1 1056.11 146)"/><path d="M51.3351 24.8402C51.3351 26.5013 50.6892 28.2412 49.0249 29.1939 47.873 30.3586 46.8223 30.9225 44.9138 30.9225 41.2541 30.9225 38.5101 28.3135 38.5101 24.8402 38.5101 21.3669 41.2541 18.8269 44.9138 18.8269 48.5734 18.8269 51.3335 21.4022 51.3335 24.8402ZM41.5947 24.8578C41.5947 26.8564 43.1369 28.397 44.9491 28.397 46.7613 28.397 48.2361 26.8564 48.2361 24.8578 48.2361 22.8593 46.7789 21.3508 44.9491 21.3508 43.1193 21.3508 41.5947 22.8593 41.5947 24.8578Z" fill="#FFFFFF" fill-rule="nonzero" fill-opacity="1" transform="matrix(1.13994 0 0 1 1056.11 146)"/><path d="M63.6716 25.8057C63.6716 28.94 61.5879 30.9225 58.2673 30.9225 54.9466 30.9225 52.7954 28.94 52.7954 25.8057L52.7954 18.9281 55.8109 18.9281 55.8109 25.8057C55.8109 27.4154 56.8439 28.397 58.2833 28.397 59.7228 28.397 60.6722 27.4154 60.6722 25.8057L60.6722 18.9281 63.67 18.9281 63.67 25.8057Z" fill="#FFFFFF" fill-rule="nonzero" fill-opacity="1" transform="matrix(1.13994 0 0 1 1056.11 146)"/><path d="M87.1141 20.1154 85.9799 22.4689C84.7268 21.7412 83.1508 21.2335 82.1853 21.2335 81.4061 21.2335 80.8808 21.5211 80.8808 22.0962 80.8808 24.1462 87.1495 22.9766 87.1495 27.2628 87.1495 29.6341 85.0481 30.8888 82.407 30.8888 80.4245 30.8888 78.3923 30.1433 76.9865 28.9914L78.1561 26.67C79.3755 27.7384 81.2053 28.4484 82.4423 28.4484 83.3902 28.4484 83.9846 28.0918 83.9846 27.4154 83.9846 25.3157 77.7159 26.5688 77.7159 22.3677 77.7159 20.1812 79.5972 18.7932 82.4423 18.7932 84.1533 18.7932 85.898 19.3185 87.1173 20.1154Z" fill="#FFFFFF" fill-rule="nonzero" fill-opacity="1" transform="matrix(1.13994 0 0 1 1056.11 146)"/><path d="M52.0387 30.9225 44.9154 30.9225 49.0265 29.1939 49.0393 29.2421 50.4402 28.7424 52.0387 28.5304 52.0387 30.9225Z" fill="#FFFFFF" fill-rule="nonzero" fill-opacity="1" transform="matrix(1.13994 0 0 1 1056.11 146)"/><path d="M71.7139 18.9281 68.6149 18.9281 63.4981 30.7875 66.5987 30.7875 67.4614 28.6011 68.3434 26.315 70.0704 21.9275 71.7653 26.315 72.6457 28.6011 73.4923 30.7875 76.7118 30.7875 71.7139 18.9281Z" fill="#FFFFFF" fill-rule="nonzero" fill-opacity="1" transform="matrix(1.13994 0 0 1 1056.11 146)"/><path d="M95.4873 18.9281 92.3884 18.9281 87.2715 30.7875 90.3722 30.7875 91.2365 28.6011 92.1169 26.315 93.8455 21.9275 95.5388 26.315 96.4191 28.6011 97.2674 30.7875 100.485 30.7875 95.4873 18.9281Z" fill="#FFFFFF" fill-rule="nonzero" fill-opacity="1" transform="matrix(1.13994 0 0 1 1056.11 146)"/><path d="M109.604 26.874C110.994 26.1784 111.755 24.8755 111.755 23.0634 111.755 20.4206 109.959 18.9297 106.826 18.9297L101.525 18.9297 101.525 30.7892 104.54 30.7892 104.54 21.3026 106.826 21.3026C108.131 21.3026 108.894 21.9291 108.894 23.1662 108.894 24.4032 108.132 25.0812 106.826 25.0812L105.75 25.0812 105.75 27.4524 106.911 27.4524 108.674 30.7892 112.096 30.7892 109.606 26.8756Z" fill="#FFFFFF" fill-rule="nonzero" fill-opacity="1" transform="matrix(1.13994 0 0 1 1056.11 146)"/><path d="M25.4388 19.7338C25.4388 20.5553 22.3015 21.2213 18.4313 21.2213 14.5612 21.2213 11.4238 20.5553 11.4238 19.7338 11.4238 18.9122 14.5612 18.2463 18.4313 18.2463 22.3015 18.2463 25.4388 18.9122 25.4388 19.7338Z" fill="#FFFFFF" fill-rule="nonzero" fill-opacity="1" transform="matrix(0.725243 -0.688493 0.784838 0.636214 1046.95 164.634)"/><path d="M5.88954 20.705C5.76584 20.064 5.69194 19.4037 5.67908 18.7289 5.55217 12.3237 10.6433 7.02857 17.0501 6.90165 17.5594 6.89202 18.059 6.91772 18.5522 6.97234 20.358 5.39794 22.1123 4.02436 23.767 2.88372 21.6705 2.01138 19.3635 1.54548 16.9473 1.59368 7.60692 1.77682 0.186358 9.4962 0.371109 18.8334 0.424124 21.4986 1.09244 24.0064 2.23468 26.2266 3.26286 24.453 4.5031 22.5862 5.89115 20.7066Z" fill="#FFFFFF" fill-rule="nonzero" fill-opacity="1" transform="matrix(1.13994 0 0 1 1056.11 146)"/><path d="M28.2396 5.62768C26.8997 6.35865 25.327 7.40932 23.5919 8.76684 26.707 10.7927 28.7971 14.2756 28.8758 18.2711 29.0027 24.6763 23.9116 29.9714 17.5048 30.0983 13.6796 30.1739 10.2513 28.3874 8.08245 25.5744 6.8647 27.4187 5.94256 29.067 5.31601 30.4486 8.45517 33.5909 12.8185 35.5027 17.6092 35.4079 26.9463 35.2232 34.3685 27.5054 34.1838 18.1666 34.0841 13.1318 31.7916 8.65599 28.238 5.62768Z" fill="#FFFFFF" fill-rule="nonzero" fill-opacity="1" transform="matrix(1.13994 0 0 1 1056.11 146)"/><path d="M4.03239 35.3838C1.85554 33.3725 6.58999 24.7084 14.6082 16.0332 22.6264 7.3563 30.8904 1.95515 33.0672 3.96652 33.6488 4.5031 33.7371 5.51522 33.4014 6.87595 34.7123 3.84121 34.9629 1.55351 33.8737 0.54622 31.2229-1.90374 21.6432 4.14967 12.4795 14.0652 3.31427 23.9807-1.96639 34.0054 0.684382 36.4554 1.77522 37.4627 4.0356 37.0321 6.95788 35.4866 5.62928 35.9284 4.61396 35.9204 4.03239 35.3822Z" fill="#F15B40" fill-rule="nonzero" fill-opacity="1" transform="matrix(1.13994 0 0 1 1056.11 146)"/><path d="M11.5429 13.1993C11.9847 12.7205 12.4297 12.2514 12.8731 11.7887 6.16747 5.98272 0.996049 2.2379 0.390387 2.89336-0.215275 3.54883 3.92636 8.41019 10.2432 14.6371 10.6722 14.1535 11.1043 13.6716 11.5429 13.1993Z" fill="#FFFFFF" fill-rule="nonzero" fill-opacity="1" transform="matrix(1.13994 0 0 1 1056.11 146)"/><path d="M18.6759 16.9875C17.9417 16.3095 15.148 19.3346 15.8806 20.0125 25.2081 28.6316 33.3949 34.942 34.1661 34.1066 34.9372 33.2712 28.0034 25.6065 18.6759 16.9875Z" fill="#FFFFFF" fill-rule="nonzero" fill-opacity="1" transform="matrix(1.13994 0 0 1 1056.11 146)"/><path d="M20.1861 21.2962C18.6422 22.9027 16.0878 22.9525 14.4829 21.4086 14.8218 19.7748 18.4687 14.0491 20.0736 15.593 21.6801 17.1369 21.7299 19.6912 20.1861 21.2962Z" fill="#FFFFFF" fill-rule="nonzero" fill-opacity="1" transform="matrix(1.13994 0 0 1 1056.11 146)"/></g></g></g></g></g></svg>