<svg width="323" height="88" xmlns="http://www.w3.org/2000/svg" xmlns:xlink="http://www.w3.org/1999/xlink" xml:space="preserve" overflow="hidden"><defs><clipPath id="clip0"><rect x="562" y="192" width="321" height="88"/></clipPath><clipPath id="clip1"><rect x="562" y="192" width="321" height="88"/></clipPath><clipPath id="clip2"><rect x="562" y="192" width="321" height="88"/></clipPath><clipPath id="clip3"><path d="M641.703 231.743C641.703 253.51 624.046 271.155 602.266 271.155 580.485 271.155 562.829 253.51 562.829 231.743 562.829 209.977 580.485 192.332 602.266 192.332 624.046 192.332 641.703 209.977 641.703 231.743Z" fill-rule="nonzero" clip-rule="nonzero"/></clipPath></defs><g transform="translate(-561 -192)"><g><g clip-path="url(#clip0)"><g clip-path="url(#clip1)"><g clip-path="url(#clip2)"><path d="M79.7682 40.2394C79.7682 62.0706 62.0706 79.7682 40.2394 79.7682 18.4083 79.7682 0.710708 62.0706 0.710708 40.2394 0.710708 18.4083 18.4083 0.710708 40.2394 0.710708 62.0706 0.710708 79.7682 18.4083 79.7682 40.2394Z" fill="#082340" fill-rule="nonzero" fill-opacity="1" transform="matrix(1.00065 0 0 1 562 192.092)"/><path d="M40.2394 80.4789C18.049 80.4789 0 62.4248 0 40.2394 0 18.0541 18.049 0 40.2394 0 62.4299 0 80.4789 18.049 80.4789 40.2394 80.4789 62.4299 62.4299 80.4789 40.2394 80.4789ZM40.2394 1.41631C18.8312 1.41631 1.41631 18.8312 1.41631 40.2394 1.41631 61.6476 18.8312 79.0626 40.2394 79.0626 61.6476 79.0626 79.0626 61.6476 79.0626 40.2394 79.0626 18.8312 61.6476 1.41631 40.2394 1.41631Z" fill="#FFFFFF" fill-rule="nonzero" fill-opacity="1" transform="matrix(1.00065 0 0 1 562 192.092)"/><path d="M33.2653 8.93755C33.5567 8.93755 33.7919 9.17275 33.7919 9.46419 33.7919 10.8703 34.3697 12.1536 35.2952 13.0842 36.2257 14.0148 37.504 14.5874 38.9152 14.5874 39.2066 14.5874 39.4418 14.8226 39.4418 15.1141 39.4418 15.4055 39.2066 15.6407 38.9152 15.6407 37.5091 15.6407 36.2257 16.2185 35.2952 17.1439 34.3646 18.0745 33.7919 19.3528 33.7919 20.764 33.7919 21.0554 33.5567 21.2906 33.2653 21.2906 32.9738 21.2906 32.7386 21.0554 32.7386 20.764 32.7386 19.3579 32.1609 18.0745 31.2354 17.1439 30.3049 16.2134 29.0266 15.6407 27.6154 15.6407 27.324 15.6407 27.0888 15.4055 27.0888 15.1141 27.0888 14.8226 27.324 14.5874 27.6154 14.5874 29.0215 14.5874 30.3049 14.0097 31.2354 13.0842 32.166 12.1536 32.7386 10.8754 32.7386 9.46419 32.7386 9.17275 32.9738 8.93755 33.2653 8.93755L33.2653 8.93755ZM66.2545 48.3487C66.4948 48.3487 66.6942 48.543 66.6942 48.7884 66.6942 49.9644 67.1748 51.0381 67.952 51.8153 68.7292 52.5925 69.7978 53.0731 70.9789 53.0731 71.2192 53.0731 71.4186 53.2674 71.4186 53.5128 71.4186 53.7583 71.2243 53.9526 70.9789 53.9526 69.8029 53.9526 68.7292 54.4332 67.952 55.2104 67.1748 55.9875 66.6942 57.0562 66.6942 58.2373 66.6942 58.4776 66.4999 58.677 66.2545 58.677 66.009 58.677 65.8148 58.4827 65.8148 58.2373 65.8148 57.0613 65.3341 55.9875 64.557 55.2104 63.7798 54.4332 62.7112 53.9526 61.53 53.9526 61.2897 53.9526 61.0903 53.7583 61.0903 53.5128 61.0903 53.2674 61.2846 53.0731 61.53 53.0731 62.706 53.0731 63.7798 52.5925 64.557 51.8153 65.3341 51.0381 65.8148 49.9695 65.8148 48.7884 65.8148 48.5481 66.009 48.3487 66.2545 48.3487ZM63.1815 22.3797C63.3094 22.3797 63.4167 22.4819 63.4167 22.6149 63.4167 23.2387 63.6724 23.8062 64.0866 24.2204 64.5007 24.6345 65.0683 24.8902 65.692 24.8902 65.8199 24.8902 65.9272 24.9924 65.9272 25.1254 65.9272 25.2583 65.825 25.3606 65.692 25.3606 65.0683 25.3606 64.5007 25.6162 64.0866 26.0304 63.6724 26.4445 63.4167 27.0121 63.4167 27.6359 63.4167 27.7637 63.3145 27.8711 63.1815 27.8711 63.0486 27.8711 62.9464 27.7688 62.9464 27.6359 62.9464 27.0121 62.6907 26.4445 62.2765 26.0304 61.8624 25.6162 61.2948 25.3606 60.6711 25.3606 60.5432 25.3606 60.4359 25.2583 60.4359 25.1254 60.4359 24.9924 60.5381 24.8902 60.6711 24.8902 61.2948 24.8902 61.8624 24.6345 62.2765 24.2204 62.6907 23.8062 62.9464 23.2387 62.9464 22.6149 62.9464 22.487 63.0486 22.3797 63.1815 22.3797ZM70.3705 32.8716C70.5801 32.8716 70.7488 33.0403 70.7488 33.25 70.7488 34.2674 71.163 35.1878 71.8328 35.8576 72.5026 36.5274 73.428 36.9415 74.4404 36.9415 74.65 36.9415 74.8188 37.1103 74.8188 37.3199 74.8188 37.5295 74.65 37.6983 74.4404 37.6983 73.4229 37.6983 72.5026 38.1124 71.8328 38.7822 71.163 39.452 70.7488 40.3775 70.7488 41.3899 70.7488 41.5995 70.5801 41.7682 70.3705 41.7682 70.1608 41.7682 69.9921 41.5995 69.9921 41.3899 69.9921 40.3724 69.5779 39.452 68.9081 38.7822 68.2383 38.1124 67.3129 37.6983 66.3005 37.6983 66.0909 37.6983 65.9221 37.5295 65.9221 37.3199 65.9221 37.1103 66.0909 36.9415 66.3005 36.9415 67.318 36.9415 68.2383 36.5274 68.9081 35.8576 69.5779 35.1878 69.9921 34.2623 69.9921 33.25 69.9921 33.0403 70.1608 32.8716 70.3705 32.8716ZM9.8988 36.916C10.0266 36.916 10.134 37.0182 10.134 37.1512 10.134 37.775 10.3897 38.3425 10.8038 38.7567 11.218 39.1708 11.7855 39.4265 12.4093 39.4265 12.5371 39.4265 12.6445 39.5287 12.6445 39.6617 12.6445 39.7946 12.5422 39.8969 12.4093 39.8969 11.7855 39.8969 11.218 40.1525 10.8038 40.5667 10.3897 40.9808 10.134 41.5484 10.134 42.1722 10.134 42.3 10.0317 42.4074 9.8988 42.4074 9.76586 42.4074 9.6636 42.3051 9.6636 42.1722 9.6636 41.5484 9.40795 40.9808 8.9938 40.5667 8.57964 40.1525 8.0121 39.8969 7.38831 39.8969 7.26048 39.8969 7.15311 39.7946 7.15311 39.6617 7.15311 39.5287 7.25537 39.4265 7.38831 39.4265 8.0121 39.4265 8.57964 39.1708 8.9938 38.7567 9.40795 38.3425 9.6636 37.775 9.6636 37.1512 9.6636 37.0234 9.76586 36.916 9.8988 36.916ZM46.1399 7.84848C46.2677 7.84848 46.3751 7.95074 46.3751 8.08368 46.3751 8.70747 46.6307 9.27501 47.0449 9.68917 47.459 10.1033 48.0266 10.359 48.6504 10.359 48.7782 10.359 48.8856 10.4612 48.8856 10.5942 48.8856 10.7271 48.7833 10.8294 48.6504 10.8294 48.0266 10.8294 47.459 11.085 47.0449 11.4992 46.6307 11.9133 46.3751 12.4809 46.3751 13.1047 46.3751 13.2325 46.2728 13.3399 46.1399 13.3399 46.0069 13.3399 45.9047 13.2376 45.9047 13.1047 45.9047 12.4809 45.649 11.9133 45.2349 11.4992 44.8207 11.085 44.2532 10.8294 43.6294 10.8294 43.5015 10.8294 43.3942 10.7271 43.3942 10.5942 43.3942 10.4612 43.4964 10.359 43.6294 10.359 44.2532 10.359 44.8207 10.1033 45.2349 9.68917 45.649 9.27501 45.9047 8.70747 45.9047 8.08368 45.9047 7.95585 46.0069 7.84848 46.1399 7.84848ZM58.1503 13.8665C57.5828 13.299 56.8005 12.9462 55.9364 12.9462 55.0723 12.9462 54.2849 13.299 53.7225 13.8665 53.16 14.434 52.8021 15.2163 52.8021 16.0804 52.8021 16.9445 53.1549 17.7319 53.7225 18.2944 54.29 18.8619 55.0723 19.2147 55.9364 19.2147 56.8005 19.2147 57.5879 18.8619 58.1503 18.2944 58.7179 17.7268 59.0707 16.9445 59.0707 16.0804 59.0707 15.2163 58.7179 14.4289 58.1503 13.8665ZM60.0779 35.9241C59.6791 35.5252 59.1218 35.2747 58.5083 35.2747 57.8947 35.2747 57.3425 35.5252 56.9386 35.9241 56.5397 36.3229 56.2892 36.8802 56.2892 37.4938 56.2892 38.1073 56.5397 38.6595 56.9386 39.0634 57.3374 39.4623 57.8947 39.7128 58.5083 39.7128 59.1218 39.7128 59.674 39.4623 60.0779 39.0634 60.4768 38.6646 60.7273 38.1073 60.7273 37.4938 60.7273 36.8802 60.4768 36.328 60.0779 35.9241ZM12.3735 22.5995C12.4911 22.9932 12.2661 23.4023 11.8775 23.5199 11.4889 23.6375 11.0748 23.4125 10.9572 23.0239 10.6146 21.8837 10.768 20.7128 11.2947 19.7362 11.8162 18.7648 12.711 17.9927 13.8563 17.6501 13.9227 17.6297 13.9892 17.6143 14.0557 17.5939 14.2142 17.0621 14.4903 16.5662 14.8533 16.1469 15.3237 15.6049 15.9424 15.1908 16.6735 14.9709 17.7064 14.659 18.7699 14.8022 19.6493 15.2726 20.5288 15.7481 21.2292 16.556 21.536 17.5888 21.5769 17.7268 21.6127 17.87 21.6383 18.0132 22.0115 18.0643 22.3694 18.1921 22.6813 18.3915 23.2131 18.7239 23.6273 19.2403 23.8215 19.8845 24.0312 20.5901 23.9391 21.3111 23.617 21.9093 23.2949 22.5075 22.7427 22.983 22.0371 23.1978 21.6434 23.3154 21.2344 23.0904 21.1168 22.7018 20.9992 22.3132 21.2241 21.8991 21.6127 21.7815 21.9246 21.6894 22.17 21.4747 22.3132 21.2088 22.4564 20.9429 22.4973 20.6208 22.4052 20.3089 22.3183 20.0226 22.1343 19.7925 21.8991 19.6493 21.669 19.5062 21.398 19.4397 21.1219 19.4755 21.0656 19.4857 21.0094 19.4959 20.9531 19.4908 20.5441 19.4908 20.2169 19.1534 20.222 18.7443 20.222 18.6267 20.2169 18.504 20.1964 18.3762 20.1811 18.2586 20.1555 18.1359 20.1146 18.0132 19.9203 17.3689 19.4908 16.8678 18.9437 16.5764 18.3966 16.285 17.7371 16.198 17.0979 16.3872 16.6378 16.5253 16.2543 16.7809 15.9628 17.1184 15.6714 17.4558 15.472 17.87 15.4004 18.3199 15.3646 18.6523 15.1039 18.9284 14.7562 18.9693 14.6795 18.9795 14.6028 18.9897 14.5159 19.0102 14.4392 19.0255 14.3574 19.046 14.2755 19.0716 13.5239 19.2965 12.9359 19.8027 12.5934 20.4418 12.2508 21.081 12.1485 21.8479 12.3735 22.5995ZM47.7044 32.892C48.0368 32.9023 48.2976 33.1733 48.2873 33.4954 48.2771 33.8175 48.0061 34.0783 47.6738 34.0731 47.3159 34.0629 46.9631 33.9862 46.6358 33.8431 46.3239 33.705 46.0376 33.5056 45.7871 33.2448 45.7871 33.2448 45.7462 33.2039 45.7308 33.1784 45.2553 32.6466 45.0252 31.9768 45.0508 31.3172 45.0712 30.6423 45.3525 29.9725 45.8893 29.4714 45.8893 29.4714 45.9302 29.4305 45.9558 29.4152 46.2114 29.1902 46.4927 29.0266 46.7841 28.9141 46.9784 28.8425 47.1778 28.7914 47.3772 28.7658 47.4335 28.6533 47.4948 28.5409 47.5613 28.4335 47.6993 28.2136 47.8732 28.0091 48.0777 27.8199 48.7168 27.2268 49.5349 26.9507 50.3428 26.9763 51.1506 27.0018 51.9482 27.3342 52.5465 27.9682 52.7714 28.2085 52.7612 28.5818 52.5158 28.8016 52.2755 29.0266 51.8971 29.0113 51.6721 28.7761 51.304 28.3824 50.8029 28.1778 50.3019 28.1625 49.7957 28.1472 49.2844 28.321 48.8907 28.684 48.768 28.7965 48.6606 28.9295 48.5737 29.0675 48.4867 29.2056 48.4152 29.3589 48.364 29.5174 48.2873 29.7629 48.0521 29.9367 47.7811 29.9316 47.592 29.9316 47.3977 29.9572 47.2085 30.0287 47.0449 30.0901 46.8915 30.1821 46.7534 30.2946L46.733 30.3151C46.733 30.3151 46.7176 30.3253 46.7176 30.3253 46.416 30.6065 46.2575 30.9798 46.2421 31.3581 46.2319 31.7263 46.3546 32.0944 46.6103 32.3858L46.6307 32.4063C46.6307 32.4063 46.6461 32.4216 46.6461 32.4216 46.7841 32.5699 46.9477 32.6824 47.1267 32.7591 47.3107 32.8409 47.505 32.8869 47.7044 32.892Z" fill="#FFFFFF" fill-rule="evenodd" fill-opacity="1" transform="matrix(1.00065 0 0 1 562 192.092)"/><g clip-path="url(#clip3)"><path d="M55.8444 71.4595 53.9014 66.6226C53.8247 66.4283 53.8094 66.2187 53.8554 66.0142L56.8158 52.9709C56.9948 52.1732 56.2278 51.529 55.4507 51.7949 54.4945 52.1221 53.564 51.9073 53.7174 49.6985 54.0139 45.332 51.892 47.2341 51.892 47.2341 51.892 47.2341 48.9316 52.1425 49.2537 55.8597 49.5758 59.5769 48.0624 68.2434 46.3239 64.8944 45.4547 63.2225 43.5987 63.0946 41.9523 63.3861 41.3745 63.4883 40.8326 63.1049 40.7456 62.5271 40.3468 59.8632 40.2037 57.4396 40.8274 55.7114 42.6784 50.6138 41.7171 53.6611 42.1568 45.8791 42.5965 38.1022 38.2556 37.054 36.2871 38.1329 34.4259 39.1504 34.7532 43.0925 33.7203 50.4962 32.5904 58.5849 33.4187 56.5653 33.7203 61.2539 34.022 65.9426 35.0548 67.4816 34.3083 70.6363 34.114 71.4595 33.7612 72.4157 33.342 73.3871 33.1681 73.3309 32.9994 73.2695 32.8256 73.2235 30.3151 72.5946 32.892 72.0884 28.4233 64.4291 28.3466 64.2911 28.2903 64.1326 28.2852 63.9792 27.9938 59.3672 27.7432 54.8576 27.6461 49.0287 27.5029 40.7098 26.6286 42.8522 31.0565 35.2798 35.4792 27.7023 31.1229 25.9792 29.2976 24.8799 27.0939 23.5557 21.0503 27.4774 20.0072 30.944 18.4989 35.9547 19.0716 30.2179 16.1316 36.8035 13.1916 43.3942 19.5777 56.1614 18.1614 57.9305 16.7502 59.6996 17.7933 61.0136 19.8538 68.0798 21.352 73.2133 20.3907 75.0335 19.7516 75.6471 19.4908 75.8925 19.3937 76.2606 19.4806 76.6083L22.032 87.0389C22.17 87.6013 22.7478 87.9388 23.3 87.7803L29.134 86.1288C29.6044 85.9958 29.9163 85.551 29.8754 85.0602 29.7833 84.058 29.6197 82.2378 29.4356 80.0392L31.2661 80.9084C31.4655 81.0055 31.6342 81.164 31.7365 81.3583L33.751 85.2391C34.022 85.7657 34.6918 85.9549 35.1929 85.6379 36.0263 85.1164 37.2943 84.2267 38.547 83.0047L39.3498 84.2728 47.9345 84.1858C48.0726 84.1858 48.2106 84.1551 48.3385 84.0989L55.5887 80.8982C55.9722 80.7294 56.2125 80.3459 56.1972 79.9267L55.916 71.8072C55.916 71.6896 55.8853 71.572 55.8444 71.4595Z" fill="#F15B40" fill-rule="evenodd" fill-opacity="1" transform="matrix(1.00065 0 0 1 562 192.092)"/></g><path d="M94.6062 13.933C94.6062 7.25026 99.8623 2.46447 106.939 2.46447 110.866 2.46447 114.143 3.86033 116.285 6.39127L112.911 9.43352C111.387 7.72577 109.47 6.8361 107.2 6.8361 102.945 6.8361 99.9288 9.75052 99.9288 13.933 99.9288 18.1154 102.945 21.0298 107.2 21.0298 109.47 21.0298 111.387 20.1402 112.911 18.4017L116.285 21.444C114.143 24.0107 110.866 25.4015 106.903 25.4015 99.8623 25.4015 94.601 20.6157 94.601 13.933" fill="#F15B40" fill-rule="nonzero" fill-opacity="1" transform="matrix(1.00065 0 0 1 562 192.092)"/><path d="M147.649 8.73815 152.128 8.73815 152.128 12.5371 147.776 12.5371 147.725 25.3964 142.663 25.3964 142.715 12.5371 139.969 12.5371 139.969 8.73815 142.715 8.73815 142.715 7.97631C142.715 4.14666 145.067 1.64128 149.413 1.64128 150.839 1.64128 152.332 1.92761 153.273 2.56162L151.944 6.14073C151.391 5.76237 150.681 5.5374 149.898 5.5374 148.405 5.5374 147.643 6.32992 147.643 8.00698L147.643 8.73303Z" fill="#082340" fill-rule="nonzero" fill-opacity="1" transform="matrix(1.00065 0 0 1 562 192.092)"/><path d="M153.135 16.6224C153.135 11.4941 157.195 7.84848 162.742 7.84848 168.29 7.84848 172.319 11.4941 172.319 16.6224 172.319 21.7508 168.244 25.3964 162.691 25.3964 157.138 25.3964 153.135 21.7559 153.135 16.6224M167.191 16.6224C167.191 13.6773 165.278 11.9031 162.747 11.9031 160.216 11.9031 158.268 13.6773 158.268 16.6224 158.268 19.5675 160.216 21.3417 162.747 21.3417 165.278 21.3417 167.191 19.5675 167.191 16.6224" fill="#082340" fill-rule="nonzero" fill-opacity="1" transform="matrix(1.00065 0 0 1 562 192.092)"/><path d="M186.702 7.83825 186.702 12.4706C186.272 12.44 185.945 12.4042 185.546 12.4042 182.714 12.4042 180.837 13.9125 180.837 17.2258L180.786 25.3964 175.647 25.3964 175.647 8.09391 180.612 8.09391 180.612 10.3794C181.865 8.70747 183.971 7.83825 186.707 7.83825" fill="#082340" fill-rule="nonzero" fill-opacity="1" transform="matrix(1.00065 0 0 1 562 192.092)"/><path d="M207.404 8.10413 207.404 22.2928C207.404 28.6278 203.846 31.5422 197.552 31.5422 194.238 31.5422 191.027 30.7497 188.982 29.2004L190.997 25.652C192.49 26.8229 194.924 27.5847 197.163 27.5847 200.732 27.5847 202.343 25.9997 202.343 22.9268L202.343 22.1956C201.013 23.6221 199.096 24.3175 196.826 24.3175 191.989 24.3175 188.093 21.0554 188.093 16.0804 188.093 11.1055 191.989 7.84337 196.826 7.84337 199.259 7.84337 201.274 8.63589 202.603 10.2823L202.603 8.09902 207.404 8.09902ZM202.404 16.0856C202.404 13.5853 200.492 11.9031 197.828 11.9031 195.164 11.9031 193.216 13.5802 193.216 16.0856 193.216 18.5909 195.164 20.268 197.828 20.268 200.492 20.268 202.404 18.5909 202.404 16.0856" fill="#082340" fill-rule="nonzero" fill-opacity="1" transform="matrix(1.00065 0 0 1 562 192.092)"/><path d="M229.119 18.0183 215.907 18.0183C216.393 20.1402 218.244 21.4389 220.908 21.4389 222.759 21.4389 224.088 20.902 225.29 19.7925L227.984 22.6456C226.363 24.4504 223.879 25.4015 220.729 25.4015 214.69 25.4015 210.815 21.6945 210.815 16.6275 210.815 11.5605 214.808 7.85359 220.131 7.85359 225.453 7.85359 229.217 11.2128 229.217 16.6889 229.217 17.0673 229.15 17.6092 229.119 18.0183M215.841 15.1345 224.441 15.1345C224.083 12.9819 222.426 11.5861 220.156 11.5861 217.886 11.5861 216.199 12.9462 215.841 15.1345" fill="#082340" fill-rule="nonzero" fill-opacity="1" transform="matrix(1.00065 0 0 1 562 192.092)"/><path d="M128.439 21.3417C125.913 21.3315 123.975 19.5624 123.975 16.6224 123.975 13.6824 125.913 11.9133 128.439 11.9031L128.439 7.84848C122.896 7.85359 118.847 11.4941 118.847 16.6224 118.847 21.7508 122.85 25.3964 128.403 25.3964 128.413 25.3964 128.429 25.3964 128.439 25.3964L128.439 21.3417Z" fill="#F15B40" fill-rule="nonzero" fill-opacity="1" transform="matrix(1.00065 0 0 1 562 192.092)"/><path d="M128.439 21.3417C130.965 21.3315 132.903 19.5624 132.903 16.6224 132.903 13.6824 130.965 11.9133 128.439 11.9031L128.439 7.84848C133.982 7.85359 138.031 11.4941 138.031 16.6224 138.031 21.7508 134.028 25.3964 128.475 25.3964 128.465 25.3964 128.449 25.3964 128.439 25.3964L128.439 21.3417Z" fill="#082340" fill-rule="nonzero" fill-opacity="1" transform="matrix(1.00065 0 0 1 562 192.092)"/><path d="M128.05 43.3482 128.05 79.8755 121.112 79.8755 102.899 57.6953 102.899 79.8755 94.5499 79.8755 94.5499 43.3482 101.545 43.3482 119.706 65.5284 119.706 43.3482 128.056 43.3482Z" fill="#082340" fill-rule="nonzero" fill-opacity="1" transform="matrix(1.00065 0 0 1 562 192.092)"/><path d="M165.002 73.0906 165.002 79.8755 136.717 79.8755 136.717 43.3482 164.322 43.3482 164.322 50.1331 145.118 50.1331 145.118 58.0634 162.078 58.0634 162.078 64.6388 145.118 64.6388 145.118 73.0906 165.002 73.0906Z" fill="#082340" fill-rule="nonzero" fill-opacity="1" transform="matrix(1.00065 0 0 1 562 192.092)"/><path d="M205.242 69.9103C205.242 76.2249 200.231 79.8755 190.629 79.8755L171.736 79.8755 171.736 43.3482 189.586 43.3482C198.717 43.3482 203.416 47.1574 203.416 52.8481 203.416 56.4988 201.535 59.3212 198.564 60.8858 202.634 62.1896 205.242 65.3188 205.242 69.9154ZM180.142 49.7139 180.142 58.3242 188.542 58.3242C192.664 58.3242 194.908 56.8619 194.908 53.9935 194.908 51.1251 192.664 49.7139 188.542 49.7139L180.142 49.7139ZM196.739 69.0206C196.739 65.9426 194.392 64.4803 190.005 64.4803L180.142 64.4803 180.142 73.5098 190.005 73.5098C194.387 73.5098 196.739 72.1549 196.739 69.0206Z" fill="#082340" fill-rule="nonzero" fill-opacity="1" transform="matrix(1.00065 0 0 1 562 192.092)"/><path d="M211.352 63.8053 211.352 43.3482 219.803 43.3482 219.803 63.4934C219.803 70.4369 222.83 73.3053 227.943 73.3053 233.056 73.3053 236.083 70.4369 236.083 63.4934L236.083 43.3482 244.433 43.3482 244.433 63.8053C244.433 74.5529 238.277 80.5044 227.892 80.5044 217.508 80.5044 211.352 74.5529 211.352 63.8053Z" fill="#082340" fill-rule="nonzero" fill-opacity="1" transform="matrix(1.00065 0 0 1 562 192.092)"/><path d="M252.793 43.3482 261.244 43.3482 261.244 72.9883 279.564 72.9883 279.564 79.8755 252.793 79.8755 252.793 43.3482Z" fill="#082340" fill-rule="nonzero" fill-opacity="1" transform="matrix(1.00065 0 0 1 562 192.092)"/><path d="M291.723 72.0475 291.779 72.0475 300.231 51.6466 308.683 72.0475 310.324 76.0203 311.925 79.8755 320.791 79.8755 304.46 43.3482 296.11 43.3482 279.825 79.8755 288.487 79.8755 291.723 72.0475Z" fill="#082340" fill-rule="nonzero" fill-opacity="1" transform="matrix(1.00065 0 0 1 562 192.092)"/></g></g></g></g></g></svg>