<svg width="454" height="74" xmlns="http://www.w3.org/2000/svg" xmlns:xlink="http://www.w3.org/1999/xlink" xml:space="preserve" overflow="hidden"><defs><clipPath id="clip0"><rect x="100" y="396" width="454" height="74"/></clipPath><clipPath id="clip1"><rect x="100" y="396" width="454" height="74"/></clipPath><clipPath id="clip2"><rect x="100" y="397" width="454" height="73"/></clipPath><clipPath id="clip3"><rect x="100" y="397" width="454" height="73"/></clipPath><clipPath id="clip4"><rect x="100" y="397" width="454" height="73"/></clipPath></defs><g clip-path="url(#clip0)" transform="translate(-100 -396)"><g clip-path="url(#clip1)"><g clip-path="url(#clip2)"><g clip-path="url(#clip3)"><g clip-path="url(#clip4)"><path d="M72.3232 36.4838C72.3232 56.2773 56.2773 72.3232 36.4838 72.3232 16.6902 72.3232 0.644375 56.2773 0.644375 36.4838 0.644375 16.6902 16.6902 0.644375 36.4838 0.644375 56.2773 0.644375 72.3232 16.6902 72.3232 36.4838Z" fill="#082340" fill-rule="nonzero" fill-opacity="1" transform="matrix(1.00248 0 0 1 100.661 397)"/><path d="M36.4838 72.9675C16.3644 72.9675 0 56.5985 0 36.4838 0 16.369 16.3644 0 36.4838 0 56.6032 0 72.9675 16.3644 72.9675 36.4838 72.9675 56.6032 56.6032 72.9675 36.4838 72.9675ZM36.4838 1.28412C17.0737 1.28412 1.28412 17.0737 1.28412 36.4838 1.28412 55.8939 17.0737 71.6834 36.4838 71.6834 55.8939 71.6834 71.6834 55.8939 71.6834 36.4838 71.6834 17.0737 55.8939 1.28412 36.4838 1.28412Z" fill="#FFFFFF" fill-rule="nonzero" fill-opacity="1" transform="matrix(1.00248 0 0 1 100.661 397)"/><path d="M40.3639 47.2388C39.8169 47.8369 38.8573 48.3561 37.6984 48.6064 35.7467 49.0236 33.6374 48.6296 33.3083 47.4243 32.993 46.27 34.24 45.0461 36.4513 44.6289 38.4123 44.258 40.6004 44.9024 40.8229 45.9501 40.9156 46.3766 40.7348 46.8263 40.3593 47.2388" fill="#F15B40" fill-rule="nonzero" fill-opacity="1" transform="matrix(1.00248 0 0 1 100.661 397)"/><path d="M43.3958 61.786C40.962 62.5231 38.5235 62.982 36.1454 63.1536 33.642 63.3343 31.3519 63.1906 29.3261 62.7502" fill="#F15B40" fill-rule="nonzero" fill-opacity="1" transform="matrix(1.00248 0 0 1 100.661 397)"/><path d="M40.2202 55.5972C40.0812 55.6296 39.9375 55.6621 39.7984 55.6899 38.2686 56.0144 36.7758 56.1767 35.3665 56.1767 30.5221 56.1767 26.8738 54.2389 26.0671 51.2442" fill="#F15B40" fill-rule="nonzero" fill-opacity="1" transform="matrix(1.00248 0 0 1 100.661 397)"/><path d="M19.0671 48.7687C20.4022 45.2825 23.4618 41.8938 27.5274 39.5434" fill="#F15B40" fill-rule="nonzero" fill-opacity="1" transform="matrix(1.00248 0 0 1 100.661 397)"/><path d="M46.0567 42.9044C45.2176 41.1798 42.9368 40.1878 39.803 40.1878" fill="#F15B40" fill-rule="nonzero" fill-opacity="1" transform="matrix(1.00248 0 0 1 100.661 397)"/><path d="M52.5237 46.4183C52.5237 46.562 52.0184 48.5044 48.8521 50.8826" fill="#F15B40" fill-rule="nonzero" fill-opacity="1" transform="matrix(1.00248 0 0 1 100.661 397)"/><path d="M42.6587 46.8355C42.6587 46.8355 42.6216 46.8448 42.6216 46.8216 42.7746 43.4189 39.5017 42.8719 37.4341 43.0388 35.8811 43.164 34.1149 43.6229 32.789 44.4342 30.0956 46.0892 29.0155 48.3422 30.0864 50.1826 31.4632 52.5422 35.2692 52.7276 38.3705 52.0554 43.7295 50.8919 49.7607 47.2898 47.4428 42.5242 45.8806 39.3116 40.5726 37.8143 32.8215 40.3639 26.3221 42.5057 21.8115 49.0978 23.9625 53.4694 26.1969 58.0078 31.7645 59.4449 40.0302 58.0078 49.974 56.274 57.4979 49.6309 55.9541 42.5984 58.5085 51.0958 52.2177 58.4899 40.8136 61.0721 31.2036 63.2463 21.6538 61.0813 19.8598 54.3131 18.4273 48.8985 23.8558 41.6944 32.1678 38.8527 41.0269 35.8301 49.7051 37.5222 51.5409 41.1938 54.1323 46.3766 46.5388 52.927 39.5156 54.4104 32.6731 55.8522 28.0605 53.6733 27.3188 50.9058 26.5261 47.9481 28.9691 44.2905 33.7904 42.4918 33.7904 42.4918 37.7401 40.8692 41.101 42.4176 43.7017 43.6136 42.909 46.2421 42.6494 46.8355Z" fill="#F15B40" fill-rule="nonzero" fill-opacity="1" transform="matrix(1.00248 0 0 1 100.661 397)"/><path d="M20.6154 51.819C20.6154 51.819 19.6419 60.5575 31.5513 61.8787" fill="#F15B40" fill-rule="nonzero" fill-opacity="1" transform="matrix(1.00248 0 0 1 100.661 397)"/><path d="M50.6879 42.6494C50.4283 39.8076 47.5494 37.7123 44.1282 37.4666" fill="#F15B40" fill-rule="nonzero" fill-opacity="1" transform="matrix(1.00248 0 0 1 100.661 397)"/><path d="M26.3824 27.3791C25.9744 27.2539 25.5108 26.9062 25.1307 26.4102 24.4956 25.5711 24.2128 24.4724 24.7135 24.0459 25.1956 23.638 26.0625 23.9625 26.7579 24.9267 27.3744 25.7843 27.5552 26.9757 27.1055 27.3188 26.9201 27.4579 26.6651 27.4718 26.3824 27.3883" fill="#F15B40" fill-rule="nonzero" fill-opacity="1" transform="matrix(1.00248 0 0 1 100.661 397)"/><path d="M20.0962 32.089C19.1969 31.0877 18.432 30.0215 17.82 28.9228 17.1757 27.7638 16.7306 26.6327 16.4896 25.5665" fill="#F15B40" fill-rule="nonzero" fill-opacity="1" transform="matrix(1.00248 0 0 1 100.661 397)"/><path d="M22.3492 29.1777C22.3029 29.1175 22.2565 29.0572 22.2101 28.997 21.7141 28.334 21.3015 27.6572 20.9863 26.985 19.9015 24.6625 20.0128 22.4836 21.2691 21.4267" fill="#F15B40" fill-rule="nonzero" fill-opacity="1" transform="matrix(1.00248 0 0 1 100.661 397)"/><path d="M20.8843 17.5187C22.8545 17.375 25.1585 18.0843 27.1983 19.5075" fill="#F15B40" fill-rule="nonzero" fill-opacity="1" transform="matrix(1.00248 0 0 1 100.661 397)"/><path d="M29.734 29.136C30.3738 28.3479 30.3367 27.036 29.6367 25.534" fill="#F15B40" fill-rule="nonzero" fill-opacity="1" transform="matrix(1.00248 0 0 1 100.661 397)"/><path d="M29.4976 33.0208C29.4281 33.0533 28.385 33.248 26.5353 32.2606" fill="#F15B40" fill-rule="nonzero" fill-opacity="1" transform="matrix(1.00248 0 0 1 100.661 397)"/><path d="M27.0916 28.3897C27.0916 28.3897 27.0777 28.3758 27.0916 28.3711 28.7559 27.6804 28.283 25.993 27.7453 25.0426 27.3373 24.3287 26.7254 23.5823 26.0347 23.1327 24.6393 22.2148 23.3181 22.2009 22.6784 23.128 21.8578 24.3148 22.6181 26.183 23.6333 27.5135 25.3903 29.8175 28.4685 31.9036 30.2301 29.7248 31.4168 28.2552 30.9486 25.381 27.991 22.238 25.5108 19.6048 21.3432 18.9187 19.73 20.9307 18.0565 23.0168 18.6128 26.0069 21.1532 29.6413 24.2082 34.0175 29.0758 36.1315 32.0983 33.8182 28.5983 36.9427 23.6519 35.5844 19.8644 30.7029 16.6703 26.5863 15.5717 21.5287 18.4134 19.1551 20.685 17.2591 25.3532 18.2465 28.5751 21.5889 32.0056 25.1539 33.1367 29.6877 31.7877 31.389 29.8824 33.7904 25.0472 31.6208 22.7664 28.5844 20.5459 25.6314 20.5552 22.9333 21.7141 21.9598 22.9519 20.9167 25.2512 21.2691 27.1936 23.1744 27.1936 23.1744 28.8532 24.7042 28.8625 26.6605 28.8718 28.1718 27.4347 28.385 27.0963 28.3897Z" fill="#F15B40" fill-rule="nonzero" fill-opacity="1" transform="matrix(1.00248 0 0 1 100.661 397)"/><path d="M19.7717 18.9465C19.7717 18.9465 15.3677 20.4346 17.4028 26.4334" fill="#F15B40" fill-rule="nonzero" fill-opacity="1" transform="matrix(1.00248 0 0 1 100.661 397)"/><path d="M30.893 31.2963C32.1957 30.536 32.5573 28.6864 31.9082 26.9943" fill="#F15B40" fill-rule="nonzero" fill-opacity="1" transform="matrix(1.00248 0 0 1 100.661 397)"/><path d="M47.4196 25.6082C47.2157 25.9002 46.8263 26.1784 46.3349 26.3499 45.5097 26.6373 44.5686 26.5817 44.36 26.0764 44.1607 25.5943 44.6382 24.9916 45.5746 24.6903 46.4044 24.4214 47.3918 24.5837 47.5494 25.0241 47.6143 25.2049 47.5587 25.4088 47.4196 25.6082" fill="#F15B40" fill-rule="nonzero" fill-opacity="1" transform="matrix(1.00248 0 0 1 100.661 397)"/><path d="M49.5336 31.7692C48.5183 32.2235 47.4799 32.5573 46.4554 32.7612 45.3752 32.9745 44.3739 33.0394 43.4699 32.9606" fill="#F15B40" fill-rule="nonzero" fill-opacity="1" transform="matrix(1.00248 0 0 1 100.661 397)"/><path d="M47.8137 29.2519C47.7534 29.2751 47.6931 29.2936 47.6329 29.3168 46.9839 29.5393 46.3441 29.6923 45.7322 29.7711 43.6275 30.0354 41.9308 29.3956 41.4209 28.1347" fill="#F15B40" fill-rule="nonzero" fill-opacity="1" transform="matrix(1.00248 0 0 1 100.661 397)"/><path d="M38.2407 27.4393C38.6302 25.8492 39.7752 24.2082 41.4116 22.9658" fill="#F15B40" fill-rule="nonzero" fill-opacity="1" transform="matrix(1.00248 0 0 1 100.661 397)"/><path d="M49.6541 23.4108C49.1951 22.7062 48.1475 22.4002 46.7845 22.5717" fill="#F15B40" fill-rule="nonzero" fill-opacity="1" transform="matrix(1.00248 0 0 1 100.661 397)"/><path d="M52.6581 24.5883C52.6674 24.6532 52.5515 25.5247 51.3044 26.73" fill="#F15B40" fill-rule="nonzero" fill-opacity="1" transform="matrix(1.00248 0 0 1 100.661 397)"/><path d="M48.3932 25.3069C48.3932 25.3069 48.3792 25.3115 48.3746 25.3069 48.2541 23.8188 46.8031 23.7585 45.913 23.9439 45.2454 24.083 44.5037 24.3797 43.9706 24.8062 42.8905 25.6731 42.5428 26.7115 43.113 27.4532 43.8408 28.4036 45.5051 28.2738 46.817 27.8148 49.0839 27.0175 51.5084 25.1168 50.2382 23.1744 49.3806 21.8624 46.9931 21.5009 43.762 23.0353 41.0547 24.3194 39.4553 27.4347 40.6282 29.2195 41.8474 31.0692 44.3461 31.389 47.8647 30.3135 52.0925 29.0155 54.9992 25.7148 53.9422 22.7433 55.5184 26.2989 53.1866 29.8592 48.37 31.6023 44.309 33.0765 40.0394 32.6546 38.8898 29.8129 37.9719 27.5367 39.9375 24.1062 43.3958 22.4187 47.0812 20.6201 50.9475 20.8797 51.9488 22.377 53.3581 24.491 50.419 27.7546 47.4428 28.7791 44.5454 29.7804 42.4222 29.085 41.9494 27.9214 41.4441 26.6791 42.3063 24.9545 44.2997 23.9068 44.2997 23.9068 45.9269 22.9843 47.4753 23.4757 48.6713 23.8558 48.472 25.038 48.3885 25.3115Z" fill="#F15B40" fill-rule="nonzero" fill-opacity="1" transform="matrix(1.00248 0 0 1 100.661 397)"/><path d="M39.0845 28.6817C39.0845 28.6817 39.1401 32.5341 44.3878 32.4553" fill="#F15B40" fill-rule="nonzero" fill-opacity="1" transform="matrix(1.00248 0 0 1 100.661 397)"/><path d="M51.6568 23.0492C51.3879 21.83 50.0203 21.0744 48.5183 21.1532" fill="#F15B40" fill-rule="nonzero" fill-opacity="1" transform="matrix(1.00248 0 0 1 100.661 397)"/><path d="M58.374 24.732C58.374 29.1314 57.6416 29.8638 53.2422 29.8638 57.6416 29.8638 58.374 30.5963 58.374 34.9957 58.374 30.5963 59.1065 29.8638 63.5059 29.8638 59.1065 29.8638 58.374 29.1314 58.374 24.732Z" fill="#FFFFFF" fill-rule="nonzero" fill-opacity="1" transform="matrix(1.00248 0 0 1 100.661 397)"/><path d="M11.3531 41.2865C11.3531 45.6858 10.6206 46.4183 6.22125 46.4183 10.6206 46.4183 11.3531 47.1508 11.3531 51.5501 11.3531 47.1508 12.0855 46.4183 16.4849 46.4183 12.0855 46.4183 11.3531 45.6858 11.3531 41.2865Z" fill="#FFFFFF" fill-rule="nonzero" fill-opacity="1" transform="matrix(1.00248 0 0 1 100.661 397)"/><path d="M37.1003 11.3484C37.1003 13.5365 36.7341 13.9028 34.546 13.9028 36.7341 13.9028 37.1003 14.269 37.1003 16.4571 37.1003 14.269 37.4666 13.9028 39.6547 13.9028 37.4666 13.9028 37.1003 13.5365 37.1003 11.3484Z" fill="#FFFFFF" fill-rule="nonzero" fill-opacity="1" transform="matrix(1.00248 0 0 1 100.661 397)"/><path d="M50.3495 12.6048C50.3495 14.7928 49.9832 15.1591 47.7951 15.1591 49.9832 15.1591 50.3495 15.5253 50.3495 17.7134 50.3495 15.5253 50.7157 15.1591 52.9038 15.1591 50.7157 15.1591 50.3495 14.7928 50.3495 12.6048Z" fill="#FFFFFF" fill-rule="nonzero" fill-opacity="1" transform="matrix(1.00248 0 0 1 100.661 397)"/><path d="M12.373 30.8466C12.373 33.0347 12.0067 33.401 9.81863 33.401 12.0067 33.401 12.373 33.7672 12.373 35.9553 12.373 33.7672 12.7392 33.401 14.9273 33.401 12.7392 33.401 12.373 33.0347 12.373 30.8466Z" fill="#FFFFFF" fill-rule="nonzero" fill-opacity="1" transform="matrix(1.00248 0 0 1 100.661 397)"/><path d="M22.0293 10.8941C22.0293 12.7809 21.7141 13.0961 19.8273 13.0961 21.7141 13.0961 22.0293 13.4114 22.0293 15.2982 22.0293 13.4114 22.3446 13.0961 24.2313 13.0961 22.3446 13.0961 22.0293 12.7809 22.0293 10.8941Z" fill="#FFFFFF" fill-rule="nonzero" fill-opacity="1" transform="matrix(1.00248 0 0 1 100.661 397)"/><path d="M61.0582 48.5647C61.0582 50.0157 60.8171 50.2614 59.3615 50.2614 60.8125 50.2614 61.0582 50.5024 61.0582 51.9581 61.0582 50.5071 61.2992 50.2614 62.7549 50.2614 61.3039 50.2614 61.0582 50.0203 61.0582 48.5647Z" fill="#FFFFFF" fill-rule="nonzero" fill-opacity="1" transform="matrix(1.00248 0 0 1 100.661 397)"/><path d="M38.2407 65.6476C38.2407 67.0986 37.9997 67.3443 36.544 67.3443 37.995 67.3443 38.2407 67.5854 38.2407 69.041 38.2407 67.59 38.4818 67.3443 39.9375 67.3443 38.4864 67.3443 38.2407 67.1033 38.2407 65.6476Z" fill="#FFFFFF" fill-rule="nonzero" fill-opacity="1" transform="matrix(1.00248 0 0 1 100.661 397)"/><path d="M59.8621 18.4598C59.8621 19.4843 59.6906 19.6558 58.6661 19.6558 59.6906 19.6558 59.8621 19.8273 59.8621 20.8518 59.8621 19.8273 60.0337 19.6558 61.0582 19.6558 60.0337 19.6558 59.8621 19.4843 59.8621 18.4598Z" fill="#FFFFFF" fill-rule="nonzero" fill-opacity="1" transform="matrix(1.00248 0 0 1 100.661 397)"/><path d="M82.6332 11.914C82.6332 5.78085 87.4591 1.39074 93.9492 1.39074 97.5512 1.39074 100.56 2.67022 102.525 4.99276L99.4287 7.78351C98.0287 6.21661 96.2717 5.40071 94.1856 5.40071 90.2823 5.40071 87.5147 8.07557 87.5147 11.9094 87.5147 15.7432 90.2869 18.418 94.1856 18.418 96.2717 18.418 98.0287 17.6021 99.4287 16.0074L102.525 18.7982C100.56 21.1532 97.5512 22.4327 93.9167 22.4327 87.4544 22.4327 82.6286 18.0425 82.6286 11.9094" fill="#F15B40" fill-rule="nonzero" fill-opacity="1" transform="matrix(1.00248 0 0 1 100.661 397)"/><path d="M131.305 7.14377 135.416 7.14377 135.416 10.6299 131.425 10.6299 131.379 22.428 126.734 22.428 126.78 10.6299 124.263 10.6299 124.263 7.14377 126.78 7.14377 126.78 6.44377C126.78 2.92983 128.936 0.630469 132.927 0.630469 134.239 0.630469 135.607 0.89471 136.473 1.47419L135.25 4.75633C134.744 4.40865 134.091 4.20467 133.372 4.20467 132 4.20467 131.305 4.9325 131.305 6.47158L131.305 7.13914Z" fill="#FFFFFF" fill-rule="nonzero" fill-opacity="1" transform="matrix(1.00248 0 0 1 100.661 397)"/><path d="M136.339 14.3803C136.339 9.67029 140.062 6.32787 145.156 6.32787 150.251 6.32787 153.941 9.67029 153.941 14.3803 153.941 19.0902 150.2 22.4327 145.11 22.4327 140.02 22.4327 136.344 19.0902 136.344 14.3803M149.236 14.3803C149.236 11.6776 147.479 10.0504 145.156 10.0504 142.834 10.0504 141.044 11.6776 141.044 14.3803 141.044 17.0829 142.829 18.7101 145.156 18.7101 147.483 18.7101 149.236 17.0829 149.236 14.3803" fill="#FFFFFF" fill-rule="nonzero" fill-opacity="1" transform="matrix(1.00248 0 0 1 100.661 397)"/><path d="M167.139 6.32324 167.139 10.5743C166.745 10.5465 166.444 10.514 166.082 10.514 163.482 10.514 161.762 11.9001 161.762 14.9412L161.715 22.4373 156.996 22.4373 156.996 6.55966 161.548 6.55966 161.548 8.65505C162.698 7.12059 164.631 6.32324 167.144 6.32324" fill="#FFFFFF" fill-rule="nonzero" fill-opacity="1" transform="matrix(1.00248 0 0 1 100.661 397)"/><path d="M186.137 6.5643 186.137 19.5863C186.137 25.3996 182.873 28.0744 177.097 28.0744 174.061 28.0744 171.112 27.3466 169.235 25.9234L171.08 22.6691C172.452 23.7446 174.682 24.4446 176.74 24.4446 180.018 24.4446 181.492 22.9936 181.492 20.1704L181.492 19.5028C180.268 20.8101 178.511 21.4499 176.429 21.4499 171.993 21.4499 168.419 18.4551 168.419 13.8935 168.419 9.33187 171.993 6.33714 176.429 6.33714 178.664 6.33714 180.509 7.06496 181.733 8.57624L181.733 6.56893 186.141 6.56893ZM181.547 13.8889C181.547 11.5941 179.79 10.0504 177.347 10.0504 174.904 10.0504 173.115 11.5895 173.115 13.8889 173.115 16.1882 174.904 17.7273 177.347 17.7273 179.79 17.7273 181.547 16.1882 181.547 13.8889" fill="#FFFFFF" fill-rule="nonzero" fill-opacity="1" transform="matrix(1.00248 0 0 1 100.661 397)"/><path d="M206.057 15.6597 193.934 15.6597C194.379 17.6068 196.081 18.7982 198.519 18.7982 200.216 18.7982 201.44 18.3022 202.538 17.2869L205.009 19.9015C203.521 21.5565 201.24 22.428 198.352 22.428 192.812 22.428 189.257 19.0253 189.257 14.3756 189.257 9.72592 192.919 6.32324 197.805 6.32324 202.691 6.32324 206.145 9.40605 206.145 14.4313 206.145 14.7789 206.085 15.275 206.057 15.6505M193.879 13.0173 201.769 13.0173C201.44 11.0425 199.924 9.763 197.838 9.763 195.751 9.763 194.203 11.0147 193.879 13.0173" fill="#FFFFFF" fill-rule="nonzero" fill-opacity="1" transform="matrix(1.00248 0 0 1 100.661 397)"/><path d="M113.679 18.7101C111.361 18.7008 109.586 17.0783 109.586 14.3803 109.586 11.6822 111.366 10.0551 113.679 10.0504L113.679 6.32787C108.594 6.33251 104.88 9.67492 104.88 14.3803 104.88 19.0856 108.557 22.4327 113.647 22.4327 113.656 22.4327 113.67 22.4327 113.679 22.4327L113.679 18.7147Z" fill="#F15B40" fill-rule="nonzero" fill-opacity="1" transform="matrix(1.00248 0 0 1 100.661 397)"/><path d="M113.679 18.7101C115.997 18.7008 117.773 17.0783 117.773 14.3803 117.773 11.6822 115.992 10.0551 113.679 10.0504L113.679 6.32787C118.765 6.33251 122.478 9.67492 122.478 14.3803 122.478 19.0856 118.802 22.4327 113.712 22.4327 113.702 22.4327 113.688 22.4327 113.679 22.4327L113.679 18.7147Z" fill="#FFFFFF" fill-rule="nonzero" fill-opacity="1" transform="matrix(1.00248 0 0 1 100.661 397)"/><path d="M82.5776 38.9083 97.8062 38.9083C108.77 38.9083 116.289 45.5143 116.289 55.6667 116.289 65.8191 108.77 72.4252 97.8062 72.4252L82.5776 72.4252 82.5776 38.9083ZM97.4214 66.0556C104.078 66.0556 108.436 62.0827 108.436 55.6667 108.436 49.2508 104.078 45.2779 97.4214 45.2779L90.3333 45.2779 90.3333 66.0602 97.4214 66.0602Z" fill="#FFFFFF" fill-rule="nonzero" fill-opacity="1" transform="matrix(1.00248 0 0 1 100.661 397)"/><path d="M139.853 38.9083 132.19 38.9083 117.253 72.4252 125.199 72.4252 128.171 65.2443 128.222 65.2443 135.973 46.5203 143.728 65.2443 143.733 65.2443 145.119 68.6053 146.705 72.4252 154.84 72.4252 139.853 38.9083Z" fill="#FFFFFF" fill-rule="nonzero" fill-opacity="1" transform="matrix(1.00248 0 0 1 100.661 397)"/><path d="M203.03 38.9083 195.367 38.9083 180.43 72.4252 188.376 72.4252 191.347 65.2443 191.398 65.2443 199.149 46.5203 206.905 65.2443 206.91 65.2443 208.296 68.6053 209.881 72.4252 218.017 72.4252 203.03 38.9083Z" fill="#FFFFFF" fill-rule="nonzero" fill-opacity="1" transform="matrix(1.00248 0 0 1 100.661 397)"/><path d="M163.607 45.2269 152.88 45.2269 152.88 38.9083 182.09 38.9083 182.09 45.2269 171.362 45.2269 171.362 72.4252 163.607 72.4252 163.607 45.2269Z" fill="#FFFFFF" fill-rule="nonzero" fill-opacity="1" transform="matrix(1.00248 0 0 1 100.661 397)"/><path d="M232.713 55.6667C232.713 45.5653 240.468 38.3335 250.908 38.3335 256.703 38.3335 261.538 40.4381 264.7 44.2719L259.721 48.8706C257.473 46.2839 254.645 44.9441 251.293 44.9441 245.021 44.9441 240.566 49.3481 240.566 55.6714 240.566 61.9946 245.021 66.3986 251.293 66.3986 254.645 66.3986 257.473 65.0589 259.721 62.4257L264.7 67.0245C261.538 70.9046 256.703 73.0093 250.862 73.0093 240.473 73.0093 232.713 65.7774 232.713 55.676Z" fill="#FFFFFF" fill-rule="nonzero" fill-opacity="1" transform="matrix(1.00248 0 0 1 100.661 397)"/><path d="M267.096 55.6667C267.096 45.709 274.852 38.3335 285.436 38.3335 296.019 38.3335 303.775 45.658 303.775 55.6667 303.775 65.6754 295.968 73 285.436 73 274.903 73 267.096 65.6244 267.096 55.6667ZM295.922 55.6667C295.922 49.2971 291.421 44.9395 285.436 44.9395 279.451 44.9395 274.949 49.2971 274.949 55.6667 274.949 62.0363 279.451 66.394 285.436 66.394 291.421 66.394 295.922 62.0363 295.922 55.6667Z" fill="#FFFFFF" fill-rule="nonzero" fill-opacity="1" transform="matrix(1.00248 0 0 1 100.661 397)"/><path d="M306.988 69.1198 309.621 63.2787C312.444 65.337 316.658 66.7741 320.682 66.7741 325.28 66.7741 327.144 65.2397 327.144 63.1814 327.144 56.9091 307.655 61.2158 307.655 48.7687 307.655 43.0713 312.254 38.3288 321.78 38.3288 325.994 38.3288 330.306 39.3348 333.416 41.2957L331.024 47.1832C327.914 45.4123 324.706 44.5501 321.734 44.5501 317.135 44.5501 315.364 46.2746 315.364 48.3792 315.364 54.5541 334.853 50.2938 334.853 62.6019 334.853 68.2066 330.208 72.9907 320.631 72.9907 315.318 72.9907 309.954 71.4099 306.983 69.1106Z" fill="#FFFFFF" fill-rule="nonzero" fill-opacity="1" transform="matrix(1.00248 0 0 1 100.661 397)"/><path d="M370.674 72.4252 370.628 52.315 360.763 68.8834 357.267 68.8834 347.453 52.7462 347.453 72.4252 340.175 72.4252 340.175 38.9083 346.591 38.9083 359.136 59.737 371.49 38.9083 377.86 38.9083 377.957 72.4252 370.679 72.4252Z" fill="#FFFFFF" fill-rule="nonzero" fill-opacity="1" transform="matrix(1.00248 0 0 1 100.661 397)"/><path d="M383.803 55.6667C383.803 45.709 391.559 38.3335 402.142 38.3335 412.726 38.3335 420.481 45.658 420.481 55.6667 420.481 65.6754 412.675 73 402.142 73 391.61 73 383.803 65.6244 383.803 55.6667ZM412.628 55.6667C412.628 49.2971 408.127 44.9395 402.142 44.9395 396.157 44.9395 391.656 49.2971 391.656 55.6667 391.656 62.0363 396.157 66.394 402.142 66.394 408.127 66.394 412.628 62.0363 412.628 55.6667Z" fill="#FFFFFF" fill-rule="nonzero" fill-opacity="1" transform="matrix(1.00248 0 0 1 100.661 397)"/><path d="M423.694 69.1198 426.327 63.2787C429.15 65.337 433.364 66.7741 437.388 66.7741 441.987 66.7741 443.85 65.2397 443.85 63.1814 443.85 56.9091 424.361 61.2158 424.361 48.7687 424.361 43.0713 428.96 38.3288 438.487 38.3288 442.701 38.3288 447.012 39.3348 450.123 41.2957L447.731 47.1832C444.62 45.4123 441.412 44.5501 438.44 44.5501 433.842 44.5501 432.071 46.2746 432.071 48.3792 432.071 54.5541 451.56 50.2938 451.56 62.6019 451.56 68.2066 446.915 72.9907 437.337 72.9907 432.024 72.9907 426.661 71.4099 423.689 69.1106Z" fill="#FFFFFF" fill-rule="nonzero" fill-opacity="1" transform="matrix(1.00248 0 0 1 100.661 397)"/></g></g></g></g></g></svg>