<svg width="400" height="75" xmlns="http://www.w3.org/2000/svg" xmlns:xlink="http://www.w3.org/1999/xlink" xml:space="preserve" overflow="hidden"><g transform="translate(-109 -549)"><g><g><g><g><path d="M72.3553 36.5C72.3553 56.3024 56.3024 72.3553 36.5 72.3553 16.6976 72.3553 0.644662 56.3024 0.644662 36.5 0.644662 16.6976 16.6976 0.644662 36.5 0.644662 56.3024 0.644662 72.3553 16.6976 72.3553 36.5Z" fill="#082340" fill-rule="nonzero" fill-opacity="1" transform="matrix(1.00365 0 0 1 110.495 550)"/><path d="M36.5 73C16.3717 73 0 56.6237 0 36.5 0 16.3763 16.3717 0 36.5 0 56.6283 0 73 16.3717 73 36.5 73 56.6283 56.6283 73 36.5 73ZM36.5 1.28469C17.0813 1.28469 1.28469 17.0813 1.28469 36.5 1.28469 55.9187 17.0813 71.7153 36.5 71.7153 55.9187 71.7153 71.7153 55.9187 71.7153 36.5 71.7153 17.0813 55.9187 1.28469 36.5 1.28469Z" fill="#FFFFFF" fill-rule="nonzero" fill-opacity="1" transform="matrix(1.00365 0 0 1 110.495 550)"/><path d="M84.6318 11.9193C84.6318 5.89936 89.367 1.59079 95.7441 1.59079 99.2828 1.59079 102.237 2.84765 104.166 5.12948L101.124 7.87046C99.7512 6.33069 98.0259 5.52834 95.976 5.52834 92.1451 5.52834 89.4273 8.15337 89.4273 11.9193 89.4273 15.6853 92.1451 18.3103 95.976 18.3103 98.0213 18.3103 99.7466 17.5079 101.124 15.9403L104.166 18.6813C102.237 20.991 99.2828 22.2478 95.7163 22.2478 89.3717 22.2478 84.6318 17.9393 84.6318 11.9193" fill="#F15B40" fill-rule="nonzero" fill-opacity="1" transform="matrix(1.00365 0 0 1 110.495 550)"/><path d="M132.42 7.23507 136.455 7.23507 136.455 10.6578 132.536 10.6578 132.49 22.2432 127.926 22.2432 127.973 10.6578 125.501 10.6578 125.501 7.23507 127.973 7.23507 127.973 6.54867C127.973 3.09809 130.092 0.839454 134.006 0.839454 135.291 0.839454 136.636 1.09917 137.485 1.66963L136.284 4.89295C135.787 4.54975 135.143 4.35032 134.442 4.35032 133.097 4.35032 132.411 5.06455 132.411 6.57649L132.411 7.23043Z" fill="#FFFFFF" fill-rule="nonzero" fill-opacity="1" transform="matrix(1.00365 0 0 1 110.495 550)"/><path d="M137.364 14.3403C137.364 9.71633 141.019 6.43736 146.019 6.43736 151.018 6.43736 154.645 9.72097 154.645 14.3403 154.645 18.9596 150.972 22.2432 145.972 22.2432 140.973 22.2432 137.364 18.9596 137.364 14.3403M150.026 14.3403C150.026 11.6874 148.3 10.0874 146.019 10.0874 143.737 10.0874 141.984 11.6874 141.984 14.3403 141.984 16.9931 143.737 18.5932 146.019 18.5932 148.3 18.5932 150.026 16.9931 150.026 14.3403" fill="#FFFFFF" fill-rule="nonzero" fill-opacity="1" transform="matrix(1.00365 0 0 1 110.495 550)"/><path d="M167.603 6.42808 167.603 10.6022C167.218 10.5743 166.921 10.5419 166.564 10.5419 164.013 10.5419 162.321 11.9008 162.321 14.8875L162.274 22.2478 157.641 22.2478 157.641 6.65997 162.112 6.65997 162.112 8.71919C163.239 7.21188 165.14 6.42808 167.603 6.42808" fill="#FFFFFF" fill-rule="nonzero" fill-opacity="1" transform="matrix(1.00365 0 0 1 110.495 550)"/><path d="M186.257 6.66461 186.257 19.4512C186.257 25.1604 183.052 27.7855 177.38 27.7855 174.398 27.7855 171.504 27.0712 169.658 25.6752L171.471 22.4797C172.816 23.5372 175.01 24.2189 177.027 24.2189 180.241 24.2189 181.693 22.7905 181.693 20.0217L181.693 19.3631C180.492 20.6478 178.767 21.2739 176.721 21.2739 172.366 21.2739 168.855 18.3335 168.855 13.8533 168.855 9.37313 172.366 6.43272 176.721 6.43272 178.915 6.43272 180.728 7.14695 181.925 8.63107L181.925 6.66461 186.252 6.66461ZM181.753 13.8579C181.753 11.6039 180.028 10.092 177.63 10.092 175.232 10.092 173.475 11.6039 173.475 13.8579 173.475 16.1119 175.228 17.6239 177.63 17.6239 180.033 17.6239 181.753 16.1119 181.753 13.8579" fill="#FFFFFF" fill-rule="nonzero" fill-opacity="1" transform="matrix(1.00365 0 0 1 110.495 550)"/><path d="M205.819 15.5971 193.918 15.5971C194.359 17.5079 196.024 18.6813 198.422 18.6813 200.091 18.6813 201.288 18.1943 202.369 17.1972L204.794 19.7666C203.333 21.3898 201.093 22.2478 198.259 22.2478 192.819 22.2478 189.327 18.9086 189.327 14.3449 189.327 9.78126 192.926 6.43736 197.721 6.43736 202.517 6.43736 205.907 9.46125 205.907 14.4006 205.907 14.7438 205.847 15.2261 205.819 15.5971M193.858 12.9999 201.608 12.9999C201.288 11.0613 199.795 9.80445 197.749 9.80445 195.704 9.80445 194.183 11.0335 193.863 12.9999" fill="#FFFFFF" fill-rule="nonzero" fill-opacity="1" transform="matrix(1.00365 0 0 1 110.495 550)"/><path d="M115.112 18.5932C112.839 18.5839 111.091 16.9885 111.091 14.3403 111.091 11.6921 112.839 10.0966 115.112 10.0874L115.112 6.43272C110.117 6.43736 106.471 9.72097 106.471 14.3356 106.471 18.9503 110.08 22.2386 115.079 22.2386 115.089 22.2386 115.103 22.2386 115.112 22.2386L115.112 18.5886Z" fill="#F15B40" fill-rule="nonzero" fill-opacity="1" transform="matrix(1.00365 0 0 1 110.495 550)"/><path d="M115.112 18.5932C117.384 18.5839 119.133 16.9885 119.133 14.3403 119.133 11.6921 117.384 10.0966 115.112 10.0874L115.112 6.43272C120.107 6.43736 123.752 9.72097 123.752 14.3356 123.752 18.9503 120.144 22.2386 115.144 22.2386 115.135 22.2386 115.121 22.2386 115.112 22.2386L115.112 18.5886Z" fill="#FFFFFF" fill-rule="nonzero" fill-opacity="1" transform="matrix(1.00365 0 0 1 110.495 550)"/><path d="M114.773 38.4154 114.773 71.3304 107.158 71.3304 107.158 57.8342 92.2054 57.8342 92.2054 71.3304 84.59 71.3304 84.59 38.4154 92.2054 38.4154 92.2054 51.3922 107.158 51.3922 107.158 38.4154 114.773 38.4154Z" fill="#FFFFFF" fill-rule="nonzero" fill-opacity="1" transform="matrix(1.00365 0 0 1 110.495 550)"/><path d="M138.375 59.6708 138.375 71.3304 130.76 71.3304 130.76 59.5734 118.015 38.4154 126.104 38.4154 134.897 53.0386 143.69 38.4154 151.167 38.4154 138.375 59.6708Z" fill="#FFFFFF" fill-rule="nonzero" fill-opacity="1" transform="matrix(1.00365 0 0 1 110.495 550)"/><path d="M182.574 50.3579C182.574 57.695 177.074 62.2541 168.28 62.2541L161.648 62.2541 161.648 71.3304 154.033 71.3304 154.033 38.4154 168.28 38.4154C177.074 38.4154 182.574 42.9745 182.574 50.3579ZM174.861 50.3579C174.861 46.7358 172.51 44.6209 167.854 44.6209L161.648 44.6209 161.648 56.0486 167.854 56.0486C172.51 56.0486 174.861 53.9337 174.861 50.3579Z" fill="#FFFFFF" fill-rule="nonzero" fill-opacity="1" transform="matrix(1.00365 0 0 1 110.495 550)"/><path d="M213.467 65.2177 213.467 71.3304 187.982 71.3304 187.982 38.4154 212.855 38.4154 212.855 44.5281 195.551 44.5281 195.551 51.6751 210.833 51.6751 210.833 57.5977 195.551 57.5977 195.551 65.213 213.467 65.213Z" fill="#FFFFFF" fill-rule="nonzero" fill-opacity="1" transform="matrix(1.00365 0 0 1 110.495 550)"/><path d="M240.501 71.3304 234.152 62.1613 227.144 62.1613 227.144 71.3304 219.529 71.3304 219.529 38.4154 233.776 38.4154C242.57 38.4154 248.07 42.9745 248.07 50.3579 248.07 55.2973 245.58 58.9148 241.299 60.7514L248.682 71.3304 240.501 71.3304ZM233.354 44.6209 227.149 44.6209 227.149 56.095 233.354 56.095C238.011 56.095 240.362 53.9337 240.362 50.3579 240.362 46.7822 238.011 44.6209 233.354 44.6209Z" fill="#FFFFFF" fill-rule="nonzero" fill-opacity="1" transform="matrix(1.00365 0 0 1 110.495 550)"/><path d="M284.278 38.4154 284.278 71.3304 278.026 71.3304 261.613 51.3458 261.613 71.3304 254.09 71.3304 254.09 38.4154 260.393 38.4154 276.755 58.4 276.755 38.4154 284.278 38.4154Z" fill="#FFFFFF" fill-rule="nonzero" fill-opacity="1" transform="matrix(1.00365 0 0 1 110.495 550)"/><path d="M290.015 54.8706C290.015 45.0893 297.63 37.8496 308.024 37.8496 318.417 37.8496 326.033 45.0429 326.033 54.8706 326.033 64.6982 318.366 71.8915 308.024 71.8915 297.681 71.8915 290.015 64.6518 290.015 54.8706ZM318.32 54.8706C318.32 48.6187 313.9 44.338 308.024 44.338 302.148 44.338 297.728 48.6187 297.728 54.8706 297.728 61.1224 302.148 65.4032 308.024 65.4032 313.9 65.4032 318.32 61.1224 318.32 54.8706Z" fill="#FFFFFF" fill-rule="nonzero" fill-opacity="1" transform="matrix(1.00365 0 0 1 110.495 550)"/><path d="M362.333 38.4154 348.086 71.3304 340.563 71.3304 326.362 38.4154 334.59 38.4154 344.607 61.9248 354.764 38.4154 362.333 38.4154Z" fill="#FFFFFF" fill-rule="nonzero" fill-opacity="1" transform="matrix(1.00365 0 0 1 110.495 550)"/><path d="M381.845 38.4154 374.322 38.4154 359.648 71.3304 367.453 71.3304 370.371 64.2762 370.422 64.2762 378.037 45.8917 385.652 64.2762 386.534 66.4096 388.574 71.3304 396.561 71.3304 381.845 38.4154Z" fill="#FFFFFF" fill-rule="nonzero" fill-opacity="1" transform="matrix(1.00365 0 0 1 110.495 550)"/><path d="M55.96 24.2374 65.5102 24.2374 65.5102 24.8778 55.96 24.8778Z" fill="#FFFFFF" fill-rule="nonzero" fill-opacity="1" transform="matrix(0.920859 -0.39628 0.397728 0.917507 105.724 576.079)"/><path d="M67.0543 49.4025 58.6968 46.0633 58.9194 45.4975 67.2769 48.8367 67.0543 49.4025Z" fill="#FFFFFF" fill-rule="nonzero" fill-opacity="1" transform="matrix(1.00365 0 0 1 110.495 550)"/><path d="M57.7878 45.785 48.0112 41.8799 48.2338 41.3141 58.0104 45.2192 57.7878 45.785Z" fill="#FFFFFF" fill-rule="nonzero" fill-opacity="1" transform="matrix(1.00365 0 0 1 110.495 550)"/><path d="M49.2634 66.7945 45.4696 58.0382 46.0633 57.7832 49.8524 66.5395 49.2634 66.7945Z" fill="#FFFFFF" fill-rule="nonzero" fill-opacity="1" transform="matrix(1.00365 0 0 1 110.495 550)"/><path d="M45.1635 57.1431 40.7297 46.8981 41.3234 46.643 45.7572 56.8834 45.1635 57.1431Z" fill="#FFFFFF" fill-rule="nonzero" fill-opacity="1" transform="matrix(1.00365 0 0 1 110.495 550)"/><path d="M23.3841 67.1146 22.8322 66.8966 26.0834 58.8035 26.6399 59.0215 23.3841 67.1146Z" fill="#FFFFFF" fill-rule="nonzero" fill-opacity="1" transform="matrix(1.00365 0 0 1 110.495 550)"/><path d="M27.317 57.324 26.7651 57.1107 30.5682 47.6448 31.1201 47.8581 27.317 57.324Z" fill="#FFFFFF" fill-rule="nonzero" fill-opacity="1" transform="matrix(1.00365 0 0 1 110.495 550)"/><path d="M4.19263 49.4999 3.97929 48.9991 11.2468 45.785 11.4602 46.2859 4.19263 49.4999Z" fill="#FFFFFF" fill-rule="nonzero" fill-opacity="1" transform="matrix(1.00365 0 0 1 110.495 550)"/><path d="M15.0499 44.6997 14.8412 44.1989 23.3424 40.4375 23.5557 40.9384 15.0499 44.6997Z" fill="#FFFFFF" fill-rule="nonzero" fill-opacity="1" transform="matrix(1.00365 0 0 1 110.495 550)"/><path d="M13.3107 26.5935 5.05527 23.2682 5.27325 22.707 13.5287 26.0277 13.3107 26.5935Z" fill="#FFFFFF" fill-rule="nonzero" fill-opacity="1" transform="matrix(1.00365 0 0 1 110.495 550)"/><path d="M24.9424 31.4633 15.2864 27.5767 15.5044 27.0156 25.1604 30.9021 24.9424 31.4633Z" fill="#FFFFFF" fill-rule="nonzero" fill-opacity="1" transform="matrix(1.00365 0 0 1 110.495 550)"/><path d="M26.3987 13.2968 22.9713 5.70457 23.5047 5.48196 26.9321 13.0741 26.3987 13.2968Z" fill="#FFFFFF" fill-rule="nonzero" fill-opacity="1" transform="matrix(1.00365 0 0 1 110.495 550)"/><path d="M31.032 23.5372 27.0202 14.651 27.5536 14.4284 31.5653 23.3146 31.032 23.5372Z" fill="#FFFFFF" fill-rule="nonzero" fill-opacity="1" transform="matrix(1.00365 0 0 1 110.495 550)"/><path d="M45.2563 13.7003 44.7971 13.4916 47.4778 5.63037 47.937 5.83907 45.2563 13.7003Z" fill="#FFFFFF" fill-rule="nonzero" fill-opacity="1" transform="matrix(1.00365 0 0 1 110.495 550)"/><path d="M41.8521 22.707 41.3976 22.5168 44.5281 14.2058 44.9873 14.3959 41.8521 22.707Z" fill="#FFFFFF" fill-rule="nonzero" fill-opacity="1" transform="matrix(1.00365 0 0 1 110.495 550)"/><path d="M48.6512 29.571 48.4889 29.2371 55.0283 26.7327 55.1952 27.0666 48.6512 29.571Z" fill="#FFFFFF" fill-rule="nonzero" fill-opacity="1" transform="matrix(1.00365 0 0 1 110.495 550)"/><path d="M67.2769 33.1932 68.7517 33.1932 68.7517 33.8332 67.2769 33.8332Z" fill="#FFFFFF" fill-rule="nonzero" fill-opacity="1" transform="matrix(1.00365 -0.00383971 0.00385373 0.999993 110.365 550.264)"/><path d="M50.1168 33.2257 64.1834 33.2257 64.1834 33.8657 50.1168 33.8657Z" fill="#FFFFFF" fill-rule="nonzero" fill-opacity="1" transform="matrix(1.00365 -0.00383971 0.00385373 0.999993 110.365 550.223)"/><path d="M58.2238 57.9223 57.1756 56.8834 57.6301 56.4243 58.6783 57.4678 58.2238 57.9223Z" fill="#FFFFFF" fill-rule="nonzero" fill-opacity="1" transform="matrix(1.00365 0 0 1 110.495 550)"/><path d="M54.9819 54.699 45.0058 44.7832 45.4557 44.3241 55.4364 54.2445 54.9819 54.699Z" fill="#FFFFFF" fill-rule="nonzero" fill-opacity="1" transform="matrix(1.00365 0 0 1 110.495 550)"/><path d="M35.7209 66.0432 36.3609 66.0432 36.3609 67.5181 35.7209 67.5181Z" fill="#FFFFFF" fill-rule="nonzero" fill-opacity="1" transform="matrix(1.00365 -0.00296706 0.0029779 0.999996 110.295 550.107)"/><path d="M35.6884 48.8785 36.3284 48.8785 36.3284 62.9451 35.6884 62.9451Z" fill="#FFFFFF" fill-rule="nonzero" fill-opacity="1" transform="matrix(1.00365 -0.00296706 0.0029779 0.999996 110.332 550.107)"/><path d="M14.6139 57.7136 14.1594 57.2591 15.1983 56.2109 15.6528 56.6654 14.6139 57.7136Z" fill="#FFFFFF" fill-rule="nonzero" fill-opacity="1" transform="matrix(1.00365 0 0 1 110.495 550)"/><path d="M17.8372 54.4717 17.3827 54.0172 27.2985 44.0412 27.753 44.491 17.8372 54.4717Z" fill="#FFFFFF" fill-rule="nonzero" fill-opacity="1" transform="matrix(1.00365 0 0 1 110.495 550)"/><path d="M3.58043 35.0391 5.05527 35.0391 5.05527 35.6791 3.58043 35.6791Z" fill="#FFFFFF" fill-rule="nonzero" fill-opacity="1" transform="matrix(1.00365 -0.00191986 0.00192687 0.999998 110.426 550.009)"/><path d="M8.14873 35.0066 22.2154 35.0066 22.2154 35.6466 8.14873 35.6466Z" fill="#FFFFFF" fill-rule="nonzero" fill-opacity="1" transform="matrix(1.00365 -0.00383971 0.00385373 0.999993 110.356 550.06)"/><path d="M15.5971 15.4626 14.6696 14.5026 15.0684 14.0852 15.996 15.0406 15.5971 15.4626Z" fill="#FFFFFF" fill-rule="nonzero" fill-opacity="1" transform="matrix(1.00365 0 0 1 110.495 550)"/><path d="M26.3895 26.5935 17.5404 17.4662 17.9439 17.0488 26.7883 26.1715 26.3895 26.5935Z" fill="#FFFFFF" fill-rule="nonzero" fill-opacity="1" transform="matrix(1.00365 0 0 1 110.495 550)"/><path d="M35.5492 5.55153 36.1893 5.55153 36.1893 6.84085 35.5492 6.84085Z" fill="#FFFFFF" fill-rule="nonzero" fill-opacity="1" transform="matrix(1.00365 -0.00349065 0.0035034 0.999994 110.472 550.121)"/><path d="M35.5817 9.54009 36.2217 9.54009 36.2217 21.8165 35.5817 21.8165Z" fill="#FFFFFF" fill-rule="nonzero" fill-opacity="1" transform="matrix(1.00365 -0.00331612 0.00332823 0.999994 110.444 550.121)"/><path d="M56.0579 15.0777 55.6637 14.6928 56.4985 13.742 56.8927 14.1269 56.0579 15.0777Z" fill="#FFFFFF" fill-rule="nonzero" fill-opacity="1" transform="matrix(1.00365 0 0 1 110.495 550)"/><path d="M46.3508 26.1483 45.9612 25.7633 53.9152 16.6917 54.3048 17.072 46.3508 26.1483Z" fill="#FFFFFF" fill-rule="nonzero" fill-opacity="1" transform="matrix(1.00365 0 0 1 110.495 550)"/><path d="M37.8357 37.9702 37.6409 42.0098 37.1818 51.2206 38.1789 41.9402C39.1018 41.7733 39.9459 41.3744 40.6509 40.8086L42.5107 41.8289 40.9524 40.5442 37.8311 37.9702Z" fill="#F15B40" fill-rule="nonzero" fill-opacity="1" transform="matrix(1.00365 0 0 1 110.495 550)"/><path d="M33.4065 32.4465 33.4065 32.4465C33.4065 32.4465 33.4065 32.4465 33.4065 32.4465L35.3498 34.0466 36.5325 35.0205 36.602 33.6013 36.7273 30.9763C35.4518 31.0783 34.297 31.621 33.4112 32.4419Z" fill="#F15B40" fill-rule="nonzero" fill-opacity="1" transform="matrix(1.00365 0 0 1 110.495 550)"/><path d="M35.7116 35.8414 33.1375 32.7201 31.8529 31.1618 32.8917 32.9938C32.2053 33.8379 31.7601 34.886 31.6673 36.0269L35.7069 35.8321Z" fill="#F15B40" fill-rule="nonzero" fill-opacity="1" transform="matrix(1.00365 0 0 1 110.495 550)"/><path d="M31.7508 37.5667C31.9503 38.601 32.4419 39.5285 33.1329 40.2706L35.7069 37.1493 31.6673 36.9545 22.1087 36.4954 31.7555 37.5667Z" fill="#F15B40" fill-rule="nonzero" fill-opacity="1" transform="matrix(1.00365 0 0 1 110.495 550)"/><path d="M33.4065 40.5396 31.8482 41.8243 33.6152 40.7297C34.4686 41.4486 35.54 41.9124 36.718 42.0098L36.5232 37.9702 33.4019 40.5442Z" fill="#F15B40" fill-rule="nonzero" fill-opacity="1" transform="matrix(1.00365 0 0 1 110.495 550)"/><path d="M41.2306 40.2706C41.9449 39.5053 42.4411 38.5407 42.6313 37.4693L52.2595 36.4954 42.6962 36.9545 38.6566 37.1493 41.2306 40.2706Z" fill="#F15B40" fill-rule="nonzero" fill-opacity="1" transform="matrix(1.00365 0 0 1 110.495 550)"/><path d="M38.6566 35.8414 42.6962 36.0362C42.6081 34.9417 42.1953 33.9353 41.5646 33.1144L42.5153 31.1665 41.2306 32.7248 38.6566 35.8461Z" fill="#F15B40" fill-rule="nonzero" fill-opacity="1" transform="matrix(1.00365 0 0 1 110.495 550)"/><path d="M37.8357 35.0205 40.957 32.4465C40.2149 31.7555 39.2874 31.2639 38.2485 31.0644L37.1818 21.4177 37.6409 30.9809 37.8357 35.0205Z" fill="#F15B40" fill-rule="nonzero" fill-opacity="1" transform="matrix(1.00365 0 0 1 110.495 550)"/><path d="M52.278 39.1668C50.2791 39.3337 48.4657 39.5285 47.348 39.7372 46.9213 39.8161 46.6616 40.048 46.4065 40.5396 46.3787 40.5999 46.3462 40.6602 46.3184 40.7205 46.1607 41.0358 45.9844 41.3512 45.7943 41.6573 42.5431 46.8842 35.6698 48.4842 30.4383 45.2331 29.6916 44.7693 29.0191 44.2267 28.4208 43.633 27.5628 42.9652 26.5286 42.4921 25.4341 42.5153 24.5065 42.5339 23.2264 42.6081 22.3406 42.7611 21.9928 42.8214 21.798 43.1739 22.0067 43.5635 23.3099 45.9612 25.2346 48.0668 27.7159 49.6112 35.3591 54.3697 45.414 52.0276 50.1678 44.3844 50.3487 44.0922 50.5203 43.8 50.678 43.5032 57.7229 41.1471 69.8555 40.6648 69.4057 39.0323 68.6682 36.3562 55.8074 35.1504 53.9708 33.49 52.9273 32.5485 52.3337 31.5607 51.5963 30.0534 50.3811 26.8022 48.1179 23.9082 44.9409 21.9325 37.2977 17.174 27.2475 19.5161 22.489 27.1593 22.0902 27.804 21.7377 28.4626 21.4362 29.1397 17.3363 31.0783 12.1095 32.6227 9.02529 33.9399-1.05743 38.2438 22.3823 39.4821 25.7865 39.394 29.3438 39.2966 33.0262 39.0694 36.6159 38.856 40.2891 38.6381 43.8928 38.4247 47.1996 38.2624 53.0479 37.9795 57.171 37.7429 62.9451 38.1557 67.1192 38.4525 65.4171 38.6612 61.0575 38.8746 56.7767 39.0833 55.3761 38.9163 52.278 39.1714L52.278 39.1714ZM46.7682 35.3313C40.3123 35.6977 35.1272 36.2542 31.7508 36.0687 29.047 35.9203 27.2985 35.3823 26.4868 34.5799 26.5332 32.8361 27.0295 31.0783 28.0173 29.4875 30.9763 24.7291 37.2328 23.2728 41.9912 26.2318 45.2238 28.2446 46.9352 31.7833 46.7682 35.3359Z" fill="#F15B40" fill-rule="evenodd" fill-opacity="1" transform="matrix(1.00365 0 0 1 110.495 550)"/><path d="M11.6271 30.5125C11.6271 31.4782 10.8443 32.261 9.87865 32.261 8.913 32.261 8.13018 31.4782 8.13018 30.5125 8.13018 29.5469 8.913 28.764 9.87865 28.764 10.8443 28.764 11.6271 29.5469 11.6271 30.5125Z" fill="#FFFFFF" fill-rule="nonzero" fill-opacity="1" transform="matrix(1.00365 0 0 1 110.495 550)"/><path d="M59.4342 49.8617C59.4342 50.5584 58.8694 51.1232 58.1727 51.1232 57.476 51.1232 56.9112 50.5584 56.9112 49.8617 56.9112 49.165 57.476 48.6002 58.1727 48.6002 58.8694 48.6002 59.4342 49.165 59.4342 49.8617Z" fill="#FFFFFF" fill-rule="nonzero" fill-opacity="1" transform="matrix(1.00365 0 0 1 110.495 550)"/><path d="M19.9428 23.6346 20.2999 24.2885 20.9539 24.6503 20.2999 25.0074 19.9428 25.6613 19.5811 25.0074 18.9271 24.6503 19.5811 24.2885 19.9428 23.6346Z" fill="#FFFFFF" fill-rule="nonzero" fill-opacity="1" transform="matrix(1.00365 0 0 1 110.495 550)"/><path d="M12.1558 49.8617 12.5176 50.5203 13.1715 50.8774 12.5176 51.2345 12.1558 51.8931 11.7987 51.2345 11.1402 50.8774 11.7987 50.5203 12.1558 49.8617Z" fill="#FFFFFF" fill-rule="nonzero" fill-opacity="1" transform="matrix(1.00365 0 0 1 110.495 550)"/><path d="M66.9661 41.3141 67.6618 42.5849 68.9372 43.2852 67.6618 43.9809 66.9661 45.2517 66.2705 43.9809 64.995 43.2852 66.2705 42.5849 66.9661 41.3141Z" fill="#FFFFFF" fill-rule="nonzero" fill-opacity="1" transform="matrix(1.00365 0 0 1 110.495 550)"/><path d="M41.3976 58.349 42.0933 59.6198 43.364 60.3201 42.0933 61.0158 41.3976 62.2912 40.6973 61.0158 39.4265 60.3201 40.6973 59.6198 41.3976 58.349Z" fill="#FFFFFF" fill-rule="nonzero" fill-opacity="1" transform="matrix(1.00365 0 0 1 110.495 550)"/><path d="M41.5043 6.28431 42.0469 7.95394 43.4104 9.06703 41.7408 9.6143 40.6277 10.9732 40.0804 9.30356 38.7215 8.19047 40.3912 7.64784 41.5043 6.28431Z" fill="#FFFFFF" fill-rule="nonzero" fill-opacity="1" transform="matrix(1.00365 0 0 1 110.495 550)"/><path d="M48.0112 16.8215 48.2941 17.3363 48.8089 17.6193 48.2941 17.8975 48.0112 18.417 47.7329 17.8975 47.2181 17.6193 47.7329 17.3363 48.0112 16.8215Z" fill="#FFFFFF" fill-rule="nonzero" fill-opacity="1" transform="matrix(1.00365 0 0 1 110.495 550)"/><path d="M58.7525 17.5219 59.2766 18.4865 60.2412 19.0152 59.2766 19.544 58.7525 20.504 58.2238 19.544 57.2591 19.0152 58.2238 18.4865 58.7525 17.5219Z" fill="#FFFFFF" fill-rule="nonzero" fill-opacity="1" transform="matrix(1.00365 0 0 1 110.495 550)"/></g></g></g></g></g></svg>