<svg width="501" height="83" xmlns="http://www.w3.org/2000/svg" xmlns:xlink="http://www.w3.org/1999/xlink" xml:space="preserve" overflow="hidden"><defs><clipPath id="clip0"><rect x="77" y="50" width="500" height="81"/></clipPath><clipPath id="clip1"><rect x="77" y="50" width="500" height="81"/></clipPath><clipPath id="clip2"><rect x="77" y="50" width="500" height="81"/></clipPath></defs><g transform="translate(-76 -49)"><g><g clip-path="url(#clip0)"><g clip-path="url(#clip1)"><g clip-path="url(#clip2)"><path d="M79.8482 40.2798C79.8482 62.1329 62.1329 79.8482 40.2798 79.8482 18.4268 79.8482 0.711421 62.1329 0.711421 40.2798 0.711421 18.4268 18.4268 0.711421 40.2798 0.711421 62.1329 0.711421 79.8482 18.4268 79.8482 40.2798Z" fill="#082340" fill-rule="nonzero" fill-opacity="1" transform="matrix(1 0 0 1.00502 77.7283 50)"/><path d="M40.2798 80.5597C18.0671 80.5597 0 62.4875 0 40.2798 0 18.0722 18.0671 0 40.2798 0 62.4926 0 80.5597 18.0671 80.5597 40.2798 80.5597 62.4926 62.4926 80.5597 40.2798 80.5597ZM40.2798 1.41773C18.8501 1.41773 1.41773 18.8501 1.41773 40.2798 1.41773 61.7095 18.8501 79.1419 40.2798 79.1419 61.7095 79.1419 79.1419 61.7095 79.1419 40.2798 79.1419 18.8501 61.7095 1.41773 40.2798 1.41773Z" fill="#FFFFFF" fill-rule="nonzero" fill-opacity="1" transform="matrix(1 0 0 1.00502 77.7283 50)"/><path d="M44.5637 52.1539C43.9598 52.8142 42.9003 53.3874 41.6208 53.6638 39.466 54.1244 37.1373 53.6894 36.7739 52.3587 36.4259 51.0842 37.8026 49.733 40.244 49.2724 42.409 48.863 44.8247 49.5744 45.0704 50.7311 45.1728 51.202 44.9732 51.6984 44.5586 52.1539" fill="#F15B40" fill-rule="nonzero" fill-opacity="1" transform="matrix(1 0 0 1.00502 77.7283 50)"/><path d="M47.911 68.2147C45.224 69.0285 42.5318 69.5352 39.9062 69.7245 37.1424 69.9241 34.614 69.7655 32.3774 69.2793" fill="#F15B40" fill-rule="nonzero" fill-opacity="1" transform="matrix(1 0 0 1.00502 77.7283 50)"/><path d="M44.4051 61.382C44.2515 61.4178 44.0928 61.4536 43.9393 61.4843 42.2503 61.8426 40.6023 62.0217 39.0464 62.0217 33.6979 62.0217 29.6699 59.8823 28.7793 56.576" fill="#F15B40" fill-rule="nonzero" fill-opacity="1" transform="matrix(1 0 0 1.00502 77.7283 50)"/><path d="M21.0509 53.8429C22.525 49.9941 25.9029 46.2527 30.3916 43.6578" fill="#F15B40" fill-rule="nonzero" fill-opacity="1" transform="matrix(1 0 0 1.00502 77.7283 50)"/><path d="M50.8488 47.3685C49.9224 45.4645 47.4043 44.3692 43.9444 44.3692" fill="#F15B40" fill-rule="nonzero" fill-opacity="1" transform="matrix(1 0 0 1.00502 77.7283 50)"/><path d="M57.9886 51.248C57.9886 51.4067 57.4307 53.5512 53.935 56.1768" fill="#F15B40" fill-rule="nonzero" fill-opacity="1" transform="matrix(1 0 0 1.00502 77.7283 50)"/><path d="M47.0972 51.7087C47.0972 51.7087 47.0563 51.7189 47.0563 51.6933 47.2252 47.9366 43.6117 47.3326 41.329 47.5169 39.6145 47.6551 37.6645 48.1618 36.2007 49.0574 33.227 50.8846 32.0345 53.3721 33.2168 55.404 34.7369 58.0091 38.9389 58.2138 42.3629 57.4717 48.2795 56.187 54.9382 52.2102 52.3791 46.9488 50.6543 43.4019 44.794 41.7487 36.2365 44.5637 29.0608 46.9283 24.0809 54.2063 26.4557 59.0327 28.9227 64.0434 35.0695 65.63 44.1952 64.0434 55.1736 62.1292 63.4804 54.7949 61.7761 47.0307 64.5962 56.4122 57.6508 64.5757 45.0602 67.4265 34.4503 69.8269 23.9069 67.4367 21.9261 59.9642 20.3446 53.9862 26.338 46.0326 35.5148 42.8952 45.2956 39.5582 54.8768 41.4263 56.9036 45.4799 59.7646 51.202 51.3811 58.4339 43.6271 60.0717 36.0727 61.6635 30.9802 59.2579 30.1612 56.2024 29.286 52.937 31.9833 48.8988 37.3062 46.9129 37.3062 46.9129 41.6668 45.1216 45.3775 46.8311 48.2488 48.1515 47.3736 51.0535 47.087 51.7087Z" fill="#F15B40" fill-rule="nonzero" fill-opacity="1" transform="matrix(1 0 0 1.00502 77.7283 50)"/><path d="M22.7604 57.2107C22.7604 57.2107 21.6856 66.8584 34.8341 68.317" fill="#F15B40" fill-rule="nonzero" fill-opacity="1" transform="matrix(1 0 0 1.00502 77.7283 50)"/><path d="M55.9618 47.087C55.6752 43.9495 52.4968 41.6361 48.7197 41.3649" fill="#F15B40" fill-rule="nonzero" fill-opacity="1" transform="matrix(1 0 0 1.00502 77.7283 50)"/><path d="M29.1274 30.2278C28.677 30.0896 28.1652 29.7057 27.7455 29.1581 27.0443 28.2317 26.7321 27.0187 27.2848 26.5478 27.8171 26.0974 28.7742 26.4557 29.542 27.5203 30.2227 28.4671 30.4223 29.7825 29.9258 30.1612 29.7211 30.3148 29.4396 30.3301 29.1274 30.238" fill="#F15B40" fill-rule="nonzero" fill-opacity="1" transform="matrix(1 0 0 1.00502 77.7283 50)"/><path d="M22.1872 35.4278C21.1943 34.3223 20.3498 33.1451 19.6742 31.9321 18.9627 30.6526 18.4714 29.4038 18.2053 28.2266" fill="#F15B40" fill-rule="nonzero" fill-opacity="1" transform="matrix(1 0 0 1.00502 77.7283 50)"/><path d="M24.6746 32.2136C24.6234 32.1471 24.5722 32.0806 24.521 32.014 23.9734 31.2821 23.5179 30.5349 23.1699 29.7927 21.9722 27.2285 22.095 24.823 23.4821 23.6561" fill="#F15B40" fill-rule="nonzero" fill-opacity="1" transform="matrix(1 0 0 1.00502 77.7283 50)"/><path d="M23.0573 19.3415C25.2325 19.1828 27.7762 19.9659 30.0282 21.5372" fill="#F15B40" fill-rule="nonzero" fill-opacity="1" transform="matrix(1 0 0 1.00502 77.7283 50)"/><path d="M32.8278 32.1676C33.5341 31.2975 33.4932 29.849 32.7203 28.1908" fill="#F15B40" fill-rule="nonzero" fill-opacity="1" transform="matrix(1 0 0 1.00502 77.7283 50)"/><path d="M32.5668 36.4566C32.49 36.4924 31.3384 36.7074 29.2963 35.6172" fill="#F15B40" fill-rule="nonzero" fill-opacity="1" transform="matrix(1 0 0 1.00502 77.7283 50)"/><path d="M29.9105 31.3435C29.9105 31.3435 29.8951 31.3282 29.9105 31.3231 31.7479 30.5605 31.2258 28.6975 30.6321 27.6482 30.1817 26.86 29.5061 26.036 28.7435 25.5396 27.203 24.5262 25.7443 24.5108 25.038 25.5344 24.1321 26.8447 24.9714 28.9073 26.0923 30.3762 28.0321 32.9199 31.4305 35.2231 33.3754 32.8176 34.6857 31.1951 34.1688 28.0219 30.9034 24.5518 28.1652 21.6446 23.564 20.8872 21.7828 23.1084 19.9352 25.4116 20.5494 28.7128 23.3541 32.7254 26.727 37.557 32.101 39.8909 35.4381 37.3369 31.5739 40.7865 26.1128 39.2869 21.9313 33.8975 18.4049 29.3526 17.1919 23.7687 20.3293 21.1482 22.8372 19.0549 27.9912 20.145 31.5483 23.8352 35.3357 27.7711 36.5845 32.7766 35.0951 34.655 32.9916 37.3062 27.6534 34.9109 25.1352 31.5585 22.6836 28.2982 22.6939 25.3195 23.9734 24.2447 25.34 23.0931 27.8786 23.4821 30.0231 25.5856 30.0231 25.5856 31.8554 27.2746 31.8656 29.4345 31.8758 31.103 30.2892 31.3384 29.9156 31.3435Z" fill="#F15B40" fill-rule="nonzero" fill-opacity="1" transform="matrix(1 0 0 1.00502 77.7283 50)"/><path d="M21.8289 20.9179C21.8289 20.9179 16.9667 22.5608 19.2135 29.1837" fill="#F15B40" fill-rule="nonzero" fill-opacity="1" transform="matrix(1 0 0 1.00502 77.7283 50)"/><path d="M34.1073 34.5526C35.5455 33.7132 35.9448 31.6711 35.2282 29.803" fill="#F15B40" fill-rule="nonzero" fill-opacity="1" transform="matrix(1 0 0 1.00502 77.7283 50)"/><path d="M52.3535 28.2727C52.1283 28.5951 51.6984 28.9022 51.1559 29.0916 50.2449 29.4089 49.2059 29.3475 48.9756 28.7896 48.7555 28.2573 49.2826 27.5919 50.3165 27.2593 51.2327 26.9624 52.3228 27.1415 52.4968 27.6278 52.5685 27.8274 52.5071 28.0526 52.3535 28.2727" fill="#F15B40" fill-rule="nonzero" fill-opacity="1" transform="matrix(1 0 0 1.00502 77.7283 50)"/><path d="M54.6874 35.0747C53.5665 35.5763 52.4201 35.9448 51.289 36.17 50.0964 36.4054 48.9909 36.477 47.9929 36.39" fill="#F15B40" fill-rule="nonzero" fill-opacity="1" transform="matrix(1 0 0 1.00502 77.7283 50)"/><path d="M52.7886 32.2955C52.722 32.3211 52.6555 32.3416 52.589 32.3672 51.8724 32.6128 51.1661 32.7817 50.4905 32.8687 48.1669 33.1605 46.2937 32.4542 45.7307 31.062" fill="#F15B40" fill-rule="nonzero" fill-opacity="1" transform="matrix(1 0 0 1.00502 77.7283 50)"/><path d="M42.2196 30.2943C42.6495 28.5388 43.9137 26.727 45.7204 25.3553" fill="#F15B40" fill-rule="nonzero" fill-opacity="1" transform="matrix(1 0 0 1.00502 77.7283 50)"/><path d="M54.8205 25.8466C54.3138 25.0687 53.1571 24.7309 51.6524 24.9203" fill="#F15B40" fill-rule="nonzero" fill-opacity="1" transform="matrix(1 0 0 1.00502 77.7283 50)"/><path d="M58.137 27.1467C58.1473 27.2183 58.0193 28.1805 56.6425 29.5112" fill="#F15B40" fill-rule="nonzero" fill-opacity="1" transform="matrix(1 0 0 1.00502 77.7283 50)"/><path d="M53.4283 27.94C53.4283 27.94 53.413 27.9451 53.4079 27.94 53.2748 26.297 51.6728 26.2305 50.6901 26.4352 49.9531 26.5888 49.1342 26.9163 48.5456 27.3872 47.3531 28.3443 46.9692 29.4908 47.5988 30.3097 48.4023 31.3589 50.2397 31.2156 51.6882 30.7089 54.191 29.8286 56.8677 27.7301 55.4654 25.5856 54.5185 24.1372 51.8827 23.738 48.3153 25.4321 45.3263 26.8498 43.5606 30.2892 44.8555 32.2597 46.2015 34.3018 48.9602 34.655 52.8449 33.4676 57.5126 32.0345 60.7217 28.3904 59.5548 25.1096 61.2949 29.0353 58.7205 32.966 53.4028 34.8904 48.9193 36.518 44.2054 36.0522 42.9361 32.9148 41.9228 30.4018 44.0928 26.6144 47.911 24.7514 51.9799 22.7655 56.2485 23.0521 57.354 24.7053 58.9099 27.0392 55.665 30.6424 52.3791 31.7735 49.1803 32.879 46.8362 32.1113 46.3141 30.8266 45.7562 29.4549 46.7082 27.551 48.909 26.3943 48.909 26.3943 50.7055 25.3758 52.415 25.9183 53.7354 26.338 53.5154 27.6431 53.4232 27.9451Z" fill="#F15B40" fill-rule="nonzero" fill-opacity="1" transform="matrix(1 0 0 1.00502 77.7283 50)"/><path d="M43.1511 31.666C43.1511 31.666 43.2125 35.9192 49.0063 35.8322" fill="#F15B40" fill-rule="nonzero" fill-opacity="1" transform="matrix(1 0 0 1.00502 77.7283 50)"/><path d="M57.0315 25.4474C56.7347 24.1014 55.2248 23.2671 53.5665 23.3541" fill="#F15B40" fill-rule="nonzero" fill-opacity="1" transform="matrix(1 0 0 1.00502 77.7283 50)"/><path d="M64.4477 27.3053C64.4477 32.1624 63.6391 32.9711 58.7819 32.9711 63.6391 32.9711 64.4477 33.7798 64.4477 38.6369 64.4477 33.7798 65.2564 32.9711 70.1135 32.9711 65.2564 32.9711 64.4477 32.1624 64.4477 27.3053Z" fill="#FFFFFF" fill-rule="nonzero" fill-opacity="1" transform="matrix(1 0 0 1.00502 77.7283 50)"/><path d="M12.5343 45.5822C12.5343 50.4394 11.7257 51.248 6.86856 51.248 11.7257 51.248 12.5343 52.0567 12.5343 56.9138 12.5343 52.0567 13.343 51.248 18.2001 51.248 13.343 51.248 12.5343 50.4394 12.5343 45.5822Z" fill="#FFFFFF" fill-rule="nonzero" fill-opacity="1" transform="matrix(1 0 0 1.00502 77.7283 50)"/><path d="M40.9605 12.5292C40.9605 14.945 40.5562 15.3493 38.1404 15.3493 40.5562 15.3493 40.9605 15.7537 40.9605 18.1694 40.9605 15.7537 41.3649 15.3493 43.7806 15.3493 41.3649 15.3493 40.9605 14.945 40.9605 12.5292Z" fill="#FFFFFF" fill-rule="nonzero" fill-opacity="1" transform="matrix(1 0 0 1.00502 77.7283 50)"/><path d="M55.5882 13.9162C55.5882 16.332 55.1839 16.7363 52.7681 16.7363 55.1839 16.7363 55.5882 17.1407 55.5882 19.5564 55.5882 17.1407 55.9925 16.7363 58.4083 16.7363 55.9925 16.7363 55.5882 16.332 55.5882 13.9162Z" fill="#FFFFFF" fill-rule="nonzero" fill-opacity="1" transform="matrix(1 0 0 1.00502 77.7283 50)"/><path d="M13.6603 34.0562C13.6603 36.4719 13.256 36.8763 10.8402 36.8763 13.256 36.8763 13.6603 37.2806 13.6603 39.6964 13.6603 37.2806 14.0647 36.8763 16.4804 36.8763 14.0647 36.8763 13.6603 36.4719 13.6603 34.0562Z" fill="#FFFFFF" fill-rule="nonzero" fill-opacity="1" transform="matrix(1 0 0 1.00502 77.7283 50)"/><path d="M24.3214 12.0276C24.3214 14.1107 23.9734 14.4588 21.8903 14.4588 23.9734 14.4588 24.3214 14.8068 24.3214 16.8899 24.3214 14.8068 24.6695 14.4588 26.7526 14.4588 24.6695 14.4588 24.3214 14.1107 24.3214 12.0276Z" fill="#FFFFFF" fill-rule="nonzero" fill-opacity="1" transform="matrix(1 0 0 1.00502 77.7283 50)"/><path d="M67.4111 53.6177C67.4111 55.2197 67.145 55.491 65.5379 55.491 67.1399 55.491 67.4111 55.7571 67.4111 57.3642 67.4111 55.7622 67.6773 55.491 69.2844 55.491 67.6824 55.491 67.4111 55.2248 67.4111 53.6177Z" fill="#FFFFFF" fill-rule="nonzero" fill-opacity="1" transform="matrix(1 0 0 1.00502 77.7283 50)"/><path d="M42.2196 72.4781C42.2196 74.0801 41.9535 74.3513 40.3464 74.3513 41.9483 74.3513 42.2196 74.6175 42.2196 76.2246 42.2196 74.6226 42.4858 74.3513 44.0928 74.3513 42.4909 74.3513 42.2196 74.0852 42.2196 72.4781Z" fill="#FFFFFF" fill-rule="nonzero" fill-opacity="1" transform="matrix(1 0 0 1.00502 77.7283 50)"/><path d="M66.0907 20.3805C66.0907 21.5116 65.9013 21.701 64.7702 21.701 65.9013 21.701 66.0907 21.8903 66.0907 23.0214 66.0907 21.8903 66.28 21.701 67.4111 21.701 66.28 21.701 66.0907 21.5116 66.0907 20.3805Z" fill="#FFFFFF" fill-rule="nonzero" fill-opacity="1" transform="matrix(1 0 0 1.00502 77.7283 50)"/><path d="M91.231 13.1536C91.231 6.38233 96.559 1.53544 103.724 1.53544 107.701 1.53544 111.023 2.94805 113.193 5.51225L109.774 8.59337C108.228 6.86344 106.289 5.96264 103.985 5.96264 99.6759 5.96264 96.6204 8.91581 96.6204 13.1485 96.6204 17.3812 99.6811 20.3344 103.985 20.3344 106.289 20.3344 108.228 19.4336 109.774 17.673L113.193 20.7541C111.023 23.3541 107.701 24.7667 103.689 24.7667 96.5539 24.7667 91.2259 19.9198 91.2259 13.1485" fill="#F15B40" fill-rule="nonzero" fill-opacity="1" transform="matrix(1 0 0 1.00502 77.7283 50)"/><path d="M144.966 7.88707 149.506 7.88707 149.506 11.7359 145.1 11.7359 145.048 24.7616 139.92 24.7616 139.971 11.7359 137.192 11.7359 137.192 7.88707 139.971 7.88707 139.971 7.11423C139.971 3.23467 142.351 0.696068 146.758 0.696068 148.206 0.696068 149.716 0.987803 150.673 1.62757L149.322 5.25122C148.764 4.86736 148.042 4.64216 147.249 4.64216 145.734 4.64216 144.966 5.44571 144.966 7.14494L144.966 7.88195Z" fill="#082340" fill-rule="nonzero" fill-opacity="1" transform="matrix(1 0 0 1.00502 77.7283 50)"/><path d="M150.525 15.8765C150.525 10.6765 154.635 6.98627 160.259 6.98627 165.884 6.98627 169.958 10.6765 169.958 15.8765 169.958 21.0765 165.828 24.7667 160.208 24.7667 154.589 24.7667 150.53 21.0765 150.53 15.8765M164.763 15.8765C164.763 12.8926 162.824 11.0961 160.259 11.0961 157.695 11.0961 155.72 12.8926 155.72 15.8765 155.72 18.8604 157.69 20.6568 160.259 20.6568 162.829 20.6568 164.763 18.8604 164.763 15.8765" fill="#082340" fill-rule="nonzero" fill-opacity="1" transform="matrix(1 0 0 1.00502 77.7283 50)"/><path d="M184.53 6.98115 184.53 11.6745C184.095 11.6438 183.762 11.608 183.363 11.608 180.492 11.608 178.593 13.1383 178.593 16.4958L178.541 24.7718 173.331 24.7718 173.331 7.24218 178.357 7.24218 178.357 9.55558C179.627 7.86148 181.761 6.98115 184.535 6.98115" fill="#082340" fill-rule="nonzero" fill-opacity="1" transform="matrix(1 0 0 1.00502 77.7283 50)"/><path d="M205.504 7.2473 205.504 21.6242C205.504 28.0423 201.901 30.9955 195.523 30.9955 192.171 30.9955 188.916 30.192 186.843 28.6207L188.88 25.0277C190.395 26.2152 192.857 26.988 195.129 26.988 198.748 26.988 200.376 25.386 200.376 22.2691L200.376 21.532C199.024 22.9754 197.085 23.6817 194.786 23.6817 189.888 23.6817 185.942 20.3753 185.942 15.3391 185.942 10.3028 189.888 6.99651 194.786 6.99651 197.253 6.99651 199.29 7.80006 200.642 9.46857L200.642 7.25242 205.509 7.25242ZM200.437 15.334C200.437 12.8005 198.497 11.0961 195.8 11.0961 193.103 11.0961 191.127 12.7954 191.127 15.334 191.127 17.8726 193.103 19.5718 195.8 19.5718 198.497 19.5718 200.437 17.8726 200.437 15.334" fill="#082340" fill-rule="nonzero" fill-opacity="1" transform="matrix(1 0 0 1.00502 77.7283 50)"/><path d="M227.497 17.2891 214.113 17.2891C214.604 19.4387 216.482 20.7541 219.174 20.7541 221.048 20.7541 222.399 20.2064 223.612 19.0856L226.34 21.9722C224.697 23.7994 222.179 24.7616 218.99 24.7616 212.874 24.7616 208.948 21.0049 208.948 15.8714 208.948 10.7379 212.992 6.98115 218.386 6.98115 223.781 6.98115 227.594 10.3847 227.594 15.9328 227.594 16.3167 227.527 16.8643 227.497 17.2789M214.051 14.3718 222.762 14.3718C222.399 12.1914 220.725 10.7788 218.422 10.7788 216.119 10.7788 214.409 12.1607 214.051 14.3718" fill="#082340" fill-rule="nonzero" fill-opacity="1" transform="matrix(1 0 0 1.00502 77.7283 50)"/><path d="M125.507 20.6568C122.948 20.6466 120.988 18.8553 120.988 15.8765 120.988 12.8977 122.953 11.1013 125.507 11.0961L125.507 6.98627C119.893 6.99139 115.793 10.6816 115.793 15.8765 115.793 21.0714 119.852 24.7667 125.471 24.7667 125.482 24.7667 125.497 24.7667 125.507 24.7667L125.507 20.662Z" fill="#F15B40" fill-rule="nonzero" fill-opacity="1" transform="matrix(1 0 0 1.00502 77.7283 50)"/><path d="M125.507 20.6568C128.066 20.6466 130.027 18.8553 130.027 15.8765 130.027 12.8977 128.061 11.1013 125.507 11.0961L125.507 6.98627C131.122 6.99139 135.221 10.6816 135.221 15.8765 135.221 21.0714 131.163 24.7667 125.543 24.7667 125.533 24.7667 125.517 24.7667 125.507 24.7667L125.507 20.662Z" fill="#082340" fill-rule="nonzero" fill-opacity="1" transform="matrix(1 0 0 1.00502 77.7283 50)"/><path d="M91.1696 42.9566 107.983 42.9566C120.087 42.9566 128.389 50.25 128.389 61.4587 128.389 72.6675 120.087 79.9608 107.983 79.9608L91.1696 79.9608 91.1696 42.9566ZM107.558 72.9285C114.908 72.9285 119.719 68.5422 119.719 61.4587 119.719 54.3752 114.908 49.989 107.558 49.989L99.7322 49.989 99.7322 72.9336 107.558 72.9336Z" fill="#082340" fill-rule="nonzero" fill-opacity="1" transform="matrix(1 0 0 1.00502 77.7283 50)"/><path d="M154.404 42.9566 145.944 42.9566 129.453 79.9608 138.226 79.9608 141.507 72.0328 141.563 72.0328 150.12 51.3606 158.683 72.0328 158.688 72.0328 160.219 75.7435 161.969 79.9608 170.951 79.9608 154.404 42.9566Z" fill="#082340" fill-rule="nonzero" fill-opacity="1" transform="matrix(1 0 0 1.00502 77.7283 50)"/><path d="M224.154 42.9566 215.694 42.9566 199.203 79.9608 207.976 79.9608 211.257 72.0328 211.313 72.0328 219.871 51.3606 228.433 72.0328 228.438 72.0328 229.969 75.7435 231.719 79.9608 240.701 79.9608 224.154 42.9566Z" fill="#082340" fill-rule="nonzero" fill-opacity="1" transform="matrix(1 0 0 1.00502 77.7283 50)"/><path d="M180.63 49.9327 168.786 49.9327 168.786 42.9566 201.036 42.9566 201.036 49.9327 189.192 49.9327 189.192 79.9608 180.63 79.9608 180.63 49.9327Z" fill="#082340" fill-rule="nonzero" fill-opacity="1" transform="matrix(1 0 0 1.00502 77.7283 50)"/><path d="M256.926 61.4587C256.926 50.3063 265.489 42.322 277.015 42.322 283.412 42.322 288.751 44.6456 292.241 48.8783L286.744 53.9555C284.262 51.0996 281.14 49.6204 277.439 49.6204 270.515 49.6204 265.596 54.4827 265.596 61.4638 265.596 68.445 270.515 73.3072 277.439 73.3072 281.14 73.3072 284.262 71.8281 286.744 68.921L292.241 73.9982C288.751 78.2821 283.412 80.6057 276.964 80.6057 265.494 80.6057 256.926 72.6214 256.926 61.469Z" fill="#082340" fill-rule="nonzero" fill-opacity="1" transform="matrix(1 0 0 1.00502 77.7283 50)"/><path d="M294.887 61.4587C294.887 50.4649 303.45 42.322 315.135 42.322 326.819 42.322 335.382 50.4086 335.382 61.4587 335.382 72.5088 326.763 80.5955 315.135 80.5955 303.506 80.5955 294.887 72.4525 294.887 61.4587ZM326.712 61.4587C326.712 54.4264 321.742 49.6153 315.135 49.6153 308.527 49.6153 303.557 54.4264 303.557 61.4587 303.557 68.4911 308.527 73.3021 315.135 73.3021 321.742 73.3021 326.712 68.4911 326.712 61.4587Z" fill="#082340" fill-rule="nonzero" fill-opacity="1" transform="matrix(1 0 0 1.00502 77.7283 50)"/><path d="M338.929 76.3116 341.836 69.8627C344.953 72.1352 349.605 73.7218 354.048 73.7218 359.125 73.7218 361.183 72.0277 361.183 69.7552 361.183 62.8304 339.666 67.5852 339.666 53.8429 339.666 47.5527 344.743 42.3168 355.261 42.3168 359.913 42.3168 364.673 43.4275 368.107 45.5925L365.466 52.0925C362.032 50.1374 358.49 49.1854 355.21 49.1854 350.133 49.1854 348.177 51.0894 348.177 53.413 348.177 60.2304 369.694 55.5268 369.694 69.1155 369.694 75.3033 364.566 80.5852 353.992 80.5852 348.126 80.5852 342.204 78.84 338.924 76.3014Z" fill="#082340" fill-rule="nonzero" fill-opacity="1" transform="matrix(1 0 0 1.00502 77.7283 50)"/><path d="M409.242 79.9608 409.191 57.7583 398.299 76.0506 394.44 76.0506 383.605 58.2343 383.605 79.9608 375.57 79.9608 375.57 42.9566 382.653 42.9566 396.503 65.9525 410.143 42.9566 417.175 42.9566 417.283 79.9608 409.247 79.9608Z" fill="#082340" fill-rule="nonzero" fill-opacity="1" transform="matrix(1 0 0 1.00502 77.7283 50)"/><path d="M423.737 61.4587C423.737 50.4649 432.299 42.322 443.984 42.322 455.669 42.322 464.231 50.4086 464.231 61.4587 464.231 72.5088 455.612 80.5955 443.984 80.5955 432.356 80.5955 423.737 72.4525 423.737 61.4587ZM455.561 61.4587C455.561 54.4264 450.592 49.6153 443.984 49.6153 437.376 49.6153 432.407 54.4264 432.407 61.4587 432.407 68.4911 437.376 73.3021 443.984 73.3021 450.592 73.3021 455.561 68.4911 455.561 61.4587Z" fill="#082340" fill-rule="nonzero" fill-opacity="1" transform="matrix(1 0 0 1.00502 77.7283 50)"/><path d="M467.778 76.3116 470.685 69.8627C473.802 72.1352 478.455 73.7218 482.897 73.7218 487.974 73.7218 490.032 72.0277 490.032 69.7552 490.032 62.8304 468.515 67.5852 468.515 53.8429 468.515 47.5527 473.592 42.3168 484.11 42.3168 488.763 42.3168 493.523 43.4275 496.957 45.5925L494.316 52.0925C490.882 50.1374 487.34 49.1854 484.059 49.1854 478.982 49.1854 477.027 51.0894 477.027 53.413 477.027 60.2304 498.543 55.5268 498.543 69.1155 498.543 75.3033 493.415 80.5852 482.841 80.5852 476.976 80.5852 471.054 78.84 467.773 76.3014Z" fill="#082340" fill-rule="nonzero" fill-opacity="1" transform="matrix(1 0 0 1.00502 77.7283 50)"/></g></g></g></g></g></svg>