<svg width="294" height="81" xmlns="http://www.w3.org/2000/svg" xmlns:xlink="http://www.w3.org/1999/xlink" xml:space="preserve" overflow="hidden"><defs><clipPath id="clip0"><path d="M643.75 589.13C643.75 608.918 627.634 624.959 607.753 624.959 587.873 624.959 571.757 608.918 571.757 589.13 571.757 569.343 587.873 553.302 607.753 553.302 627.634 553.302 643.75 569.343 643.75 589.13Z" fill-rule="nonzero" clip-rule="nonzero"/></clipPath></defs><g transform="translate(-570 -552)"><g><g><g><g><path d="M72.5165 36.5813C72.5165 56.4278 56.4278 72.5165 36.5813 72.5165 16.7348 72.5165 0.646098 56.4278 0.646098 36.5813 0.646098 16.7348 16.7348 0.646098 36.5813 0.646098 56.4278 0.646098 72.5165 16.7348 72.5165 36.5813Z" fill="#082340" fill-rule="nonzero" fill-opacity="1" transform="matrix(1.0047 0 0 1 571 553.084)"/><path d="M36.5813 73.1626C16.4081 73.1626 0 56.7498 0 36.5813 0 16.4128 16.4081 0 36.5813 0 56.7545 0 73.1626 16.4081 73.1626 36.5813 73.1626 56.7545 56.7545 73.1626 36.5813 73.1626ZM36.5813 1.28755C17.1193 1.28755 1.28755 17.1193 1.28755 36.5813 1.28755 56.0433 17.1193 71.8751 36.5813 71.8751 56.0433 71.8751 71.8751 56.0433 71.8751 36.5813 71.8751 17.1193 56.0433 1.28755 36.5813 1.28755Z" fill="#FFFFFF" fill-rule="nonzero" fill-opacity="1" transform="matrix(1.0047 0 0 1 571 553.084)"/><path d="M30.2412 8.12505C30.5061 8.12505 30.7199 8.33887 30.7199 8.60381 30.7199 9.88207 31.2452 11.0488 32.0865 11.8947 32.9325 12.7407 34.0945 13.2613 35.3774 13.2613 35.6424 13.2613 35.8562 13.4751 35.8562 13.7401 35.8562 14.005 35.6424 14.2188 35.3774 14.2188 34.0992 14.2188 32.9325 14.7441 32.0865 15.5854 31.2405 16.4314 30.7199 17.5934 30.7199 18.8763 30.7199 19.1413 30.5061 19.3551 30.2412 19.3551 29.9762 19.3551 29.7624 19.1413 29.7624 18.8763 29.7624 17.5981 29.2372 16.4314 28.3958 15.5854 27.5499 14.7394 26.3878 14.2188 25.1049 14.2188 24.84 14.2188 24.6261 14.005 24.6261 13.7401 24.6261 13.4751 24.84 13.2613 25.1049 13.2613 26.3832 13.2613 27.5499 12.7361 28.3958 11.8947 29.2418 11.0488 29.7624 9.88672 29.7624 8.60381 29.7624 8.33887 29.9762 8.12505 30.2412 8.12505L30.2412 8.12505ZM60.2313 43.9534C60.4498 43.9534 60.6311 44.13 60.6311 44.3531 60.6311 45.4222 61.068 46.3983 61.7745 47.1048 62.4811 47.8114 63.4525 48.2483 64.5263 48.2483 64.7447 48.2483 64.926 48.4249 64.926 48.648 64.926 48.8711 64.7494 49.0478 64.5263 49.0478 63.4572 49.0478 62.4811 49.4847 61.7745 50.1912 61.068 50.8978 60.6311 51.8692 60.6311 52.943 60.6311 53.1614 60.4545 53.3427 60.2313 53.3427 60.0082 53.3427 59.8316 53.1661 59.8316 52.943 59.8316 51.8739 59.3947 50.8978 58.6881 50.1912 57.9816 49.4847 57.0101 49.0478 55.9364 49.0478 55.7179 49.0478 55.5367 48.8711 55.5367 48.648 55.5367 48.4249 55.7133 48.2483 55.9364 48.2483 57.0055 48.2483 57.9816 47.8114 58.6881 47.1048 59.3947 46.3983 59.8316 45.4268 59.8316 44.3531 59.8316 44.1346 60.0082 43.9534 60.2313 43.9534ZM57.4378 20.3452C57.554 20.3452 57.6516 20.4381 57.6516 20.559 57.6516 21.1261 57.884 21.642 58.2605 22.0185 58.637 22.395 59.153 22.6274 59.72 22.6274 59.8362 22.6274 59.9339 22.7204 59.9339 22.8412 59.9339 22.9621 59.8409 23.0551 59.72 23.0551 59.153 23.0551 58.637 23.2875 58.2605 23.664 57.884 24.0405 57.6516 24.5564 57.6516 25.1235 57.6516 25.2397 57.5586 25.3373 57.4378 25.3373 57.3169 25.3373 57.224 25.2444 57.224 25.1235 57.224 24.5564 56.9915 24.0405 56.615 23.664 56.2385 23.2875 55.7226 23.0551 55.1555 23.0551 55.0393 23.0551 54.9417 22.9621 54.9417 22.8412 54.9417 22.7204 55.0347 22.6274 55.1555 22.6274 55.7226 22.6274 56.2385 22.395 56.615 22.0185 56.9915 21.642 57.224 21.1261 57.224 20.559 57.224 20.4428 57.3169 20.3452 57.4378 20.3452ZM63.9731 29.8833C64.1637 29.8833 64.3171 30.0367 64.3171 30.2272 64.3171 31.1522 64.6936 31.9889 65.3025 32.5978 65.9114 33.2067 66.7528 33.5832 67.6731 33.5832 67.8637 33.5832 68.0171 33.7366 68.0171 33.9272 68.0171 34.1178 67.8637 34.2712 67.6731 34.2712 66.7481 34.2712 65.9114 34.6477 65.3025 35.2566 64.6936 35.8655 64.3171 36.7068 64.3171 37.6272 64.3171 37.8177 64.1637 37.9711 63.9731 37.9711 63.7826 37.9711 63.6292 37.8177 63.6292 37.6272 63.6292 36.7022 63.2527 35.8655 62.6438 35.2566 62.0348 34.6477 61.1935 34.2712 60.2732 34.2712 60.0826 34.2712 59.9292 34.1178 59.9292 33.9272 59.9292 33.7366 60.0826 33.5832 60.2732 33.5832 61.1982 33.5832 62.0348 33.2067 62.6438 32.5978 63.2527 31.9889 63.6292 31.1476 63.6292 30.2272 63.6292 30.0367 63.7826 29.8833 63.9731 29.8833ZM8.99891 33.56C9.11512 33.56 9.21273 33.653 9.21273 33.7738 9.21273 34.3409 9.44514 34.8568 9.82164 35.2333 10.1981 35.6098 10.7141 35.8423 11.2812 35.8423 11.3974 35.8423 11.495 35.9352 11.495 36.0561 11.495 36.1769 11.402 36.2699 11.2812 36.2699 10.7141 36.2699 10.1981 36.5023 9.82164 36.8788 9.44514 37.2553 9.21273 37.7713 9.21273 38.3383 9.21273 38.4545 9.11976 38.5522 8.99891 38.5522 8.87806 38.5522 8.78509 38.4592 8.78509 38.3383 8.78509 37.7713 8.55268 37.2553 8.17618 36.8788 7.79968 36.5023 7.28373 36.2699 6.71664 36.2699 6.60044 36.2699 6.50283 36.1769 6.50283 36.0561 6.50283 35.9352 6.59579 35.8423 6.71664 35.8423 7.28373 35.8423 7.79968 35.6098 8.17618 35.2333 8.55268 34.8568 8.78509 34.3409 8.78509 33.7738 8.78509 33.6576 8.87806 33.56 8.99891 33.56ZM41.9453 7.13498C42.0615 7.13498 42.1591 7.22795 42.1591 7.3488 42.1591 7.91588 42.3916 8.43183 42.7681 8.80833 43.1446 9.18484 43.6605 9.41725 44.2276 9.41725 44.3438 9.41725 44.4414 9.51021 44.4414 9.63106 44.4414 9.75192 44.3485 9.84488 44.2276 9.84488 43.6605 9.84488 43.1446 10.0773 42.7681 10.4538 42.3916 10.8303 42.1591 11.3462 42.1591 11.9133 42.1591 12.0295 42.0662 12.1271 41.9453 12.1271 41.8245 12.1271 41.7315 12.0342 41.7315 11.9133 41.7315 11.3462 41.4991 10.8303 41.1226 10.4538 40.7461 10.0773 40.2301 9.84488 39.6631 9.84488 39.5469 9.84488 39.4493 9.75192 39.4493 9.63106 39.4493 9.51021 39.5422 9.41725 39.6631 9.41725 40.2301 9.41725 40.7461 9.18484 41.1226 8.80833 41.4991 8.43183 41.7315 7.91588 41.7315 7.3488 41.7315 7.23259 41.8245 7.13498 41.9453 7.13498ZM52.8639 12.6059C52.348 12.09 51.6368 11.7692 50.8513 11.7692 50.0657 11.7692 49.3499 12.09 48.8386 12.6059 48.3273 13.1219 48.0019 13.833 48.0019 14.6186 48.0019 15.4041 48.3227 16.1199 48.8386 16.6312 49.3546 17.1472 50.0657 17.4679 50.8513 17.4679 51.6368 17.4679 52.3526 17.1472 52.8639 16.6312 53.3799 16.1153 53.7006 15.4041 53.7006 14.6186 53.7006 13.833 53.3799 13.1172 52.8639 12.6059ZM54.6163 32.6582C54.2538 32.2957 53.7471 32.0679 53.1893 32.0679 52.6315 32.0679 52.1295 32.2957 51.7623 32.6582 51.3998 33.0208 51.172 33.5274 51.172 34.0852 51.172 34.643 51.3998 35.145 51.7623 35.5122 52.1249 35.8748 52.6315 36.1025 53.1893 36.1025 53.7471 36.1025 54.2491 35.8748 54.6163 35.5122 54.9789 35.1497 55.2066 34.643 55.2066 34.0852 55.2066 33.5274 54.9789 33.0254 54.6163 32.6582ZM11.2486 20.545C11.3555 20.9029 11.151 21.2748 10.7978 21.3817 10.4445 21.4886 10.068 21.2841 9.96109 20.9308 9.64966 19.8943 9.7891 18.8298 10.2679 17.942 10.742 17.0589 11.5554 16.357 12.5966 16.0456 12.657 16.027 12.7175 16.013 12.7779 15.9944 12.922 15.511 13.173 15.0602 13.503 14.679 13.9306 14.1863 14.4931 13.8098 15.1578 13.6099 16.0967 13.3264 17.0635 13.4565 17.863 13.8842 18.6625 14.3164 19.2993 15.0509 19.5782 15.9898 19.6154 16.1153 19.6479 16.2454 19.6712 16.3756 20.0105 16.4221 20.3359 16.5383 20.6194 16.7196 21.1028 17.0217 21.4793 17.4912 21.656 18.0768 21.8465 18.7183 21.7629 19.3737 21.47 19.9175 21.1772 20.4614 20.6752 20.8936 20.0337 21.0889 19.6758 21.1958 19.304 20.9913 19.1971 20.638 19.0901 20.2847 19.2947 19.9082 19.6479 19.8013 19.9315 19.7177 20.1546 19.5224 20.2847 19.2807 20.4149 19.039 20.4521 18.7462 20.3684 18.4626 20.2894 18.2023 20.122 17.9932 19.9082 17.863 19.6991 17.7329 19.4527 17.6724 19.2017 17.705 19.1506 17.7143 19.0994 17.7236 19.0483 17.7189 18.6765 17.7189 18.379 17.4121 18.3836 17.0403 18.3836 16.9334 18.379 16.8218 18.3604 16.7056 18.3464 16.5987 18.3232 16.4872 18.286 16.3756 18.1094 15.7899 17.7189 15.3344 17.2216 15.0695 16.7242 14.8045 16.1246 14.7255 15.5436 14.8975 15.1252 15.023 14.7766 15.2554 14.5117 15.5622 14.2467 15.8689 14.0654 16.2454 14.0004 16.6545 13.9678 16.9566 13.7308 17.2076 13.4147 17.2448 13.345 17.2541 13.2753 17.2634 13.1962 17.282 13.1265 17.2959 13.0521 17.3145 12.9778 17.3378 12.2945 17.5423 11.7599 18.0025 11.4485 18.5835 11.1371 19.1645 11.0441 19.8617 11.2486 20.545ZM43.3677 29.9019C43.6698 29.9111 43.9069 30.1575 43.8976 30.4503 43.8883 30.7432 43.6419 30.9802 43.3398 30.9756 43.0144 30.9663 42.6937 30.8966 42.3962 30.7664 42.1127 30.6409 41.8524 30.4596 41.6246 30.2226 41.6246 30.2226 41.5874 30.1854 41.5735 30.1622 41.1412 29.6787 40.932 29.0698 40.9553 28.4702 40.9739 27.8566 41.2295 27.2477 41.7176 26.7922 41.7176 26.7922 41.7548 26.755 41.778 26.7411 42.0104 26.5366 42.2661 26.3878 42.531 26.2856 42.7076 26.2205 42.8889 26.174 43.0702 26.1508 43.1213 26.0485 43.1771 25.9462 43.2375 25.8486 43.363 25.6488 43.5211 25.4628 43.707 25.2908 44.288 24.7516 45.0317 24.5006 45.7662 24.5239 46.5006 24.5471 47.2257 24.8493 47.7695 25.4256 47.974 25.6441 47.9647 25.9834 47.7416 26.1833 47.5232 26.3878 47.1792 26.3739 46.9747 26.1601 46.64 25.8021 46.1845 25.6162 45.729 25.6023 45.2688 25.5883 44.804 25.7464 44.4461 26.0764 44.3345 26.1786 44.2369 26.2995 44.1579 26.425 44.0789 26.5505 44.0138 26.6899 43.9673 26.834 43.8976 27.0572 43.6838 27.2152 43.4374 27.2105 43.2654 27.2105 43.0888 27.2338 42.9168 27.2989 42.7681 27.3546 42.6286 27.4383 42.5031 27.5406L42.4845 27.5592C42.4845 27.5592 42.4706 27.5685 42.4706 27.5685 42.1963 27.8241 42.0522 28.1634 42.0383 28.5074 42.029 28.8421 42.1406 29.1767 42.373 29.4417L42.3916 29.4603C42.3916 29.4603 42.4055 29.4742 42.4055 29.4742 42.531 29.609 42.6797 29.7113 42.8424 29.781 43.0098 29.8554 43.1864 29.8972 43.3677 29.9019Z" fill="#FFFFFF" fill-rule="evenodd" fill-opacity="1" transform="matrix(1.0047 0 0 1 571 553.084)"/><g clip-path="url(#clip0)"><path d="M50.7676 64.9632 49.0013 60.566C48.9316 60.3894 48.9176 60.1988 48.9595 60.0129L51.6508 48.1553C51.8135 47.4302 51.1162 46.8445 50.4097 47.0862 49.5405 47.3837 48.6945 47.1885 48.834 45.1805 49.1036 41.2109 47.1746 42.94 47.1746 42.94 47.1746 42.94 44.4832 47.4023 44.7761 50.7816 45.0689 54.1608 43.6931 62.0395 42.1127 58.9949 41.3225 57.475 39.6352 57.3588 38.1385 57.6237 37.6132 57.7167 37.1205 57.368 37.0415 56.8428 36.6789 54.4211 36.5488 52.2178 37.1159 50.6468 38.7985 46.0125 37.9246 48.7828 38.3244 41.7083 38.7241 34.6384 34.7778 33.6855 32.9883 34.6663 31.2963 35.5912 31.5938 39.175 30.6549 45.9056 29.6276 53.259 30.3806 51.423 30.6549 55.6854 30.9291 59.9478 31.868 61.3469 31.1894 64.2148 31.0128 64.9632 30.692 65.8324 30.3109 66.7156 30.1529 66.6644 29.9995 66.6087 29.8414 66.5668 27.5592 65.9951 29.9019 65.5349 25.8393 58.5719 25.7696 58.4464 25.7185 58.3023 25.7138 58.1629 25.4489 53.9702 25.2211 49.8705 25.1328 44.5716 25.0027 37.0089 24.2078 38.9565 28.2332 32.0726 32.2538 25.1839 28.2936 23.6175 26.6342 22.6181 24.6308 21.4142 19.1366 24.9794 18.1884 28.1309 16.8172 32.6861 17.3378 27.4708 14.6651 33.4577 11.9923 39.4493 17.7979 51.0558 16.5104 52.6641 15.2275 54.2724 16.1757 55.4669 18.049 61.8907 19.4109 66.5575 18.537 68.2123 17.956 68.7701 17.7189 68.9932 17.6306 69.3279 17.7096 69.6439L20.0291 79.1263C20.1546 79.6376 20.6798 79.9444 21.1818 79.8002L26.4854 78.2989C26.9131 78.178 27.1966 77.7736 27.1594 77.3274 27.0757 76.4164 26.927 74.7616 26.7597 72.7629L28.4237 73.5531C28.605 73.6414 28.7584 73.7855 28.8514 73.9621L30.6828 77.4901C30.9291 77.9689 31.538 78.1408 31.9935 77.8527 32.7512 77.3785 33.904 76.5698 35.0428 75.4588L35.7725 76.6116 43.5769 76.5326C43.7024 76.5326 43.8279 76.5047 43.9441 76.4535L50.5352 73.5438C50.8838 73.3904 51.1023 73.0418 51.0883 72.6606L50.8327 65.2793C50.8327 65.1724 50.8048 65.0655 50.7676 64.9632Z" fill="#F15B40" fill-rule="evenodd" fill-opacity="1" transform="matrix(1.0047 0 0 1 571 553.084)"/></g><path d="M86.0056 12.6663C86.0056 6.59114 90.7839 2.24043 97.217 2.24043 100.787 2.24043 103.766 3.50939 105.714 5.81025L102.646 8.57592C101.261 7.02343 99.5179 6.21464 97.4541 6.21464 93.5868 6.21464 90.8444 8.86411 90.8444 12.6663 90.8444 16.4686 93.5868 19.118 97.4541 19.118 99.5179 19.118 101.261 18.3092 102.646 16.7289L105.714 19.4945C103.766 21.8279 100.787 23.0922 97.1845 23.0922 90.7839 23.0922 86.0009 18.7415 86.0009 12.6663" fill="#F15B40" fill-rule="nonzero" fill-opacity="1" transform="matrix(1.0047 0 0 1 571 553.084)"/><path d="M134.226 7.94377 138.298 7.94377 138.298 11.3974 134.342 11.3974 134.296 23.0876 129.694 23.0876 129.74 11.3974 127.244 11.3974 127.244 7.94377 129.74 7.94377 129.74 7.25119C129.74 3.76969 131.879 1.49207 135.83 1.49207 137.126 1.49207 138.484 1.75237 139.339 2.32875L138.13 5.58249C137.628 5.23852 136.982 5.034 136.271 5.034 134.914 5.034 134.221 5.75447 134.221 7.27908L134.221 7.93912Z" fill="#FFFFFF" fill-rule="nonzero" fill-opacity="1" transform="matrix(1.0047 0 0 1 571 553.084)"/><path d="M139.214 15.1113C139.214 10.4491 142.904 7.13498 147.947 7.13498 152.991 7.13498 156.654 10.4491 156.654 15.1113 156.654 19.7734 152.949 23.0876 147.901 23.0876 142.853 23.0876 139.214 19.7781 139.214 15.1113M151.991 15.1113C151.991 12.4339 150.253 10.821 147.952 10.821 145.651 10.821 143.88 12.4339 143.88 15.1113 143.88 17.7887 145.651 19.4016 147.952 19.4016 150.253 19.4016 151.991 17.7887 151.991 15.1113" fill="#FFFFFF" fill-rule="nonzero" fill-opacity="1" transform="matrix(1.0047 0 0 1 571 553.084)"/><path d="M169.729 7.12569 169.729 11.337C169.338 11.3091 169.041 11.2765 168.678 11.2765 166.103 11.2765 164.397 12.6477 164.397 15.6598L164.351 23.0876 159.68 23.0876 159.68 7.3581 164.193 7.3581 164.193 9.43584C165.332 7.91588 167.247 7.12569 169.734 7.12569" fill="#FFFFFF" fill-rule="nonzero" fill-opacity="1" transform="matrix(1.0047 0 0 1 571 553.084)"/><path d="M188.549 7.36739 188.549 20.2661C188.549 26.0253 185.314 28.6747 179.592 28.6747 176.58 28.6747 173.661 27.9543 171.802 26.5459L173.633 23.32C174.991 24.3844 177.203 25.077 179.239 25.077 182.484 25.077 183.948 23.6361 183.948 20.8425L183.948 20.1778C182.739 21.4747 180.996 22.1068 178.932 22.1068 174.535 22.1068 170.993 19.1413 170.993 14.6186 170.993 10.0959 174.535 7.13033 178.932 7.13033 181.145 7.13033 182.976 7.8508 184.185 9.34752L184.185 7.36274 188.549 7.36274ZM184.004 14.6232C184.004 12.3503 182.265 10.821 179.843 10.821 177.422 10.821 175.651 12.3456 175.651 14.6232 175.651 16.9008 177.422 18.4255 179.843 18.4255 182.265 18.4255 184.004 16.9008 184.004 14.6232" fill="#FFFFFF" fill-rule="nonzero" fill-opacity="1" transform="matrix(1.0047 0 0 1 571 553.084)"/><path d="M208.29 16.3802 196.279 16.3802C196.721 18.3092 198.404 19.4899 200.825 19.4899 202.508 19.4899 203.717 19.0018 204.809 17.9932L207.258 20.5869C205.785 22.2277 203.526 23.0922 200.663 23.0922 195.173 23.0922 191.65 19.7223 191.65 15.1159 191.65 10.5096 195.28 7.13963 200.119 7.13963 204.958 7.13963 208.379 10.1935 208.379 15.1717 208.379 15.5157 208.318 16.0084 208.29 16.3802M196.219 13.7587 204.037 13.7587C203.712 11.8018 202.206 10.5328 200.142 10.5328 198.078 10.5328 196.544 11.7692 196.219 13.7587" fill="#FFFFFF" fill-rule="nonzero" fill-opacity="1" transform="matrix(1.0047 0 0 1 571 553.084)"/><path d="M116.763 19.4016C114.467 19.3923 112.705 17.784 112.705 15.1113 112.705 12.4386 114.467 10.8303 116.763 10.821L116.763 7.13498C111.724 7.13963 108.043 10.4491 108.043 15.1113 108.043 19.7734 111.682 23.0876 116.73 23.0876 116.739 23.0876 116.753 23.0876 116.763 23.0876L116.763 19.4016Z" fill="#F15B40" fill-rule="nonzero" fill-opacity="1" transform="matrix(1.0047 0 0 1 571 553.084)"/><path d="M116.763 19.4016C119.059 19.3923 120.821 17.784 120.821 15.1113 120.821 12.4386 119.059 10.8303 116.763 10.821L116.763 7.13498C121.801 7.13963 125.483 10.4491 125.483 15.1113 125.483 19.7734 121.843 23.0876 116.795 23.0876 116.786 23.0876 116.772 23.0876 116.763 23.0876L116.763 19.4016Z" fill="#FFFFFF" fill-rule="nonzero" fill-opacity="1" transform="matrix(1.0047 0 0 1 571 553.084)"/><path d="M116.409 39.4074 116.409 72.6141 110.102 72.6141 93.545 52.4503 93.545 72.6141 85.9545 72.6141 85.9545 39.4074 92.3132 39.4074 108.824 59.5713 108.824 39.4074 116.414 39.4074Z" fill="#FFFFFF" fill-rule="nonzero" fill-opacity="1" transform="matrix(1.0047 0 0 1 571 553.084)"/><path d="M150.002 66.446 150.002 72.6141 124.288 72.6141 124.288 39.4074 149.384 39.4074 149.384 45.5756 131.925 45.5756 131.925 52.7849 147.343 52.7849 147.343 58.7625 131.925 58.7625 131.925 66.446 150.002 66.446Z" fill="#FFFFFF" fill-rule="nonzero" fill-opacity="1" transform="matrix(1.0047 0 0 1 571 553.084)"/><path d="M186.583 63.5548C186.583 69.2953 182.028 72.6141 173.299 72.6141L156.124 72.6141 156.124 39.4074 172.351 39.4074C180.652 39.4074 184.924 42.8703 184.924 48.0438 184.924 51.3626 183.213 53.9284 180.513 55.3507 184.213 56.536 186.583 59.3807 186.583 63.5595ZM163.765 45.1944 163.765 53.022 171.402 53.022C175.149 53.022 177.189 51.6926 177.189 49.085 177.189 46.4773 175.149 45.1944 171.402 45.1944L163.765 45.1944ZM178.853 62.746C178.853 59.9478 176.72 58.6184 172.732 58.6184L163.765 58.6184 163.765 66.8271 172.732 66.8271C176.715 66.8271 178.853 65.5954 178.853 62.746Z" fill="#FFFFFF" fill-rule="nonzero" fill-opacity="1" transform="matrix(1.0047 0 0 1 571 553.084)"/><path d="M192.138 58.0049 192.138 39.4074 199.821 39.4074 199.821 57.7213C199.821 64.0336 202.573 66.6412 207.221 66.6412 211.869 66.6412 214.621 64.0336 214.621 57.7213L214.621 39.4074 222.212 39.4074 222.212 58.0049C222.212 67.7754 216.615 73.1859 207.175 73.1859 197.734 73.1859 192.138 67.7754 192.138 58.0049Z" fill="#FFFFFF" fill-rule="nonzero" fill-opacity="1" transform="matrix(1.0047 0 0 1 571 553.084)"/><path d="M229.812 39.4074 237.495 39.4074 237.495 66.353 254.149 66.353 254.149 72.6141 229.812 72.6141 229.812 39.4074Z" fill="#FFFFFF" fill-rule="nonzero" fill-opacity="1" transform="matrix(1.0047 0 0 1 571 553.084)"/><path d="M265.203 65.4977 265.254 65.4977 272.938 46.9514 280.621 65.4977 282.113 69.1094 283.568 72.6141 291.628 72.6141 276.782 39.4074 269.191 39.4074 254.387 72.6141 262.261 72.6141 265.203 65.4977Z" fill="#FFFFFF" fill-rule="nonzero" fill-opacity="1" transform="matrix(1.0047 0 0 1 571 553.084)"/></g></g></g></g></g></svg>