<svg width="439" height="83" xmlns="http://www.w3.org/2000/svg" xmlns:xlink="http://www.w3.org/1999/xlink" xml:space="preserve" overflow="hidden"><g transform="translate(-649 -61)"><g><g><g><g><path d="M79.7223 40.2163C79.7223 62.0349 62.0348 79.7223 40.2163 79.7223 18.3977 79.7223 0.710299 62.0348 0.710299 40.2163 0.710299 18.3977 18.3977 0.710299 40.2163 0.710299 62.0349 0.710299 79.7223 18.3977 79.7223 40.2163Z" fill="#082340" fill-rule="nonzero" fill-opacity="1" transform="matrix(1 0 0 1.00705 650.497 62)"/><path d="M40.2163 80.4326C18.0386 80.4326 0 62.3889 0 40.2163 0 18.0437 18.0386 0 40.2163 0 62.394 0 80.4326 18.0386 80.4326 40.2163 80.4326 62.394 62.394 80.4326 40.2163 80.4326ZM40.2163 1.41549C18.8204 1.41549 1.41549 18.8204 1.41549 40.2163 1.41549 61.6122 18.8204 79.0171 40.2163 79.0171 61.6122 79.0171 79.0171 61.6122 79.0171 40.2163 79.0171 18.8204 61.6122 1.41549 40.2163 1.41549Z" fill="#FFFFFF" fill-rule="nonzero" fill-opacity="1" transform="matrix(1 0 0 1.00705 650.497 62)"/><path d="M91.4193 13.4395C91.4193 6.79129 96.6469 2.03381 103.683 2.03381 107.588 2.03381 110.848 3.41864 112.979 5.93791L109.621 8.96307C108.104 7.26142 106.198 6.37737 103.939 6.37737 99.7078 6.37737 96.7082 9.27479 96.7082 13.4344 96.7082 17.594 99.7129 20.4914 103.939 20.4914 106.198 20.4914 108.104 19.6074 109.621 17.875L112.979 20.9002C110.848 23.4501 107.588 24.8401 103.648 24.8401 96.6417 24.8401 91.4141 20.0826 91.4141 13.4344" fill="#F15B40" fill-rule="nonzero" fill-opacity="1" transform="matrix(1 0 0 1.00705 650.497 62)"/><path d="M144.176 8.27321 148.632 8.27321 148.632 12.0547 144.309 12.0547 144.257 24.8452 139.219 24.8452 139.27 12.0547 136.541 12.0547 136.541 8.27321 139.27 8.27321 139.27 7.51692C139.27 3.7048 141.61 1.2162 145.934 1.2162 147.354 1.2162 148.836 1.50236 149.776 2.1309L148.453 5.69262C147.906 5.31448 147.196 5.09475 146.419 5.09475 144.932 5.09475 144.176 5.8817 144.176 7.55269L144.176 8.27832Z" fill="#082340" fill-rule="nonzero" fill-opacity="1" transform="matrix(1 0 0 1.00705 650.497 62)"/><path d="M149.628 16.1172C149.628 11.0122 153.665 7.38917 159.184 7.38917 164.703 7.38917 168.704 11.0122 168.704 16.1172 168.704 21.2221 164.652 24.8401 159.128 24.8401 153.604 24.8401 149.623 21.217 149.623 16.1172M163.609 16.1172C163.609 13.1891 161.703 11.421 159.189 11.421 156.675 11.421 154.733 13.184 154.733 16.1172 154.733 19.0504 156.67 20.8133 159.189 20.8133 161.708 20.8133 163.609 19.0504 163.609 16.1172" fill="#082340" fill-rule="nonzero" fill-opacity="1" transform="matrix(1 0 0 1.00705 650.497 62)"/><path d="M183.012 7.38406 183.012 11.9882C182.588 11.9576 182.256 11.9218 181.862 11.9218 179.047 11.9218 177.177 13.4242 177.177 16.7202L177.125 24.8452 172.01 24.8452 172.01 7.63956 176.947 7.63956 176.947 9.90844C178.193 8.24766 180.289 7.38406 183.007 7.38406" fill="#082340" fill-rule="nonzero" fill-opacity="1" transform="matrix(1 0 0 1.00705 650.497 62)"/><path d="M203.601 7.64467 203.601 21.7587C203.601 28.0594 200.065 30.9568 193.8 30.9568 190.509 30.9568 187.31 30.1699 185.276 28.6266L187.279 25.0956C188.766 26.2607 191.183 27.017 193.411 27.017 196.963 27.017 198.562 25.4431 198.562 22.3872L198.562 21.6616C197.239 23.0822 195.333 23.7721 193.074 23.7721 188.265 23.7721 184.392 20.5272 184.392 15.5806 184.392 10.6341 188.265 7.38917 193.074 7.38917 195.496 7.38917 197.494 8.17612 198.818 9.81645L198.818 7.64467 203.596 7.64467ZM198.629 15.5806C198.629 13.092 196.723 11.421 194.076 11.421 191.429 11.421 189.492 13.092 189.492 15.5806 189.492 18.0692 191.429 19.7402 194.076 19.7402 196.723 19.7402 198.629 18.0692 198.629 15.5806" fill="#082340" fill-rule="nonzero" fill-opacity="1" transform="matrix(1 0 0 1.00705 650.497 62)"/><path d="M225.196 17.5071 212.058 17.5071C212.543 19.6176 214.383 20.9104 217.03 20.9104 218.87 20.9104 220.193 20.3739 221.389 19.2701L224.067 22.1062C222.452 23.8998 219.979 24.8452 216.851 24.8452 210.847 24.8452 206.994 21.1608 206.994 16.1172 206.994 11.0735 210.964 7.38917 216.258 7.38917 221.552 7.38917 225.298 10.726 225.298 16.1785 225.298 16.5566 225.232 17.0932 225.201 17.502M211.991 14.6404 220.546 14.6404C220.193 12.4992 218.543 11.1144 216.284 11.1144 214.025 11.1144 212.344 12.4686 211.991 14.6404" fill="#082340" fill-rule="nonzero" fill-opacity="1" transform="matrix(1 0 0 1.00705 650.497 62)"/><path d="M125.069 20.8133C122.56 20.8031 120.628 19.0453 120.628 16.1223 120.628 13.1993 122.555 11.4363 125.069 11.4312L125.069 7.39939C119.555 7.4045 115.529 11.0275 115.529 16.1274 115.529 21.2273 119.514 24.8503 125.033 24.8503 125.044 24.8503 125.059 24.8503 125.069 24.8503L125.069 20.8184Z" fill="#F15B40" fill-rule="nonzero" fill-opacity="1" transform="matrix(1 0 0 1.00705 650.497 62)"/><path d="M125.069 20.8133C127.578 20.8031 129.51 19.0453 129.51 16.1223 129.51 13.1993 127.583 11.4363 125.069 11.4312L125.069 7.39939C130.583 7.4045 134.61 11.0275 134.61 16.1274 134.61 21.2273 130.624 24.8503 125.105 24.8503 125.095 24.8503 125.079 24.8503 125.069 24.8503L125.069 20.8184Z" fill="#082340" fill-rule="nonzero" fill-opacity="1" transform="matrix(1 0 0 1.00705 650.497 62)"/><path d="M91.4193 75.4452 94.2758 69.1138C97.3367 71.3469 101.905 72.9003 106.264 72.9003 111.246 72.9003 113.27 71.2396 113.27 69.0065 113.27 62.2101 92.15 66.8807 92.15 53.385 92.15 47.2069 97.1323 42.0713 107.46 42.0713 112.028 42.0713 116.699 43.1597 120.071 45.2906L117.476 51.6731C114.103 49.7517 110.623 48.8166 107.409 48.8166 102.426 48.8166 100.505 50.6868 100.505 52.971 100.505 59.6652 121.625 55.0457 121.625 68.383 121.625 74.4538 116.591 79.6456 106.213 79.6456 100.454 79.6456 94.6386 77.9338 91.4244 75.44Z" fill="#082340" fill-rule="nonzero" fill-opacity="1" transform="matrix(1 0 0 1.00705 650.497 62)"/><path d="M127.077 63.043 127.077 42.6998 135.483 42.6998 135.483 62.7313C135.483 69.635 138.493 72.4864 143.578 72.4864 148.662 72.4864 151.672 69.6299 151.672 62.7313L151.672 42.6998 159.976 42.6998 159.976 63.043C159.976 73.7333 153.854 79.6507 143.522 79.6507 133.189 79.6507 127.072 73.7333 127.072 63.043Z" fill="#082340" fill-rule="nonzero" fill-opacity="1" transform="matrix(1 0 0 1.00705 650.497 62)"/><path d="M199.794 55.8838C199.794 63.9781 193.723 69.0116 184.019 69.0116L176.701 69.0116 176.701 79.0273 168.295 79.0273 168.295 42.6998 184.019 42.6998C193.723 42.6998 199.794 47.7332 199.794 55.8838ZM191.28 55.8838C191.28 51.8877 188.684 49.5524 183.549 49.5524L176.696 49.5524 176.696 62.1641 183.549 62.1641C188.684 62.1641 191.28 59.8288 191.28 55.8838Z" fill="#082340" fill-rule="nonzero" fill-opacity="1" transform="matrix(1 0 0 1.00705 650.497 62)"/><path d="M233.893 72.282 233.893 79.0273 205.762 79.0273 205.762 42.6998 233.219 42.6998 233.219 49.4451 214.122 49.4451 214.122 57.335 230.991 57.335 230.991 63.8759 214.122 63.8759 214.122 72.282 233.893 72.282Z" fill="#082340" fill-rule="nonzero" fill-opacity="1" transform="matrix(1 0 0 1.00705 650.497 62)"/><path d="M263.736 79.0273 256.73 68.9094 248.999 68.9094 248.999 79.0273 240.593 79.0273 240.593 42.6998 256.316 42.6998C266.02 42.6998 272.091 47.7332 272.091 55.8838 272.091 61.3311 269.342 65.3272 264.62 67.3508L272.766 79.0273 263.736 79.0273ZM255.851 49.5473 248.999 49.5473 248.999 62.2101 255.851 62.2101C260.987 62.2101 263.583 59.8237 263.583 55.8787 263.583 51.9337 260.987 49.5473 255.851 49.5473Z" fill="#082340" fill-rule="nonzero" fill-opacity="1" transform="matrix(1 0 0 1.00705 650.497 62)"/><path d="M312.057 42.6998 312.057 79.0273 305.153 79.0273 287.043 56.9722 287.043 79.0273 278.739 79.0273 278.739 42.6998 285.694 42.6998 303.753 64.7549 303.753 42.6998 312.057 42.6998Z" fill="#082340" fill-rule="nonzero" fill-opacity="1" transform="matrix(1 0 0 1.00705 650.497 62)"/><path d="M318.399 60.861C318.399 50.0685 326.805 42.0764 338.277 42.0764 349.749 42.0764 358.155 50.0174 358.155 60.861 358.155 71.7046 349.698 79.6456 338.277 79.6456 326.856 79.6456 318.399 71.6535 318.399 60.861ZM349.642 60.861C349.642 53.9573 344.761 49.2356 338.277 49.2356 331.792 49.2356 326.912 53.9573 326.912 60.861 326.912 67.7647 331.792 72.4864 338.277 72.4864 344.761 72.4864 349.642 67.7647 349.642 60.861Z" fill="#082340" fill-rule="nonzero" fill-opacity="1" transform="matrix(1 0 0 1.00705 650.497 62)"/><path d="M398.218 42.6998 382.494 79.0273 374.19 79.0273 358.518 42.6998 367.598 42.6998 378.651 68.6488 389.863 42.6998 398.218 42.6998Z" fill="#082340" fill-rule="nonzero" fill-opacity="1" transform="matrix(1 0 0 1.00705 650.497 62)"/><path d="M407.099 71.2447 407.155 71.2447 415.562 50.9526 423.968 71.2447 424.407 72.3076 427.192 79.0273 436.007 79.0273 419.762 42.6998 411.458 42.6998 395.269 79.0273 403.885 79.0273 407.099 71.2447Z" fill="#082340" fill-rule="nonzero" fill-opacity="1" transform="matrix(1 0 0 1.00705 650.497 62)"/><path d="M27.5075 24.3342 27.5075 24.3342C27.5075 24.3342 27.5075 24.3342 27.5075 24.3342L31.7693 28.2485 35.4537 31.8511 35.1011 27.0732 34.8916 21.0688C32.0453 21.2988 29.4749 22.4997 27.5075 24.3342Z" fill="#F15B40" fill-rule="nonzero" fill-opacity="1" transform="matrix(1 0 0 1.00705 650.497 62)"/><path d="M35.3157 39.5724 27.7682 31.6825 24.9883 28.3149 27.2367 32.2855C25.7497 34.1098 24.789 36.3786 24.5897 38.8519L35.3157 39.5724Z" fill="#F15B40" fill-rule="nonzero" fill-opacity="1" transform="matrix(1 0 0 1.00705 650.497 62)"/><path d="M22.7654 45.3366C23.2202 47.6617 24.0991 48.8114 25.6526 50.4773L31.4423 43.4561 22.3515 43.0217 4.364 42.1581 22.6938 45.03 22.7654 45.3366Z" fill="#F15B40" fill-rule="nonzero" fill-opacity="1" transform="matrix(1 0 0 1.00705 650.497 62)"/><path d="M30.2925 54.4121 26.7768 57.3146 30.7729 54.8362C32.7045 56.4612 35.1267 57.5088 37.7839 57.7285L38.3562 47.4879 30.2925 54.4172Z" fill="#F15B40" fill-rule="nonzero" fill-opacity="1" transform="matrix(1 0 0 1.00705 650.497 62)"/><path d="M41.131 44.0591 41.3814 57.3708 40.5842 79.0273 43.7525 57.3708C46.4301 56.8905 48.0449 55.5363 50.0839 53.896L55.4648 56.8445 50.9628 53.1295 41.131 44.0591Z" fill="#F15B40" fill-rule="nonzero" fill-opacity="1" transform="matrix(1 0 0 1.00705 650.497 62)"/><path d="M54.223 50.4773C55.9502 48.6275 57.335 47.0996 57.795 44.5036L77.1621 41.5143 57.7796 42.4443 46.6856 42.6845 54.223 50.4773Z" fill="#F15B40" fill-rule="nonzero" fill-opacity="1" transform="matrix(1 0 0 1.00705 650.497 62)"/><path d="M45.2548 37.7788 55.8378 37.6357C55.6334 35.1062 54.6829 32.7811 53.2163 30.8802L55.4137 26.3782 52.4498 29.9757 45.2548 37.7788Z" fill="#F15B40" fill-rule="nonzero" fill-opacity="1" transform="matrix(1 0 0 1.00705 650.497 62)"/><path d="M39.5929 36.4451 48.1727 27.9266C46.2309 26.1176 44.3606 25.0956 41.642 24.5692L38.4533 2.49372 39.4907 24.0889 39.5878 36.4451Z" fill="#F15B40" fill-rule="nonzero" fill-opacity="1" transform="matrix(1 0 0 1.00705 650.497 62)"/><path d="M54.085 19.3672 55.4852 16.8019 58.0556 15.3967 55.4852 13.9914 54.085 11.4261 52.6798 13.9914 50.1094 15.3967 52.6798 16.8019 54.085 19.3672Z" fill="#FFFFFF" fill-rule="nonzero" fill-opacity="1" transform="matrix(1 0 0 1.00705 650.497 62)"/><path d="M64.4687 33.7878 65.8024 31.3452 68.2502 30.0064 65.8024 28.6675 64.4687 26.2249 63.1299 28.6675 60.6873 30.0064 63.1299 31.3452 64.4687 33.7878Z" fill="#FFFFFF" fill-rule="nonzero" fill-opacity="1" transform="matrix(1 0 0 1.00705 650.497 62)"/><path d="M27.2674 63.37 25.9541 60.9632 24.6357 63.37 22.2288 64.6884 24.6357 66.0068 25.9541 68.4137 27.2674 66.0068 29.6793 64.6884 27.2674 63.37Z" fill="#FFFFFF" fill-rule="nonzero" fill-opacity="1" transform="matrix(1 0 0 1.00705 650.497 62)"/><path d="M16.5771 53.0886 15.2587 50.6766 13.9403 53.0886 11.5334 54.407 13.9403 55.7203 15.2587 58.1322 16.5771 55.7203 18.9839 54.407 16.5771 53.0886Z" fill="#FFFFFF" fill-rule="nonzero" fill-opacity="1" transform="matrix(1 0 0 1.00705 650.497 62)"/><path d="M15.0441 25.9132 13.7257 23.5012 12.4124 25.9132 10.0004 27.2316 12.4124 28.5449 13.7257 30.9568 15.0441 28.5449 17.456 27.2316 15.0441 25.9132Z" fill="#FFFFFF" fill-rule="nonzero" fill-opacity="1" transform="matrix(1 0 0 1.00705 650.497 62)"/><path d="M30.1546 15.4426 28.8362 13.0307 27.5178 15.4426 25.1109 16.7559 27.5178 18.0743 28.8362 20.4863 30.1546 18.0743 32.5614 16.7559 30.1546 15.4426Z" fill="#FFFFFF" fill-rule="nonzero" fill-opacity="1" transform="matrix(1 0 0 1.00705 650.497 62)"/><path d="M53.7376 60.9632 52.736 62.7926 50.9066 63.7942 52.736 64.7958 53.7376 66.6252 54.7391 64.7958 56.5685 63.7942 54.7391 62.7926 53.7376 60.9632Z" fill="#FFFFFF" fill-rule="nonzero" fill-opacity="1" transform="matrix(1 0 0 1.00705 650.497 62)"/><path d="M68.2502 50.0839 67.2486 51.9133 65.4141 52.9148 67.2486 53.9164 68.2502 55.7458 69.2466 53.9164 71.0812 52.9148 69.2466 51.9133 68.2502 50.0839Z" fill="#FFFFFF" fill-rule="nonzero" fill-opacity="1" transform="matrix(1 0 0 1.00705 650.497 62)"/></g></g></g></g></g></svg>