<svg width="322" height="85" xmlns="http://www.w3.org/2000/svg" xmlns:xlink="http://www.w3.org/1999/xlink" xml:space="preserve" overflow="hidden"><defs><clipPath id="clip0"><rect x="927" y="194" width="321" height="84"/></clipPath><clipPath id="clip1"><rect x="927" y="194" width="321" height="84"/></clipPath><clipPath id="clip2"><rect x="927" y="194" width="321" height="84"/></clipPath><clipPath id="clip3"><path d="M1008.24 236.087C1008.24 258.386 990.193 276.463 967.934 276.463 945.674 276.463 927.63 258.386 927.63 236.087 927.63 213.788 945.674 195.711 967.934 195.711 990.193 195.711 1008.24 213.788 1008.24 236.087Z" fill-rule="nonzero" clip-rule="nonzero"/></clipPath><linearGradient x1="31.6422" y1="55.0076" x2="10.727" y2="81.4339" gradientUnits="userSpaceOnUse" spreadMethod="pad" id="fill4"><stop offset="0" stop-color="#FFFFFF" stop-opacity="0.9"/><stop offset="1" stop-color="#231F20" stop-opacity="0"/></linearGradient><linearGradient x1="48.578" y1="28.963" x2="69.4983" y2="2.5361" gradientUnits="userSpaceOnUse" spreadMethod="pad" id="fill5"><stop offset="0" stop-color="#FFFFFF" stop-opacity="0.9"/><stop offset="1" stop-color="#231F20" stop-opacity="0"/></linearGradient></defs><g transform="translate(-926 -193)"><g><g clip-path="url(#clip0)"><g clip-path="url(#clip1)"><g clip-path="url(#clip2)"><path d="M80.0391 42.0127C80.0391 63.918 62.2814 81.6757 40.3761 81.6757 18.4708 81.6757 0.713122 63.918 0.713122 42.0127 0.713122 20.1074 18.4708 2.34971 40.3761 2.34971 62.2814 2.34971 80.0391 20.1074 80.0391 42.0127Z" fill="#082340" fill-rule="nonzero" fill-opacity="1" transform="matrix(1 0 0 1.00178 927.558 194)"/><path d="M40.3761 82.3837C18.1102 82.3837 0 64.2734 0 42.0076 0 19.7417 18.1102 1.63659 40.3761 1.63659 62.642 1.63659 80.7522 19.7468 80.7522 42.0127 80.7522 64.2786 62.642 82.3888 40.3761 82.3888ZM40.3761 3.05771C18.8952 3.05771 1.42112 20.5318 1.42112 42.0076 1.42112 63.4833 18.8952 80.9626 40.3761 80.9626 61.857 80.9626 79.3311 63.4885 79.3311 42.0076 79.3311 20.5267 61.857 3.05771 40.3761 3.05771Z" fill="#FFFFFF" fill-rule="nonzero" fill-opacity="1" transform="matrix(1 0 0 1.00178 927.558 194)"/><path d="M99.4422 12.5694C99.4422 5.73577 104.819 0.841383 112.053 0.841383 116.07 0.841383 119.42 2.26763 121.611 4.85847L118.158 7.96748C116.598 6.21802 114.638 5.30995 112.314 5.30995 107.964 5.30995 104.88 8.2907 104.88 12.5643 104.88 16.8379 107.969 19.8187 112.314 19.8187 114.638 19.8187 116.593 18.9106 118.158 17.1303L121.611 20.2394C119.42 22.861 116.07 24.2872 112.017 24.2872 104.814 24.2872 99.4371 19.398 99.4371 12.5592" fill="#F15B40" fill-rule="nonzero" fill-opacity="1" transform="matrix(1 0 0 1.00178 927.558 194)"/><path d="M153.691 7.25436 158.272 7.25436 158.272 11.1432 153.824 11.1432 153.773 24.2924 148.596 24.2924 148.648 11.1432 145.841 11.1432 145.841 7.25436 148.648 7.25436 148.648 6.47454C148.648 2.55493 151.054-0.00513038 155.497-0.00513038 156.959-0.00513038 158.483 0.287301 159.447 0.93373L158.088 4.59682C157.523 4.20691 156.795 3.98118 156 3.98118 154.471 3.98118 153.696 4.79178 153.696 6.51045L153.696 7.25436Z" fill="#082340" fill-rule="nonzero" fill-opacity="1" transform="matrix(1 0 0 1.00178 927.558 194)"/><path d="M159.303 15.3193C159.303 10.0709 163.454 6.34628 169.128 6.34628 174.802 6.34628 178.922 10.0709 178.922 15.3193 178.922 20.5677 174.751 24.2924 169.077 24.2924 163.403 24.2924 159.303 20.5677 159.303 15.3193M173.674 15.3193C173.674 12.3078 171.714 10.4916 169.128 10.4916 166.542 10.4916 164.547 12.3078 164.547 15.3193 164.547 18.3309 166.537 20.147 169.128 20.147 171.719 20.147 173.674 18.3309 173.674 15.3193" fill="#082340" fill-rule="nonzero" fill-opacity="1" transform="matrix(1 0 0 1.00178 927.558 194)"/><path d="M193.626 6.34115 193.626 11.0765C193.19 11.0457 192.851 11.0098 192.446 11.0098 189.547 11.0098 187.628 12.554 187.628 15.9401L187.577 24.2924 182.318 24.2924 182.318 6.6028 187.392 6.6028 187.392 8.93713C188.675 7.22871 190.83 6.34115 193.626 6.34115" fill="#082340" fill-rule="nonzero" fill-opacity="1" transform="matrix(1 0 0 1.00178 927.558 194)"/><path d="M214.799 6.60793 214.799 21.1218C214.799 27.6015 211.161 30.5822 204.723 30.5822 201.337 30.5822 198.053 29.7716 195.96 28.1863L198.017 24.5591C199.546 25.7596 202.034 26.5343 204.323 26.5343 207.975 26.5343 209.617 24.9131 209.617 21.7733L209.617 21.0294C208.258 22.4865 206.298 23.1996 203.974 23.1996 199.028 23.1996 195.047 19.8648 195.047 14.7755 195.047 9.68616 199.028 6.35141 203.974 6.35141 206.462 6.35141 208.519 7.16201 209.884 8.84478L209.884 6.60793 214.794 6.60793ZM209.689 14.7704C209.689 12.2103 207.729 10.4968 205.01 10.4968 202.291 10.4968 200.295 12.2154 200.295 14.7704 200.295 17.3253 202.286 19.044 205.01 19.044 207.734 19.044 209.689 17.3253 209.689 14.7704" fill="#082340" fill-rule="nonzero" fill-opacity="1" transform="matrix(1 0 0 1.00178 927.558 194)"/><path d="M237.008 16.7456 223.5 16.7456C223.998 18.9157 225.891 20.2445 228.61 20.2445 230.503 20.2445 231.862 19.6955 233.094 18.5617L235.849 21.4758C234.192 23.3227 231.647 24.2924 228.43 24.2924 222.253 24.2924 218.293 20.501 218.293 15.3193 218.293 10.1376 222.376 6.34628 227.82 6.34628 233.263 6.34628 237.116 9.77851 237.116 15.386 237.116 15.7759 237.049 16.3249 237.019 16.7456M223.433 13.8007 232.227 13.8007C231.862 11.5998 230.169 10.1735 227.845 10.1735 225.521 10.1735 223.798 11.5639 223.433 13.8007" fill="#082340" fill-rule="nonzero" fill-opacity="1" transform="matrix(1 0 0 1.00178 927.558 194)"/><path d="M134.047 20.147C131.466 20.1367 129.481 18.3257 129.481 15.3193 129.481 12.3129 131.461 10.5019 134.047 10.4916L134.047 6.34628C128.378 6.35141 124.237 10.0761 124.237 15.3193 124.237 20.5626 128.337 24.2924 134.011 24.2924 134.021 24.2924 134.036 24.2924 134.047 24.2924L134.047 20.147Z" fill="#F15B40" fill-rule="nonzero" fill-opacity="1" transform="matrix(1 0 0 1.00178 927.558 194)"/><path d="M134.047 20.147C136.627 20.1367 138.613 18.3257 138.613 15.3193 138.613 12.3129 136.632 10.5019 134.047 10.4916L134.047 6.34628C139.716 6.35141 143.856 10.0761 143.856 15.3193 143.856 20.5626 139.757 24.2924 134.083 24.2924 134.072 24.2924 134.057 24.2924 134.047 24.2924L134.047 20.147Z" fill="#082340" fill-rule="nonzero" fill-opacity="1" transform="matrix(1 0 0 1.00178 927.558 194)"/><path d="M131.794 56.2033C131.794 64.5299 125.551 69.7116 115.567 69.7116L108.041 69.7116 108.041 80.0134 99.3909 80.0134 99.3909 42.6489 115.567 42.6489C125.551 42.6489 131.794 47.8254 131.794 56.2085ZM123.037 56.2033C123.037 52.0939 120.369 49.6929 115.085 49.6929L108.041 49.6929 108.041 62.6625 115.085 62.6625C120.369 62.6625 123.037 60.2615 123.037 56.2033Z" fill="#082340" fill-rule="nonzero" fill-opacity="1" transform="matrix(1 0 0 1.00178 927.558 194)"/><path d="M137.448 63.5706 137.448 42.6437 146.098 42.6437 146.098 63.2474C146.098 70.3478 149.192 73.2824 154.424 73.2824 159.658 73.2824 162.751 70.3478 162.751 63.2474L162.751 42.6437 171.293 42.6437 171.293 63.5706C171.293 74.565 164.993 80.6547 154.373 80.6547 143.753 80.6547 137.448 74.5701 137.448 63.5706Z" fill="#082340" fill-rule="nonzero" fill-opacity="1" transform="matrix(1 0 0 1.00178 927.558 194)"/><path d="M179.825 42.6437 188.475 42.6437 188.475 72.9643 207.211 72.9643 207.211 80.0083 179.825 80.0083 179.825 42.6437Z" fill="#082340" fill-rule="nonzero" fill-opacity="1" transform="matrix(1 0 0 1.00178 927.558 194)"/><path d="M208.914 76.3298 211.849 69.8142C214.999 72.1126 219.698 73.7133 224.177 73.7133 229.302 73.7133 231.385 72.0049 231.385 69.7116 231.385 62.7189 209.658 67.521 209.658 53.6433 209.658 47.2919 214.783 42.0076 225.403 42.0076 230.103 42.0076 234.905 43.1311 238.373 45.3167L235.705 51.8836C232.237 49.9084 228.661 48.949 225.352 48.949 220.227 48.949 218.252 50.8729 218.252 53.2226 218.252 60.1076 239.979 55.3568 239.979 69.0755 239.979 75.3191 234.802 80.6599 224.126 80.6599 218.2 80.6599 212.223 78.895 208.909 76.335Z" fill="#082340" fill-rule="nonzero" fill-opacity="1" transform="matrix(1 0 0 1.00178 927.558 194)"/><path d="M253.164 72.0049 253.22 72.0049 261.865 51.1294 270.51 72.0049 272.069 75.7809 273.824 80.0134 282.894 80.0134 266.185 42.6437 257.648 42.6437 240.989 80.0134 249.855 80.0134 253.164 72.0049Z" fill="#082340" fill-rule="nonzero" fill-opacity="1" transform="matrix(1 0 0 1.00178 927.558 194)"/><path d="M310.593 80.0134 303.385 69.6039 295.433 69.6039 295.433 80.0134 286.783 80.0134 286.783 42.6489 302.959 42.6489C312.943 42.6489 319.187 47.8254 319.187 56.2085 319.187 61.8108 316.36 65.9254 311.501 68.0083L319.884 80.0186 310.593 80.0186ZM302.482 49.6929 295.438 49.6929 295.438 62.7189 302.482 62.7189C307.767 62.7189 310.434 60.2666 310.434 56.2085 310.434 52.1503 307.767 49.698 302.482 49.698Z" fill="#082340" fill-rule="nonzero" fill-opacity="1" transform="matrix(1 0 0 1.00178 927.558 194)"/><path d="M72.8566 54.7771 72.2614 53.0328 71.6612 54.7771 69.9168 55.3773 71.6612 55.9725 72.2614 57.7168 72.8566 55.9725 74.6009 55.3773 72.8566 54.7771Z" fill="#FFFFFF" fill-rule="nonzero" fill-opacity="1" transform="matrix(1 0 0 1.00178 927.558 194)"/><path d="M72.2614 32.8601C72.718 32.8601 73.0926 32.4907 73.0926 32.029 73.0926 31.5672 72.7232 31.1979 72.2614 31.1979 71.7997 31.1979 71.4303 31.5672 71.4303 32.029 71.4303 32.4907 71.7997 32.8601 72.2614 32.8601Z" fill="#FFFFFF" fill-rule="nonzero" fill-opacity="1" transform="matrix(1 0 0 1.00178 927.558 194)"/><path d="M20.6344 14.4625C20.6344 14.8012 20.9063 15.0731 21.2449 15.0731 21.5835 15.0731 21.8554 14.8012 21.8554 14.4625 21.8554 14.1239 21.5835 13.852 21.2449 13.852 20.9063 13.852 20.6344 14.1239 20.6344 14.4625Z" fill="#FFFFFF" fill-rule="nonzero" fill-opacity="1" transform="matrix(1 0 0 1.00178 927.558 194)"/><path d="M66.0178 42.0127C66.0178 56.1777 54.536 67.6544 40.3761 67.6544 26.2163 67.6544 14.7345 56.1726 14.7345 42.0127 14.7345 27.8528 26.2163 16.371 40.3761 16.371 54.536 16.371 66.0178 27.8528 66.0178 42.0127ZM40.3761 23.6562C30.2385 23.6562 22.0247 31.8751 22.0247 42.0076 22.0247 52.1401 30.2436 60.3589 40.3761 60.3589 50.5086 60.3589 58.7275 52.1401 58.7275 42.0076 58.7275 31.8751 50.5086 23.6562 40.3761 23.6562Z" fill="#0D4060" fill-rule="nonzero" fill-opacity="1" transform="matrix(1 0 0 1.00178 927.558 194)"/><g clip-path="url(#clip3)"><path d="M5.45873 68.7882 29.4535 48.4462 37.775 56.2546 24.0974 83.851 5.45873 68.7882Z" fill="url(#fill4)" fill-rule="nonzero" transform="matrix(1 0 0 1.00178 927.558 194)"/><path d="M74.7651 15.1757 50.7703 35.5176 42.4488 27.7143 56.1264 0.117999 74.7651 15.1757Z" fill="url(#fill5)" fill-rule="nonzero" transform="matrix(1 0 0 1.00178 927.558 194)"/></g><path d="M55.639 42.0127C55.639 50.4422 48.8056 57.2756 40.3761 57.2756 31.9466 57.2756 25.1132 50.4422 25.1132 42.0127 25.1132 33.5832 31.9466 26.7498 40.3761 26.7498 48.8056 26.7498 55.639 33.5832 55.639 42.0127Z" fill="#FFFFFF" fill-rule="nonzero" fill-opacity="1" transform="matrix(1 0 0 1.00178 927.558 194)"/><path d="M34.2863 73.9134C34.943 73.9134 35.4766 73.2105 35.5279 72.3179L38.5189 30.9619 40.4838 50.8626C40.5198 51.3192 40.6788 51.7296 40.9353 52.0118 41.1457 52.2581 41.4227 52.4069 41.71 52.4069L41.7151 52.4069C42.0537 52.4069 42.3821 52.2016 42.613 51.8528L45.7271 47.3329 51.3141 47.3329C51.8322 47.3329 52.294 46.8866 52.4684 46.2094L54.7053 38.0726 57.0396 46.3787C57.0704 46.4864 57.1063 46.5839 57.1525 46.6865 57.3885 47.1893 57.7732 47.4868 58.1991 47.4868L76.9609 47.4868C77.6432 47.4868 78.1973 46.7121 78.1973 45.7425 78.1973 44.7728 77.6381 44.0084 76.9609 44.0084L59.0404 44.0084 55.8647 32.7216C55.757 32.2906 55.5415 31.9469 55.2491 31.7365 54.931 31.5211 54.5616 31.5057 54.2435 31.6852 53.9152 31.8648 53.6689 32.2291 53.5458 32.7011L50.4727 43.8494 45.2038 43.8494C44.8806 43.8494 44.5574 44.0392 44.3214 44.3675L42.5924 46.8866 39.5604 16.1658C39.5604 16.1351 39.5552 16.0991 39.5501 16.0735 39.4372 15.2578 38.9242 14.6626 38.3291 14.6626 38.2521 14.6626 38.1752 14.6729 38.0982 14.6934 37.539 14.8525 37.144 15.4886 37.1029 16.2633L33.8605 61.031 30.2693 37.5339C30.2128 37.0978 30.0025 36.6822 29.7254 36.4257 29.4433 36.1692 29.0995 36.0974 28.7763 36.2051 28.2889 36.3795 27.9349 36.9131 27.8528 37.5749L25.1389 54.3051 20.5164 43.8904C20.5164 43.8904 20.501 43.8596 20.4907 43.8391 20.2547 43.362 19.8751 43.0798 19.4595 43.0798L1.78024 43.0798C1.0979 43.0798 0.548951 43.8545 0.548951 44.8036 0.548951 45.7527 1.0979 46.548 1.78024 46.548L18.7772 46.548 24.6156 59.6458C24.7079 59.887 24.867 60.1589 25.144 60.3538 25.2363 60.4205 25.339 60.4616 25.4364 60.4923 26.0983 60.6719 26.7447 60.0768 26.8832 59.1533L29.0226 45.9323 33.0858 72.5077C33.0858 72.5077 33.091 72.5487 33.0961 72.5641 33.2295 73.3388 33.722 73.8878 34.2812 73.8878Z" fill="#F15B40" fill-rule="nonzero" fill-opacity="1" transform="matrix(1 0 0 1.00178 927.558 194)"/></g></g></g></g></g></svg>