<svg width="399" height="74" xmlns="http://www.w3.org/2000/svg" xmlns:xlink="http://www.w3.org/1999/xlink" xml:space="preserve" overflow="hidden"><g transform="translate(-649 -396)"><g><g><g><g><path d="M72.6075 36.6272C72.6075 56.4986 56.4986 72.6075 36.6272 72.6075 16.7558 72.6075 0.646908 56.4986 0.646908 36.6272 0.646908 16.7558 16.7558 0.646908 36.6272 0.646908 56.4986 0.646908 72.6075 16.7558 72.6075 36.6272Z" fill="#082340" fill-rule="nonzero" fill-opacity="1" transform="matrix(1 0 0 1.01018 650.452 396)"/><path d="M36.6272 73.2544C16.4287 73.2544 0 56.821 0 36.6272 0 16.4334 16.4287 0 36.6272 0 56.8257 0 73.2544 16.4287 73.2544 36.6272 73.2544 56.8257 56.8257 73.2544 36.6272 73.2544ZM36.6272 1.28917C17.1408 1.28917 1.28917 17.1408 1.28917 36.6272 1.28917 56.1136 17.1408 71.9652 36.6272 71.9652 56.1136 71.9652 71.9652 56.1136 71.9652 36.6272 71.9652 17.1408 56.1136 1.28917 36.6272 1.28917Z" fill="#FFFFFF" fill-rule="nonzero" fill-opacity="1" transform="matrix(1 0 0 1.01018 650.452 396)"/><path d="M83.2606 12.2401C83.2606 6.1852 88.0216 1.8523 94.4302 1.8523 97.9859 1.8523 100.955 3.11354 102.896 5.40798L99.8382 8.16317C98.456 6.61337 96.72 5.80823 94.6629 5.80823 90.8094 5.80823 88.0775 8.44706 88.0775 12.2354 88.0775 16.0238 90.814 18.6627 94.6629 18.6627 96.72 18.6627 98.456 17.8575 99.8382 16.2798L102.896 19.035C100.955 21.3573 97.9859 22.6232 94.3976 22.6232 88.017 22.6232 83.2559 18.2903 83.2559 12.2354" fill="#F15B40" fill-rule="nonzero" fill-opacity="1" transform="matrix(1 0 0 1.01018 650.452 396)"/><path d="M131.309 7.53487 135.367 7.53487 135.367 10.9789 131.43 10.9789 131.383 22.6279 126.794 22.6279 126.841 10.9789 124.356 10.9789 124.356 7.53487 126.841 7.53487 126.841 6.84608C126.841 3.37417 128.972 1.10766 132.91 1.10766 134.204 1.10766 135.553 1.36828 136.41 1.94073L135.204 5.18459C134.706 4.84019 134.059 4.64007 133.352 4.64007 131.998 4.64007 131.309 5.35679 131.309 6.87865L131.309 7.53953Z" fill="#FFFFFF" fill-rule="nonzero" fill-opacity="1" transform="matrix(1 0 0 1.01018 650.452 396)"/><path d="M136.275 14.6788C136.275 10.0294 139.951 6.72972 144.978 6.72972 150.004 6.72972 153.648 10.0294 153.648 14.6788 153.648 19.3282 149.957 22.6232 144.926 22.6232 139.895 22.6232 136.27 19.3235 136.27 14.6788M149.008 14.6788C149.008 12.012 147.272 10.4018 144.982 10.4018 142.692 10.4018 140.924 12.0074 140.924 14.6788 140.924 17.3502 142.688 18.9559 144.982 18.9559 147.277 18.9559 149.008 17.3502 149.008 14.6788" fill="#FFFFFF" fill-rule="nonzero" fill-opacity="1" transform="matrix(1 0 0 1.01018 650.452 396)"/><path d="M166.679 6.72507 166.679 10.9183C166.293 10.8904 165.991 10.8578 165.632 10.8578 163.068 10.8578 161.364 12.2261 161.364 15.228L161.318 22.6279 156.659 22.6279 156.659 6.95777 161.155 6.95777 161.155 9.02416C162.291 7.5116 164.199 6.72507 166.675 6.72507" fill="#FFFFFF" fill-rule="nonzero" fill-opacity="1" transform="matrix(1 0 0 1.01018 650.452 396)"/><path d="M185.43 6.96243 185.43 19.8169C185.43 25.5553 182.21 28.1941 176.504 28.1941 173.507 28.1941 170.593 27.4774 168.741 26.0719L170.565 22.8559C171.92 23.917 174.121 24.6058 176.15 24.6058 179.385 24.6058 180.842 23.1724 180.842 20.3893L180.842 19.7284C179.636 21.0222 177.9 21.6505 175.843 21.6505 171.464 21.6505 167.936 18.6952 167.936 14.1901 167.936 9.68503 171.464 6.72972 175.843 6.72972 178.049 6.72972 179.869 7.44644 181.074 8.94039L181.074 6.96243 185.426 6.96243ZM180.902 14.1901C180.902 11.9236 179.166 10.4018 176.755 10.4018 174.345 10.4018 172.581 11.9236 172.581 14.1901 172.581 16.4566 174.345 17.9785 176.755 17.9785 179.166 17.9785 180.902 16.4566 180.902 14.1901" fill="#FFFFFF" fill-rule="nonzero" fill-opacity="1" transform="matrix(1 0 0 1.01018 650.452 396)"/><path d="M205.098 15.9447 193.133 15.9447C193.575 17.8668 195.25 19.0443 197.661 19.0443 199.337 19.0443 200.542 18.5556 201.631 17.5503L204.07 20.1333C202.599 21.7669 200.347 22.6279 197.498 22.6279 192.03 22.6279 188.521 19.2723 188.521 14.6788 188.521 10.0853 192.137 6.72972 196.958 6.72972 201.78 6.72972 205.191 9.7688 205.191 14.7347 205.191 15.0791 205.131 15.5677 205.103 15.94M193.072 13.3338 200.863 13.3338C200.542 11.3838 199.039 10.1225 196.982 10.1225 194.925 10.1225 193.393 11.3558 193.072 13.3338" fill="#FFFFFF" fill-rule="nonzero" fill-opacity="1" transform="matrix(1 0 0 1.01018 650.452 396)"/><path d="M113.907 18.9559C111.622 18.9465 109.863 17.3456 109.863 14.6835 109.863 12.0214 111.618 10.4157 113.907 10.4111L113.907 6.73903C108.886 6.74369 105.218 10.0434 105.218 14.6881 105.218 19.3328 108.848 22.6325 113.875 22.6325 113.884 22.6325 113.898 22.6325 113.907 22.6325L113.907 18.9605Z" fill="#F15B40" fill-rule="nonzero" fill-opacity="1" transform="matrix(1 0 0 1.01018 650.452 396)"/><path d="M113.907 18.9559C116.192 18.9465 117.952 17.3456 117.952 14.6835 117.952 12.0214 116.197 10.4157 113.907 10.4111L113.907 6.73903C118.929 6.74369 122.596 10.0434 122.596 14.6881 122.596 19.3328 118.966 22.6325 113.94 22.6325 113.931 22.6325 113.917 22.6325 113.907 22.6325L113.907 18.9605Z" fill="#FFFFFF" fill-rule="nonzero" fill-opacity="1" transform="matrix(1 0 0 1.01018 650.452 396)"/><path d="M83.2606 68.7121 85.8622 62.9457C88.6499 64.9795 92.8106 66.3944 96.7805 66.3944 101.318 66.3944 103.161 64.8818 103.161 62.848 103.161 56.6581 83.9261 60.9119 83.9261 48.6206 83.9261 42.9939 88.4638 38.3166 97.8695 38.3166 102.03 38.3166 106.284 39.3079 109.356 41.2486L106.991 47.0615C103.92 45.3116 100.75 44.4599 97.823 44.4599 93.2853 44.4599 91.5354 46.1633 91.5354 48.2437 91.5354 54.3404 110.771 50.1332 110.771 62.2802 110.771 67.8092 106.186 72.5377 96.734 72.5377 91.4889 72.5377 86.1926 70.9786 83.2652 68.7074Z" fill="#FFFFFF" fill-rule="nonzero" fill-opacity="1" transform="matrix(1 0 0 1.01018 650.452 396)"/><path d="M115.736 57.4167 115.736 38.8891 123.392 38.8891 123.392 57.1328C123.392 63.4204 126.133 66.0174 130.764 66.0174 135.395 66.0174 138.136 63.4158 138.136 57.1328L138.136 38.8891 145.699 38.8891 145.699 57.4167C145.699 67.153 140.123 72.5423 130.713 72.5423 121.303 72.5423 115.732 67.153 115.732 57.4167Z" fill="#FFFFFF" fill-rule="nonzero" fill-opacity="1" transform="matrix(1 0 0 1.01018 650.452 396)"/><path d="M181.963 50.8965C181.963 58.2684 176.434 62.8526 167.596 62.8526L160.932 62.8526 160.932 71.9745 153.276 71.9745 153.276 38.8891 167.596 38.8891C176.434 38.8891 181.963 43.4733 181.963 50.8965ZM174.21 50.8965C174.21 47.257 171.845 45.1301 167.168 45.1301L160.927 45.1301 160.927 56.6162 167.168 56.6162C171.845 56.6162 174.21 54.4894 174.21 50.8965Z" fill="#FFFFFF" fill-rule="nonzero" fill-opacity="1" transform="matrix(1 0 0 1.01018 650.452 396)"/><path d="M213.02 65.8312 213.02 71.9745 187.399 71.9745 187.399 38.8891 212.405 38.8891 212.405 45.0324 195.013 45.0324 195.013 52.2182 210.376 52.2182 210.376 58.1753 195.013 58.1753 195.013 65.8312 213.02 65.8312Z" fill="#FFFFFF" fill-rule="nonzero" fill-opacity="1" transform="matrix(1 0 0 1.01018 650.452 396)"/><path d="M240.199 71.9745 233.818 62.7596 226.777 62.7596 226.777 71.9745 219.121 71.9745 219.121 38.8891 233.441 38.8891C242.279 38.8891 247.808 43.4733 247.808 50.8965 247.808 55.8576 245.305 59.4971 241.004 61.3401L248.423 71.9745 240.199 71.9745ZM233.018 45.1255 226.777 45.1255 226.777 56.6581 233.018 56.6581C237.695 56.6581 240.059 54.4847 240.059 50.8918 240.059 47.2989 237.695 45.1255 233.018 45.1255Z" fill="#FFFFFF" fill-rule="nonzero" fill-opacity="1" transform="matrix(1 0 0 1.01018 650.452 396)"/><path d="M284.208 38.8891 284.208 71.9745 277.92 71.9745 261.426 51.8878 261.426 71.9745 253.863 71.9745 253.863 38.8891 260.197 38.8891 276.645 58.9758 276.645 38.8891 284.208 38.8891Z" fill="#FFFFFF" fill-rule="nonzero" fill-opacity="1" transform="matrix(1 0 0 1.01018 650.452 396)"/><path d="M289.983 55.4295C289.983 45.6002 297.639 38.3213 308.087 38.3213 318.536 38.3213 326.191 45.5536 326.191 55.4295 326.191 65.3053 318.489 72.5377 308.087 72.5377 297.686 72.5377 289.983 65.2588 289.983 55.4295ZM318.438 55.4295C318.438 49.1419 313.993 44.8416 308.087 44.8416 302.181 44.8416 297.737 49.1419 297.737 55.4295 297.737 61.7171 302.181 66.0174 308.087 66.0174 313.993 66.0174 318.438 61.7171 318.438 55.4295Z" fill="#FFFFFF" fill-rule="nonzero" fill-opacity="1" transform="matrix(1 0 0 1.01018 650.452 396)"/><path d="M362.679 38.8891 348.359 71.9745 340.796 71.9745 326.522 38.8891 334.792 38.8891 344.859 62.5222 355.07 38.8891 362.679 38.8891Z" fill="#FFFFFF" fill-rule="nonzero" fill-opacity="1" transform="matrix(1 0 0 1.01018 650.452 396)"/><path d="M370.768 64.8865 370.819 64.8865 378.475 46.4053 386.131 64.8865 386.531 65.8545 389.067 71.9745 397.096 71.9745 382.3 38.8891 374.738 38.8891 359.994 71.9745 367.84 71.9745 370.768 64.8865Z" fill="#FFFFFF" fill-rule="nonzero" fill-opacity="1" transform="matrix(1 0 0 1.01018 650.452 396)"/><path d="M25.0526 22.1625 25.0526 22.1625C25.0526 22.1625 25.0526 22.1625 25.0526 22.1625L28.9341 25.7275 32.2896 29.0086 31.9685 24.657 31.7777 19.1886C29.1854 19.398 26.8444 20.4917 25.0526 22.1625Z" fill="#F15B40" fill-rule="nonzero" fill-opacity="1" transform="matrix(1 0 0 1.01018 650.452 396)"/><path d="M32.164 36.0408 25.29 28.855 22.7582 25.788 24.806 29.4041C23.4516 31.0656 22.5767 33.132 22.3952 35.3846L32.164 36.0408Z" fill="#F15B40" fill-rule="nonzero" fill-opacity="1" transform="matrix(1 0 0 1.01018 650.452 396)"/><path d="M20.7337 41.2905C21.1479 43.4081 21.9484 44.4553 23.3632 45.9725L28.6362 39.5779 20.3567 39.1823 3.97454 38.3957 20.6685 41.0113 20.7337 41.2905Z" fill="#F15B40" fill-rule="nonzero" fill-opacity="1" transform="matrix(1 0 0 1.01018 650.452 396)"/><path d="M27.5891 49.5561 24.3871 52.1996 28.0266 49.9424C29.7858 51.4224 31.9918 52.3764 34.4119 52.5766L34.9331 43.2499 27.5891 49.5607Z" fill="#F15B40" fill-rule="nonzero" fill-opacity="1" transform="matrix(1 0 0 1.01018 650.452 396)"/><path d="M37.4603 40.127 37.6883 52.2508 36.9623 71.9745 39.8478 52.2508C42.2865 51.8133 43.7572 50.58 45.6141 49.086L50.5148 51.7714 46.4146 48.3879 37.4603 40.127Z" fill="#F15B40" fill-rule="nonzero" fill-opacity="1" transform="matrix(1 0 0 1.01018 650.452 396)"/><path d="M49.3839 45.9725C50.957 44.2877 52.2182 42.8962 52.6371 40.5319L70.2758 37.8093 52.6231 38.6564 42.5192 38.8751 49.3839 45.9725Z" fill="#F15B40" fill-rule="nonzero" fill-opacity="1" transform="matrix(1 0 0 1.01018 650.452 396)"/><path d="M41.2161 34.4072 50.8546 34.2769C50.6684 31.9732 49.8028 29.8556 48.467 28.1243L50.4683 24.0241 47.7689 27.3005 41.2161 34.4072Z" fill="#F15B40" fill-rule="nonzero" fill-opacity="1" transform="matrix(1 0 0 1.01018 650.452 396)"/><path d="M36.0594 33.1925 43.8735 25.4343C42.105 23.7867 40.4016 22.8559 37.9257 22.3766L35.0216 2.27117 35.9663 21.9391 36.0548 33.1925Z" fill="#F15B40" fill-rule="nonzero" fill-opacity="1" transform="matrix(1 0 0 1.01018 650.452 396)"/><path d="M49.2582 17.6388 50.5334 15.3024 52.8744 14.0226 50.5334 12.7427 49.2582 10.4064 47.9784 12.7427 45.6374 14.0226 47.9784 15.3024 49.2582 17.6388Z" fill="#FFFFFF" fill-rule="nonzero" fill-opacity="1" transform="matrix(1 0 0 1.01018 650.452 396)"/><path d="M58.7152 30.7724 59.9299 28.5478 62.1592 27.3285 59.9299 26.1091 58.7152 23.8845 57.4959 26.1091 55.2712 27.3285 57.4959 28.5478 58.7152 30.7724Z" fill="#FFFFFF" fill-rule="nonzero" fill-opacity="1" transform="matrix(1 0 0 1.01018 650.452 396)"/><path d="M24.8339 57.7146 23.6378 55.5226 22.4371 57.7146 20.245 58.9153 22.4371 60.1161 23.6378 62.3081 24.8339 60.1161 27.0306 58.9153 24.8339 57.7146Z" fill="#FFFFFF" fill-rule="nonzero" fill-opacity="1" transform="matrix(1 0 0 1.01018 650.452 396)"/><path d="M15.0977 48.3507 13.8969 46.154 12.6962 48.3507 10.5041 49.5514 12.6962 50.7475 13.8969 52.9442 15.0977 50.7475 17.2897 49.5514 15.0977 48.3507Z" fill="#FFFFFF" fill-rule="nonzero" fill-opacity="1" transform="matrix(1 0 0 1.01018 650.452 396)"/><path d="M13.7015 23.6006 12.5007 21.4039 11.3046 23.6006 9.10793 24.8013 11.3046 25.9974 12.5007 28.1941 13.7015 25.9974 15.8982 24.8013 13.7015 23.6006Z" fill="#FFFFFF" fill-rule="nonzero" fill-opacity="1" transform="matrix(1 0 0 1.01018 650.452 396)"/><path d="M27.4634 14.0645 26.2627 11.8678 25.0619 14.0645 22.8699 15.2606 25.0619 16.4613 26.2627 18.658 27.4634 16.4613 29.6555 15.2606 27.4634 14.0645Z" fill="#FFFFFF" fill-rule="nonzero" fill-opacity="1" transform="matrix(1 0 0 1.01018 650.452 396)"/><path d="M48.9418 55.5226 48.0296 57.1887 46.3634 58.1009 48.0296 59.0131 48.9418 60.6792 49.8539 59.0131 51.5201 58.1009 49.8539 57.1887 48.9418 55.5226Z" fill="#FFFFFF" fill-rule="nonzero" fill-opacity="1" transform="matrix(1 0 0 1.01018 650.452 396)"/><path d="M62.1592 45.6141 61.247 47.2803 59.5762 48.1925 61.247 49.1046 62.1592 50.7708 63.0667 49.1046 64.7375 48.1925 63.0667 47.2803 62.1592 45.6141Z" fill="#FFFFFF" fill-rule="nonzero" fill-opacity="1" transform="matrix(1 0 0 1.01018 650.452 396)"/></g></g></g></g></g></svg>