<svg width="440" height="80" xmlns="http://www.w3.org/2000/svg" xmlns:xlink="http://www.w3.org/1999/xlink" xml:space="preserve" overflow="hidden"><g transform="translate(-69 -192)"><g><g><g><g><path d="M79.2935 40C79.2935 61.7012 61.7012 79.2935 40 79.2935 18.2988 79.2935 0.706479 61.7012 0.706479 40 0.706479 18.2988 18.2988 0.706479 40 0.706479 61.7012 0.706479 79.2935 18.2988 79.2935 40Z" fill="#082340" fill-rule="nonzero" fill-opacity="1" transform="matrix(1.00765 0 0 1 70.545 192)"/><path d="M40 80C17.9416 80 0 62.0534 0 40 0 17.9466 17.9416 0 40 0 62.0585 0 80 17.9416 80 40 80 62.0585 62.0585 80 40 80ZM40 1.40788C18.7192 1.40788 1.40788 18.7192 1.40788 40 1.40788 61.2808 18.7192 78.5921 40 78.5921 61.2808 78.5921 78.5921 61.2808 78.5921 40 78.5921 18.7192 61.2808 1.40788 40 1.40788Z" fill="#FFFFFF" fill-rule="nonzero" fill-opacity="1" transform="matrix(1.00765 0 0 1 70.545 192)"/><path d="M92.7471 13.0623C92.7471 6.46506 97.9365 1.74333 104.925 1.74333 108.803 1.74333 112.041 3.12071 114.155 5.62135L110.821 8.62516C109.316 6.93774 107.426 6.05845 105.179 6.05845 100.981 6.05845 98.0025 8.9352 98.0025 13.0623 98.0025 17.1893 100.981 20.0661 105.179 20.0661 107.421 20.0661 109.311 19.1868 110.821 17.4689L114.155 20.4727C112.041 23.0038 108.803 24.3812 104.895 24.3812 97.9416 24.3812 92.7471 19.6595 92.7471 13.0623" fill="#F15B40" fill-rule="nonzero" fill-opacity="1" transform="matrix(1.00765 0 0 1 70.545 192)"/><path d="M145.118 7.92884 149.54 7.92884 149.54 11.6798 145.245 11.6798 145.194 24.3761 140.193 24.3761 140.244 11.6798 137.535 11.6798 137.535 7.92884 140.244 7.92884 140.244 7.17662C140.244 3.39517 142.567 0.919949 146.856 0.919949 148.264 0.919949 149.738 1.20457 150.668 1.82973L149.352 5.36213C148.808 4.98602 148.102 4.76747 147.334 4.76747 145.86 4.76747 145.108 5.55019 145.108 7.20712L145.108 7.92376Z" fill="#082340" fill-rule="nonzero" fill-opacity="1" transform="matrix(1.00765 0 0 1 70.545 192)"/><path d="M150.536 15.7154C150.536 10.648 154.541 7.05464 160.02 7.05464 165.499 7.05464 169.474 10.6531 169.474 15.7154 169.474 20.7776 165.449 24.3761 159.97 24.3761 154.49 24.3761 150.536 20.7776 150.536 15.7154M164.412 15.7154C164.412 12.8081 162.521 11.0546 160.02 11.0546 157.52 11.0546 155.598 12.8081 155.598 15.7154 155.598 18.6226 157.52 20.3761 160.02 20.3761 162.521 20.3761 164.412 18.6226 164.412 15.7154" fill="#082340" fill-rule="nonzero" fill-opacity="1" transform="matrix(1.00765 0 0 1 70.545 192)"/><path d="M183.675 7.04447 183.675 11.6188C183.253 11.5883 182.928 11.5527 182.536 11.5527 179.741 11.5527 177.886 13.0419 177.886 16.3151L177.835 24.3812 172.757 24.3812 172.757 7.2986 177.657 7.2986 177.657 9.55527C178.892 7.90343 180.976 7.04447 183.675 7.04447" fill="#082340" fill-rule="nonzero" fill-opacity="1" transform="matrix(1.00765 0 0 1 70.545 192)"/><path d="M204.117 7.30369 204.117 21.3164C204.117 27.5731 200.605 30.4498 194.389 30.4498 191.121 30.4498 187.949 29.6671 185.926 28.1372L187.914 24.6353C189.388 25.7942 191.792 26.5413 194.003 26.5413 197.525 26.5413 199.116 24.9759 199.116 21.9416L199.116 21.2198C197.799 22.6277 195.909 23.3139 193.667 23.3139 188.895 23.3139 185.047 20.0915 185.047 15.1817 185.047 10.2719 188.895 7.04956 193.667 7.04956 196.071 7.04956 198.058 7.83227 199.37 9.4587L199.37 7.30369 204.112 7.30369ZM199.182 15.1868C199.182 12.7166 197.291 11.0597 194.663 11.0597 192.036 11.0597 190.109 12.7166 190.109 15.1868 190.109 17.6569 192.031 19.3139 194.663 19.3139 197.296 19.3139 199.182 17.6569 199.182 15.1868" fill="#082340" fill-rule="nonzero" fill-opacity="1" transform="matrix(1.00765 0 0 1 70.545 192)"/><path d="M225.555 17.0928 212.513 17.0928C212.996 19.1868 214.821 20.4727 217.449 20.4727 219.278 20.4727 220.59 19.939 221.774 18.8463L224.432 21.662C222.831 23.4409 220.376 24.3812 217.271 24.3812 211.309 24.3812 207.482 20.7217 207.482 15.7205 207.482 10.7192 211.426 7.05464 216.681 7.05464 221.936 7.05464 225.652 10.3685 225.652 15.7814 225.652 16.1576 225.586 16.6862 225.555 17.0928M212.447 14.2465 220.94 14.2465C220.59 12.122 218.953 10.7446 216.712 10.7446 214.47 10.7446 212.803 12.0915 212.452 14.2465" fill="#082340" fill-rule="nonzero" fill-opacity="1" transform="matrix(1.00765 0 0 1 70.545 192)"/><path d="M126.15 20.3761C123.659 20.3659 121.743 18.6175 121.743 15.7154 121.743 12.8132 123.659 11.0648 126.15 11.0546L126.15 7.04956C120.676 7.05464 116.681 10.6531 116.681 15.7103 116.681 20.7675 120.635 24.371 126.114 24.371 126.125 24.371 126.14 24.371 126.15 24.371L126.15 20.371Z" fill="#F15B40" fill-rule="nonzero" fill-opacity="1" transform="matrix(1.00765 0 0 1 70.545 192)"/><path d="M126.15 20.3761C128.64 20.3659 130.557 18.6175 130.557 15.7154 130.557 12.8132 128.64 11.0648 126.15 11.0546L126.15 7.04956C131.624 7.05464 135.619 10.6531 135.619 15.7103 135.619 20.7675 131.665 24.371 126.186 24.371 126.175 24.371 126.16 24.371 126.15 24.371L126.15 20.371Z" fill="#082340" fill-rule="nonzero" fill-opacity="1" transform="matrix(1.00765 0 0 1 70.545 192)"/><path d="M125.779 42.0991 125.779 78.1703 117.433 78.1703 117.433 63.3799 101.047 63.3799 101.047 78.1703 92.7014 78.1703 92.7014 42.0991 101.047 42.0991 101.047 56.3202 117.433 56.3202 117.433 42.0991 125.779 42.0991Z" fill="#082340" fill-rule="nonzero" fill-opacity="1" transform="matrix(1.00765 0 0 1 70.545 192)"/><path d="M151.644 65.3926 151.644 78.1703 143.299 78.1703 143.299 65.2859 129.332 42.0991 138.196 42.0991 147.832 58.1245 157.469 42.0991 165.662 42.0991 151.644 65.3926Z" fill="#082340" fill-rule="nonzero" fill-opacity="1" transform="matrix(1.00765 0 0 1 70.545 192)"/><path d="M200.081 55.1868C200.081 63.2275 194.053 68.2236 184.417 68.2236L177.149 68.2236 177.149 78.1703 168.803 78.1703 168.803 42.0991 184.417 42.0991C194.053 42.0991 200.081 47.0953 200.081 55.1868ZM191.629 55.1868C191.629 51.2173 189.052 48.8996 183.949 48.8996L177.149 48.8996 177.149 61.4231 183.949 61.4231C189.052 61.4231 191.629 59.1055 191.629 55.1868Z" fill="#082340" fill-rule="nonzero" fill-opacity="1" transform="matrix(1.00765 0 0 1 70.545 192)"/><path d="M233.936 71.4714 233.936 78.1703 206.008 78.1703 206.008 42.0991 233.266 42.0991 233.266 48.798 214.302 48.798 214.302 56.6302 231.05 56.6302 231.05 63.1207 214.302 63.1207 214.302 71.4663 233.936 71.4663Z" fill="#082340" fill-rule="nonzero" fill-opacity="1" transform="matrix(1.00765 0 0 1 70.545 192)"/><path d="M263.563 78.1703 256.605 68.122 248.925 68.122 248.925 78.1703 240.579 78.1703 240.579 42.0991 256.193 42.0991C265.83 42.0991 271.858 47.0953 271.858 55.1868 271.858 60.5998 269.128 64.5642 264.437 66.5769L272.529 78.1703 263.563 78.1703ZM255.731 48.8996 248.93 48.8996 248.93 61.474 255.731 61.474C260.834 61.474 263.41 59.1055 263.41 55.1868 263.41 51.2681 260.834 48.8996 255.731 48.8996Z" fill="#082340" fill-rule="nonzero" fill-opacity="1" transform="matrix(1.00765 0 0 1 70.545 192)"/><path d="M311.538 42.0991 311.538 78.1703 304.686 78.1703 286.699 56.2694 286.699 78.1703 278.455 78.1703 278.455 42.0991 285.362 42.0991 303.294 64 303.294 42.0991 311.538 42.0991Z" fill="#082340" fill-rule="nonzero" fill-opacity="1" transform="matrix(1.00765 0 0 1 70.545 192)"/><path d="M317.825 60.1321C317.825 49.413 326.17 41.479 337.56 41.479 348.95 41.479 357.296 49.3621 357.296 60.1321 357.296 70.9022 348.895 78.7853 337.56 78.7853 326.226 78.7853 317.825 70.8513 317.825 60.1321ZM348.844 60.1321C348.844 53.2808 344 48.5896 337.56 48.5896 331.121 48.5896 326.277 53.2808 326.277 60.1321 326.277 66.9835 331.121 71.6747 337.56 71.6747 344 71.6747 348.844 66.9835 348.844 60.1321Z" fill="#082340" fill-rule="nonzero" fill-opacity="1" transform="matrix(1.00765 0 0 1 70.545 192)"/><path d="M397.078 42.0991 381.464 78.1703 373.22 78.1703 357.657 42.0991 366.673 42.0991 377.652 67.8628 388.783 42.0991 397.078 42.0991Z" fill="#082340" fill-rule="nonzero" fill-opacity="1" transform="matrix(1.00765 0 0 1 70.545 192)"/><path d="M418.46 42.0991 410.216 42.0991 394.135 78.1703 402.689 78.1703 405.886 70.4396 405.942 70.4396 414.287 50.2923 422.633 70.4396 423.598 72.7776 425.835 78.1703 434.587 78.1703 418.46 42.0991Z" fill="#082340" fill-rule="nonzero" fill-opacity="1" transform="matrix(1.00765 0 0 1 70.545 192)"/><path d="M61.364 26.578 71.8364 26.578 71.8364 27.2802 61.364 27.2802Z" fill="#FFFFFF" fill-rule="nonzero" fill-opacity="1" transform="matrix(0.923951 -0.396035 0.399064 0.91694 65.2955 220.579)"/><path d="M73.4841 54.1398 64.3253 50.4803 64.5693 49.8602 73.7281 53.5197 73.4841 54.1398Z" fill="#FFFFFF" fill-rule="nonzero" fill-opacity="1" transform="matrix(1.00765 0 0 1 70.545 192)"/><path d="M63.3291 50.1754 52.615 45.8958 52.859 45.2757 63.5731 49.5553 63.3291 50.1754Z" fill="#FFFFFF" fill-rule="nonzero" fill-opacity="1" transform="matrix(1.00765 0 0 1 70.545 192)"/><path d="M53.9873 73.1995 49.8297 63.6036 50.4803 63.324 54.6328 72.92 53.9873 73.1995Z" fill="#FFFFFF" fill-rule="nonzero" fill-opacity="1" transform="matrix(1.00765 0 0 1 70.545 192)"/><path d="M49.4943 62.6226 44.6353 51.3952 45.2859 51.1156 50.1449 62.338 49.4943 62.6226Z" fill="#FFFFFF" fill-rule="nonzero" fill-opacity="1" transform="matrix(1.00765 0 0 1 70.545 192)"/><path d="M25.6264 73.5502 25.0216 73.3113 28.5845 64.4422 29.1944 64.6811 25.6264 73.5502Z" fill="#FFFFFF" fill-rule="nonzero" fill-opacity="1" transform="matrix(1.00765 0 0 1 70.545 192)"/><path d="M29.9365 62.8208 29.3316 62.587 33.4994 52.2135 34.1042 52.4473 29.9365 62.8208Z" fill="#FFFFFF" fill-rule="nonzero" fill-opacity="1" transform="matrix(1.00765 0 0 1 70.545 192)"/><path d="M4.59466 54.2465 4.36086 53.6976 12.3253 50.1754 12.5591 50.7243 4.59466 54.2465Z" fill="#FFFFFF" fill-rule="nonzero" fill-opacity="1" transform="matrix(1.00765 0 0 1 70.545 192)"/><path d="M16.493 48.986 16.2643 48.4371 25.5807 44.3151 25.8145 44.864 16.493 48.986Z" fill="#FFFFFF" fill-rule="nonzero" fill-opacity="1" transform="matrix(1.00765 0 0 1 70.545 192)"/><path d="M14.587 29.1436 5.54003 25.4994 5.77891 24.8844 14.8259 28.5235 14.587 29.1436Z" fill="#FFFFFF" fill-rule="nonzero" fill-opacity="1" transform="matrix(1.00765 0 0 1 70.545 192)"/><path d="M27.3342 34.4803 16.7522 30.2211 16.9911 29.6061 27.5731 33.8653 27.3342 34.4803Z" fill="#FFFFFF" fill-rule="nonzero" fill-opacity="1" transform="matrix(1.00765 0 0 1 70.545 192)"/><path d="M28.9301 14.5718 25.1741 6.25159 25.7586 6.00762 29.5146 14.3278 28.9301 14.5718Z" fill="#FFFFFF" fill-rule="nonzero" fill-opacity="1" transform="matrix(1.00765 0 0 1 70.545 192)"/><path d="M34.0076 25.7942 29.6112 16.0559 30.1957 15.8119 34.5921 25.5502 34.0076 25.7942Z" fill="#FFFFFF" fill-rule="nonzero" fill-opacity="1" transform="matrix(1.00765 0 0 1 70.545 192)"/><path d="M49.5959 15.014 49.0928 14.7853 52.0305 6.17027 52.5337 6.39898 49.5959 15.014Z" fill="#FFFFFF" fill-rule="nonzero" fill-opacity="1" transform="matrix(1.00765 0 0 1 70.545 192)"/><path d="M45.8653 24.8844 45.3672 24.676 48.798 15.568 49.3011 15.7764 45.8653 24.8844Z" fill="#FFFFFF" fill-rule="nonzero" fill-opacity="1" transform="matrix(1.00765 0 0 1 70.545 192)"/><path d="M53.3164 32.4066 53.1385 32.0407 60.305 29.2961 60.4879 29.662 53.3164 32.4066Z" fill="#FFFFFF" fill-rule="nonzero" fill-opacity="1" transform="matrix(1.00765 0 0 1 70.545 192)"/><path d="M73.7281 36.3761 75.3444 36.3761 75.3444 37.0775 73.7281 37.0775Z" fill="#FFFFFF" fill-rule="nonzero" fill-opacity="1" transform="matrix(1.00764 -0.00383971 0.00386907 0.999993 70.4016 192.29)"/><path d="M54.9225 36.4117 70.338 36.4117 70.338 37.1131 54.9225 37.1131Z" fill="#FFFFFF" fill-rule="nonzero" fill-opacity="1" transform="matrix(1.00764 -0.00383971 0.00386907 0.999993 70.4016 192.244)"/><path d="M63.8069 63.4765 62.6582 62.338 63.1563 61.8348 64.305 62.9784 63.8069 63.4765Z" fill="#FFFFFF" fill-rule="nonzero" fill-opacity="1" transform="matrix(1.00765 0 0 1 70.545 192)"/><path d="M60.2541 59.9441 49.3215 49.0775 49.8145 48.5743 60.7522 59.446 60.2541 59.9441Z" fill="#FFFFFF" fill-rule="nonzero" fill-opacity="1" transform="matrix(1.00765 0 0 1 70.545 192)"/><path d="M39.1461 72.3761 39.8475 72.3761 39.8475 73.9924 39.1461 73.9924Z" fill="#FFFFFF" fill-rule="nonzero" fill-opacity="1" transform="matrix(1.00764 -0.00296706 0.00298975 0.999996 70.3248 192.117)"/><path d="M39.1106 53.5655 39.812 53.5655 39.812 68.981 39.1106 68.981Z" fill="#FFFFFF" fill-rule="nonzero" fill-opacity="1" transform="matrix(1.00764 -0.00296706 0.00298975 0.999996 70.3658 192.117)"/><path d="M16.0152 63.2478 15.5172 62.7497 16.6557 61.601 17.1537 62.0991 16.0152 63.2478Z" fill="#FFFFFF" fill-rule="nonzero" fill-opacity="1" transform="matrix(1.00765 0 0 1 70.545 192)"/><path d="M19.5476 59.695 19.0496 59.197 29.9161 48.2643 30.4142 48.7573 19.5476 59.695Z" fill="#FFFFFF" fill-rule="nonzero" fill-opacity="1" transform="matrix(1.00765 0 0 1 70.545 192)"/><path d="M3.92376 38.399 5.54002 38.399 5.54002 39.1004 3.92376 39.1004Z" fill="#FFFFFF" fill-rule="nonzero" fill-opacity="1" transform="matrix(1.00764 -0.00191986 0.00193454 0.999998 70.4682 192.01)"/><path d="M8.93012 38.3634 24.3456 38.3634 24.3456 39.0648 8.93012 39.0648Z" fill="#FFFFFF" fill-rule="nonzero" fill-opacity="1" transform="matrix(1.00764 -0.00383971 0.00386907 0.999993 70.3914 192.066)"/><path d="M17.0928 16.9454 16.0762 15.8933 16.5133 15.4358 17.5299 16.4828 17.0928 16.9454Z" fill="#FFFFFF" fill-rule="nonzero" fill-opacity="1" transform="matrix(1.00765 0 0 1 70.545 192)"/><path d="M28.92 29.1436 19.2224 19.141 19.6645 18.6836 29.3571 28.6811 28.92 29.1436Z" fill="#FFFFFF" fill-rule="nonzero" fill-opacity="1" transform="matrix(1.00765 0 0 1 70.545 192)"/><path d="M38.9581 6.08386 39.6595 6.08386 39.6595 7.49682 38.9581 7.49682Z" fill="#FFFFFF" fill-rule="nonzero" fill-opacity="1" transform="matrix(1.00764 -0.00349065 0.00351734 0.999994 70.5194 192.132)"/><path d="M38.9937 10.4549 39.6951 10.4549 39.6951 23.9085 38.9937 23.9085Z" fill="#FFFFFF" fill-rule="nonzero" fill-opacity="1" transform="matrix(1.00764 -0.00331612 0.00334147 0.999994 70.4887 192.132)"/><path d="M61.4333 16.5235 61.0013 16.1017 61.9161 15.0597 62.3482 15.4816 61.4333 16.5235Z" fill="#FFFFFF" fill-rule="nonzero" fill-opacity="1" transform="matrix(1.00765 0 0 1 70.545 192)"/><path d="M50.7954 28.6557 50.3685 28.2338 59.0851 18.2923 59.5121 18.709 50.7954 28.6557Z" fill="#FFFFFF" fill-rule="nonzero" fill-opacity="1" transform="matrix(1.00765 0 0 1 70.545 192)"/><path d="M41.4638 41.6112 41.2503 46.0381 40.7471 56.1322 41.8399 45.9619C42.8513 45.7789 43.7764 45.3418 44.5489 44.7217L46.587 45.8399 44.8793 44.432 41.4587 41.6112Z" fill="#F15B40" fill-rule="nonzero" fill-opacity="1" transform="matrix(1.00765 0 0 1 70.545 192)"/><path d="M36.6099 35.5578 36.6099 35.5578C36.6099 35.5578 36.6099 35.5578 36.6099 35.5578L38.7395 37.3113 40.0356 38.3787 40.1118 36.8234 40.2491 33.9466C38.8513 34.0585 37.5858 34.6531 36.615 35.5527Z" fill="#F15B40" fill-rule="nonzero" fill-opacity="1" transform="matrix(1.00765 0 0 1 70.545 192)"/><path d="M39.136 39.2783 36.3151 35.8577 34.9072 34.1499 36.0457 36.1576C35.2935 37.0826 34.8056 38.2313 34.7039 39.4816L39.1309 39.2681Z" fill="#F15B40" fill-rule="nonzero" fill-opacity="1" transform="matrix(1.00765 0 0 1 70.545 192)"/><path d="M34.7954 41.169C35.014 42.3024 35.5527 43.3189 36.31 44.1321L39.1309 40.7116 34.7039 40.4981 24.2287 39.9949 34.8005 41.169Z" fill="#F15B40" fill-rule="nonzero" fill-opacity="1" transform="matrix(1.00765 0 0 1 70.545 192)"/><path d="M36.6099 44.4269 34.9022 45.8348 36.8386 44.6353C37.7738 45.4231 38.9479 45.9314 40.2389 46.0381L40.0254 41.6112 36.6048 44.432Z" fill="#F15B40" fill-rule="nonzero" fill-opacity="1" transform="matrix(1.00765 0 0 1 70.545 192)"/><path d="M45.1842 44.1321C45.967 43.2935 46.5108 42.2363 46.7192 41.0623L57.2707 39.9949 46.7903 40.4981 42.3634 40.7116 45.1842 44.1321Z" fill="#F15B40" fill-rule="nonzero" fill-opacity="1" transform="matrix(1.00765 0 0 1 70.545 192)"/><path d="M42.3634 39.2783 46.7903 39.4917C46.6938 38.2922 46.2414 37.1893 45.5502 36.2897L46.5921 34.155 45.1842 35.8628 42.3634 39.2834Z" fill="#F15B40" fill-rule="nonzero" fill-opacity="1" transform="matrix(1.00765 0 0 1 70.545 192)"/><path d="M41.4638 38.3787 44.8844 35.5578C44.0712 34.8005 43.0546 34.2618 41.9161 34.0432L40.7471 23.4714 41.2503 33.9517 41.4638 38.3787Z" fill="#F15B40" fill-rule="nonzero" fill-opacity="1" transform="matrix(1.00765 0 0 1 70.545 192)"/><path d="M57.291 42.9225C55.1004 43.1055 53.1131 43.3189 51.8882 43.5477 51.4206 43.6341 51.136 43.8882 50.8564 44.4269 50.8259 44.493 50.7903 44.5591 50.7598 44.6252 50.587 44.9708 50.3939 45.3164 50.1855 45.6518 46.6226 51.3799 39.0902 53.1334 33.3571 49.5705 32.5388 49.0623 31.8018 48.4676 31.1461 47.817 30.2058 47.0851 29.0724 46.5667 27.8729 46.5921 26.8564 46.6125 25.4536 46.6938 24.4828 46.8615 24.1017 46.9276 23.8882 47.3139 24.1169 47.7408 25.5451 50.3685 27.6544 52.676 30.3736 54.3685 38.7497 59.5832 49.7687 57.0165 54.9784 48.6404 55.1766 48.3202 55.3647 48 55.5375 47.6747 63.2579 45.0928 76.554 44.5642 76.061 42.7751 75.2529 39.8424 61.1588 38.521 59.1461 36.7014 58.0025 35.6696 57.352 34.587 56.5438 32.9352 55.2122 29.3723 52.7319 26.2008 49.2503 24.0356 40.8742 18.8208 29.8602 21.3876 24.6455 29.7637 24.2084 30.4701 23.8221 31.1919 23.4917 31.9339 18.9987 34.0585 13.2706 35.751 9.89072 37.1944-1.15883 41.9111 24.5286 43.2681 28.2592 43.1715 32.1576 43.0648 36.1931 42.8158 40.1271 42.582 44.1525 42.3431 48.1017 42.1093 51.7255 41.9314 58.1347 41.6213 62.6531 41.3621 68.9809 41.8145 73.5553 42.1398 71.69 42.3685 66.9123 42.6023 62.2211 42.831 60.6862 42.648 57.291 42.9276L57.291 42.9276ZM51.2529 38.7192C44.1779 39.1207 38.4956 39.7306 34.7954 39.5273 31.8323 39.3647 29.9161 38.7751 29.0267 37.8958 29.0775 35.9848 29.6213 34.0585 30.7039 32.3151 33.9466 27.1004 40.8031 25.5044 46.0178 28.7471 49.5604 30.953 51.4358 34.831 51.2529 38.7243Z" fill="#F15B40" fill-rule="evenodd" fill-opacity="1" transform="matrix(1.00765 0 0 1 70.545 192)"/><path d="M12.7421 33.4384C12.7421 34.4966 11.8842 35.3545 10.8259 35.3545 9.76767 35.3545 8.90978 34.4966 8.90978 33.4384 8.90978 32.3801 9.76767 31.5222 10.8259 31.5222 11.8842 31.5222 12.7421 32.3801 12.7421 33.4384Z" fill="#FFFFFF" fill-rule="nonzero" fill-opacity="1" transform="matrix(1.00765 0 0 1 70.545 192)"/><path d="M65.1334 54.643C65.1334 55.4065 64.5145 56.0254 63.751 56.0254 62.9874 56.0254 62.3685 55.4065 62.3685 54.643 62.3685 53.8794 62.9874 53.2605 63.751 53.2605 64.5145 53.2605 65.1334 53.8794 65.1334 54.643Z" fill="#FFFFFF" fill-rule="nonzero" fill-opacity="1" transform="matrix(1.00765 0 0 1 70.545 192)"/><path d="M21.8551 25.9009 22.2465 26.6175 22.9632 27.014 22.2465 27.4053 21.8551 28.122 21.4587 27.4053 20.7421 27.014 21.4587 26.6175 21.8551 25.9009Z" fill="#FFFFFF" fill-rule="nonzero" fill-opacity="1" transform="matrix(1.00765 0 0 1 70.545 192)"/><path d="M13.3215 54.643 13.7179 55.3647 14.4346 55.756 13.7179 56.1474 13.3215 56.8691 12.9301 56.1474 12.2084 55.756 12.9301 55.3647 13.3215 54.643Z" fill="#FFFFFF" fill-rule="nonzero" fill-opacity="1" transform="matrix(1.00765 0 0 1 70.545 192)"/><path d="M73.3876 45.2757 74.1499 46.6684 75.5477 47.4358 74.1499 48.1982 73.3876 49.5909 72.6252 48.1982 71.2274 47.4358 72.6252 46.6684 73.3876 45.2757Z" fill="#FFFFFF" fill-rule="nonzero" fill-opacity="1" transform="matrix(1.00765 0 0 1 70.545 192)"/><path d="M45.3672 63.9441 46.1296 65.3367 47.5222 66.1042 46.1296 66.8666 45.3672 68.2643 44.5997 66.8666 43.2071 66.1042 44.5997 65.3367 45.3672 63.9441Z" fill="#FFFFFF" fill-rule="nonzero" fill-opacity="1" transform="matrix(1.00765 0 0 1 70.545 192)"/><path d="M45.4841 6.88691 46.0788 8.71665 47.5731 9.93647 45.7433 10.5362 44.5235 12.0254 43.9238 10.1957 42.4346 8.97586 44.2643 8.3812 45.4841 6.88691Z" fill="#FFFFFF" fill-rule="nonzero" fill-opacity="1" transform="matrix(1.00765 0 0 1 70.545 192)"/><path d="M52.615 18.4346 52.925 18.9987 53.4892 19.3088 52.925 19.6137 52.615 20.183 52.31 19.6137 51.7459 19.3088 52.31 18.9987 52.615 18.4346Z" fill="#FFFFFF" fill-rule="nonzero" fill-opacity="1" transform="matrix(1.00765 0 0 1 70.545 192)"/><path d="M64.3863 19.202 64.9606 20.2592 66.0178 20.8386 64.9606 21.418 64.3863 22.4701 63.8069 21.418 62.7497 20.8386 63.8069 20.2592 64.3863 19.202Z" fill="#FFFFFF" fill-rule="nonzero" fill-opacity="1" transform="matrix(1.00765 0 0 1 70.545 192)"/></g></g></g></g></g></svg>