<svg width="292" height="76" xmlns="http://www.w3.org/2000/svg" xmlns:xlink="http://www.w3.org/1999/xlink" xml:space="preserve" overflow="hidden"><defs><clipPath id="clip0"><rect x="926" y="556" width="292" height="76"/></clipPath><clipPath id="clip1"><rect x="926" y="556" width="292" height="76"/></clipPath><clipPath id="clip2"><rect x="927" y="556" width="291" height="76"/></clipPath><clipPath id="clip3"><rect x="927" y="556" width="291" height="76"/></clipPath><clipPath id="clip4"><rect x="927" y="556" width="291" height="76"/></clipPath><clipPath id="clip5"><path d="M1000.65 594.079C1000.65 614.254 984.287 630.61 964.108 630.61 943.929 630.61 927.571 614.254 927.571 594.079 927.571 573.904 943.929 557.548 964.108 557.548 984.287 557.548 1000.65 573.904 1000.65 594.079Z" fill-rule="nonzero" clip-rule="nonzero"/></clipPath><linearGradient x1="28.6842" y1="49.8579" x2="9.72729" y2="73.8099" gradientUnits="userSpaceOnUse" spreadMethod="pad" id="fill6"><stop offset="0" stop-color="#FFFFFF" stop-opacity="0.9"/><stop offset="1" stop-color="#231F20" stop-opacity="0"/></linearGradient><linearGradient x1="44.0288" y1="26.2508" x2="62.9852" y2="2.29419" gradientUnits="userSpaceOnUse" spreadMethod="pad" id="fill7"><stop offset="0" stop-color="#FFFFFF" stop-opacity="0.9"/><stop offset="1" stop-color="#231F20" stop-opacity="0"/></linearGradient></defs><g clip-path="url(#clip0)" transform="translate(-926 -556)"><g clip-path="url(#clip1)"><g clip-path="url(#clip2)"><g clip-path="url(#clip3)"><g clip-path="url(#clip4)"><path d="M72.545 38.0791C72.545 57.9333 56.45 74.0284 36.5957 74.0284 16.7414 74.0284 0.646352 57.9333 0.646352 38.0791 0.646352 18.2248 16.7414 2.12971 36.5957 2.12971 56.45 2.12971 72.545 18.2248 72.545 38.0791Z" fill="#082340" fill-rule="nonzero" fill-opacity="1" transform="matrix(1.00019 0 0 1 927.506 556)"/><path d="M36.5957 74.6701C16.4146 74.6701 0 58.2555 0 38.0744 0 17.8933 16.4146 1.48336 36.5957 1.48336 56.7768 1.48336 73.1914 17.8979 73.1914 38.0791 73.1914 58.2602 56.7768 74.6747 36.5957 74.6747ZM36.5957 2.77141C17.126 2.77141 1.28806 18.6094 1.28806 38.0744 1.28806 57.5394 17.126 73.382 36.5957 73.382 56.0653 73.382 71.9033 57.5441 71.9033 38.0744 71.9033 18.6047 56.0653 2.77141 36.5957 2.77141Z" fill="#FFFFFF" fill-rule="nonzero" fill-opacity="1" transform="matrix(1.00019 0 0 1 927.506 556)"/><path d="M90.1314 11.3926C90.1314 5.19873 95.0046 0.762604 101.561 0.762604 105.202 0.762604 108.239 2.05531 110.224 4.40357L107.095 7.22149C105.681 5.63583 103.905 4.81278 101.798 4.81278 97.8551 4.81278 95.0604 7.51444 95.0604 11.3879 95.0604 15.2614 97.8598 17.963 101.798 17.963 103.905 17.963 105.676 17.14 107.095 15.5264L110.224 18.3443C108.239 20.7205 105.202 22.0132 101.529 22.0132 95 22.0132 90.1268 17.5817 90.1268 11.3833" fill="#F15B40" fill-rule="nonzero" fill-opacity="1" transform="matrix(1.00019 0 0 1 927.506 556)"/><path d="M139.301 6.57513 143.453 6.57513 143.453 10.0999 139.422 10.0999 139.375 22.0179 134.683 22.0179 134.73 10.0999 132.186 10.0999 132.186 6.57513 134.73 6.57513 134.73 5.86833C134.73 2.31571 136.911-0.00465002 140.938-0.00465002 142.263-0.00465002 143.644 0.260401 144.518 0.846304L143.286 4.16642C142.774 3.81302 142.114 3.60842 141.393 3.60842 140.008 3.60842 139.305 4.34312 139.305 5.90088L139.305 6.57513Z" fill="#FFFFFF" fill-rule="nonzero" fill-opacity="1" transform="matrix(1.00019 0 0 1 927.506 556)"/><path d="M144.388 13.885C144.388 9.128 148.15 5.75208 153.293 5.75208 158.436 5.75208 162.17 9.128 162.17 13.885 162.17 18.6419 158.389 22.0179 153.246 22.0179 148.103 22.0179 144.388 18.6419 144.388 13.885M157.413 13.885C157.413 11.1554 155.636 9.5093 153.293 9.5093 150.949 9.5093 149.14 11.1554 149.14 13.885 149.14 16.6145 150.944 18.2606 153.293 18.2606 155.641 18.2606 157.413 16.6145 157.413 13.885" fill="#FFFFFF" fill-rule="nonzero" fill-opacity="1" transform="matrix(1.00019 0 0 1 927.506 556)"/><path d="M175.497 5.74743 175.497 10.0394C175.101 10.0115 174.794 9.97895 174.427 9.97895 171.8 9.97895 170.061 11.3786 170.061 14.4476L170.014 22.0179 165.248 22.0179 165.248 5.98458 169.847 5.98458 169.847 8.10034C171.009 6.55188 172.962 5.74743 175.497 5.74743" fill="#FFFFFF" fill-rule="nonzero" fill-opacity="1" transform="matrix(1.00019 0 0 1 927.506 556)"/><path d="M194.687 5.98923 194.687 19.1441C194.687 25.0171 191.39 27.7188 185.555 27.7188 182.486 27.7188 179.51 26.9841 177.612 25.5472L179.477 22.2597C180.863 23.3478 183.118 24.0499 185.192 24.0499 188.503 24.0499 189.991 22.5805 189.991 19.7347L189.991 19.0605C188.758 20.3811 186.982 21.0274 184.876 21.0274 180.393 21.0274 176.785 18.0049 176.785 13.3921 176.785 8.77925 180.393 5.75673 184.876 5.75673 187.131 5.75673 188.996 6.49143 190.232 8.01664L190.232 5.98923 194.683 5.98923ZM190.056 13.3874C190.056 11.0671 188.279 9.51395 185.815 9.51395 183.35 9.51395 181.542 11.0717 181.542 13.3874 181.542 15.7031 183.346 17.2609 185.815 17.2609 188.284 17.2609 190.056 15.7031 190.056 13.3874" fill="#FFFFFF" fill-rule="nonzero" fill-opacity="1" transform="matrix(1.00019 0 0 1 927.506 556)"/><path d="M214.817 15.1777 202.574 15.1777C203.025 17.1446 204.741 18.349 207.205 18.349 208.921 18.349 210.153 17.8514 211.269 16.8238L213.766 19.465C212.264 21.139 209.958 22.0179 207.042 22.0179 201.444 22.0179 197.854 18.5815 197.854 13.885 197.854 9.18845 201.555 5.75208 206.489 5.75208 211.423 5.75208 214.915 8.86295 214.915 13.9454 214.915 14.2988 214.854 14.7964 214.826 15.1777M202.513 12.5086 210.483 12.5086C210.153 10.5137 208.619 9.221 206.512 9.221 204.406 9.221 202.843 10.4812 202.513 12.5086" fill="#FFFFFF" fill-rule="nonzero" fill-opacity="1" transform="matrix(1.00019 0 0 1 927.506 556)"/><path d="M121.496 18.2606C119.157 18.2513 117.357 16.6099 117.357 13.885 117.357 11.1601 119.152 9.5186 121.496 9.5093L121.496 5.75208C116.358 5.75673 112.605 9.13265 112.605 13.885 112.605 18.6373 116.32 22.0179 121.463 22.0179 121.473 22.0179 121.487 22.0179 121.496 22.0179L121.496 18.2606Z" fill="#F15B40" fill-rule="nonzero" fill-opacity="1" transform="matrix(1.00019 0 0 1 927.506 556)"/><path d="M121.496 18.2606C123.835 18.2513 125.634 16.6099 125.634 13.885 125.634 11.1601 123.839 9.5186 121.496 9.5093L121.496 5.75208C126.634 5.75673 130.387 9.13265 130.387 13.885 130.387 18.6373 126.671 22.0179 121.528 22.0179 121.519 22.0179 121.505 22.0179 121.496 22.0179L121.496 18.2606Z" fill="#FFFFFF" fill-rule="nonzero" fill-opacity="1" transform="matrix(1.00019 0 0 1 927.506 556)"/><path d="M119.454 50.941C119.454 58.488 113.795 63.1845 104.746 63.1845L97.9249 63.1845 97.9249 72.5218 90.0849 72.5218 90.0849 38.6557 104.746 38.6557C113.795 38.6557 119.454 43.3475 119.454 50.9457ZM111.517 50.941C111.517 47.2164 109.099 45.0401 104.309 45.0401L97.9249 45.0401 97.9249 56.7954 104.309 56.7954C109.099 56.7954 111.517 54.6192 111.517 50.941Z" fill="#FFFFFF" fill-rule="nonzero" fill-opacity="1" transform="matrix(1.00019 0 0 1 927.506 556)"/><path d="M124.579 57.6185 124.579 38.651 132.419 38.651 132.419 57.3255C132.419 63.7611 135.223 66.4209 139.966 66.4209 144.709 66.4209 147.513 63.7611 147.513 57.3255L147.513 38.651 155.255 38.651 155.255 57.6185C155.255 67.5835 149.545 73.103 139.919 73.103 130.294 73.103 124.579 67.5881 124.579 57.6185Z" fill="#FFFFFF" fill-rule="nonzero" fill-opacity="1" transform="matrix(1.00019 0 0 1 927.506 556)"/><path d="M162.988 38.651 170.828 38.651 170.828 66.1327 187.81 66.1327 187.81 72.5171 162.988 72.5171 162.988 38.651Z" fill="#FFFFFF" fill-rule="nonzero" fill-opacity="1" transform="matrix(1.00019 0 0 1 927.506 556)"/><path d="M189.354 69.1831 192.013 63.2775C194.869 65.3607 199.128 66.8115 203.187 66.8115 207.833 66.8115 209.721 65.2631 209.721 63.1845 209.721 56.8465 190.028 61.199 190.028 48.6207 190.028 42.8639 194.673 38.0744 204.299 38.0744 208.558 38.0744 212.911 39.0928 216.054 41.0737L213.636 47.0257C210.493 45.2354 207.252 44.3659 204.252 44.3659 199.607 44.3659 197.817 46.1096 197.817 48.2394 197.817 54.4797 217.51 50.1738 217.51 62.6079 217.51 68.267 212.818 73.1077 203.141 73.1077 197.77 73.1077 192.353 71.5081 189.349 69.1877Z" fill="#FFFFFF" fill-rule="nonzero" fill-opacity="1" transform="matrix(1.00019 0 0 1 927.506 556)"/><path d="M229.46 65.2631 229.511 65.2631 237.347 46.3421 245.182 65.2631 246.595 68.6855 248.186 72.5218 256.407 72.5218 241.262 38.651 233.524 38.651 218.426 72.5218 226.461 72.5218 229.46 65.2631Z" fill="#FFFFFF" fill-rule="nonzero" fill-opacity="1" transform="matrix(1.00019 0 0 1 927.506 556)"/><path d="M281.512 72.5218 274.979 63.0869 267.772 63.0869 267.772 72.5218 259.932 72.5218 259.932 38.6557 274.593 38.6557C283.642 38.6557 289.301 43.3475 289.301 50.9457 289.301 56.0235 286.739 59.7528 282.336 61.6407L289.934 72.5264 281.512 72.5264ZM274.161 45.0401 267.776 45.0401 267.776 56.8465 274.161 56.8465C278.95 56.8465 281.368 54.6238 281.368 50.9457 281.368 47.2675 278.95 45.0448 274.161 45.0448Z" fill="#FFFFFF" fill-rule="nonzero" fill-opacity="1" transform="matrix(1.00019 0 0 1 927.506 556)"/><path d="M66.035 49.6483 65.4956 48.0673 64.9515 49.6483 63.3705 50.1924 64.9515 50.7318 65.4956 52.3128 66.035 50.7318 67.616 50.1924 66.035 49.6483Z" fill="#FFFFFF" fill-rule="nonzero" fill-opacity="1" transform="matrix(1.00019 0 0 1 927.506 556)"/><path d="M65.4956 29.7834C65.9094 29.7834 66.2489 29.4486 66.2489 29.0301 66.2489 28.6116 65.9141 28.2768 65.4956 28.2768 65.0771 28.2768 64.7423 28.6116 64.7423 29.0301 64.7423 29.4486 65.0771 29.7834 65.4956 29.7834Z" fill="#FFFFFF" fill-rule="nonzero" fill-opacity="1" transform="matrix(1.00019 0 0 1 927.506 556)"/><path d="M18.7024 13.1084C18.7024 13.4153 18.9489 13.6618 19.2558 13.6618 19.5627 13.6618 19.8091 13.4153 19.8091 13.1084 19.8091 12.8015 19.5627 12.5551 19.2558 12.5551 18.9489 12.5551 18.7024 12.8015 18.7024 13.1084Z" fill="#FFFFFF" fill-rule="nonzero" fill-opacity="1" transform="matrix(1.00019 0 0 1 927.506 556)"/><path d="M59.8365 38.0791C59.8365 50.9178 49.4298 61.3199 36.5957 61.3199 23.7616 61.3199 13.3549 50.9131 13.3549 38.0791 13.3549 25.245 23.7616 14.8382 36.5957 14.8382 49.4298 14.8382 59.8365 25.245 59.8365 38.0791ZM36.5957 21.4413C27.4072 21.4413 19.9626 28.8906 19.9626 38.0744 19.9626 47.2582 27.4119 54.7075 36.5957 54.7075 45.7795 54.7075 53.2288 47.2582 53.2288 38.0744 53.2288 28.8906 45.7795 21.4413 36.5957 21.4413Z" fill="#0D4060" fill-rule="nonzero" fill-opacity="1" transform="matrix(1.00019 0 0 1 927.506 556)"/><g clip-path="url(#clip5)"><path d="M4.94763 62.3475 26.6958 43.9102 34.2381 50.9875 21.8412 76 4.94763 62.3475Z" fill="url(#fill6)" fill-rule="nonzero" transform="matrix(1.00019 0 0 1 927.506 556)"/><path d="M67.7648 13.7548 46.0166 32.1921 38.4743 25.1194 50.8713 0.106951 67.7648 13.7548Z" fill="url(#fill7)" fill-rule="nonzero" transform="matrix(1.00019 0 0 1 927.506 556)"/></g><path d="M50.4295 38.0791C50.4295 45.7193 44.2359 51.9129 36.5957 51.9129 28.9555 51.9129 22.7619 45.7193 22.7619 38.0791 22.7619 30.4388 28.9555 24.2452 36.5957 24.2452 44.2359 24.2452 50.4295 30.4388 50.4295 38.0791Z" fill="#FFFFFF" fill-rule="nonzero" fill-opacity="1" transform="matrix(1.00019 0 0 1 927.506 556)"/><path d="M31.0761 66.9929C31.6713 66.9929 32.1549 66.3559 32.2014 65.5467L34.9124 28.0629 36.6933 46.1003C36.7259 46.5142 36.87 46.8862 37.1025 47.1419 37.2932 47.3652 37.5443 47.5 37.8047 47.5L37.8093 47.5C38.1163 47.5 38.4139 47.314 38.6231 46.9978L41.4457 42.9011 46.5095 42.9011C46.9792 42.9011 47.3977 42.4966 47.5558 41.8828L49.5832 34.5078 51.699 42.0362C51.7269 42.1339 51.7594 42.2222 51.8013 42.3152 52.0152 42.7709 52.3639 43.0406 52.7499 43.0406L69.755 43.0406C70.3735 43.0406 70.8757 42.3385 70.8757 41.4596 70.8757 40.5808 70.3688 39.8879 69.755 39.8879L53.5125 39.8879 50.6341 29.6579C50.5365 29.2673 50.3412 28.9557 50.0761 28.7651 49.7878 28.5697 49.453 28.5558 49.1647 28.7185 48.8671 28.8813 48.6439 29.2115 48.5323 29.6393L45.7469 39.7438 40.9714 39.7438C40.6784 39.7438 40.3855 39.9158 40.1716 40.2134L38.6045 42.4966 35.8563 14.6522C35.8563 14.6243 35.8517 14.5918 35.847 14.5685 35.7447 13.8292 35.2797 13.2898 34.7403 13.2898 34.6706 13.2898 34.6008 13.2991 34.5311 13.3177 34.0242 13.4618 33.6662 14.0384 33.629 14.7406L30.6902 55.3167 27.4351 34.0196C27.384 33.6243 27.1933 33.2477 26.9422 33.0152 26.6865 32.7827 26.3749 32.7176 26.082 32.8152 25.6402 32.9733 25.3194 33.4569 25.245 34.0568L22.7851 49.2205 18.5954 39.781C18.5954 39.781 18.5815 39.7531 18.5722 39.7345 18.3583 39.302 18.0142 39.0463 17.6375 39.0463L1.61356 39.0463C0.995105 39.0463 0.497553 39.7484 0.497553 40.6087 0.497553 41.4689 0.995105 42.1897 1.61356 42.1897L17.0191 42.1897 22.3108 54.0612C22.3945 54.2797 22.5387 54.5262 22.7898 54.7029 22.8735 54.7633 22.9665 54.8005 23.0548 54.8284 23.6547 54.9912 24.2406 54.4518 24.3661 53.6148L26.3052 41.6317 29.988 65.7188C29.988 65.7188 29.9927 65.756 29.9973 65.77 30.1182 66.4721 30.5646 66.9697 31.0715 66.9697Z" fill="#F15B40" fill-rule="nonzero" fill-opacity="1" transform="matrix(1.00019 0 0 1 927.506 556)"/></g></g></g></g></g></svg>