<svg xmlns="http://www.w3.org/2000/svg" width="142.914" height="130.726" viewBox="0 0 142.914 130.726">
  <g id="favicon" transform="translate(-4579.615 408.751)">
    <path id="Path_29" data-name="Path 29" d="M252.072,146.773c-18.806-.059-33.247-13.262-33.247-35.159s14.441-35.1,33.247-35.159V46.249c-41.289.055-71.457,27.178-71.457,65.365,0,38.226,29.844,65.361,71.193,65.361h.264Z" transform="translate(4399 -455)" fill="#f15b40"/>
    <path id="Path_30" data-name="Path 30" d="M252.072,146.773c18.806-.059,33.247-13.262,33.247-35.159s-14.441-35.1-33.247-35.159V46.249c41.289.055,71.457,27.178,71.457,65.365,0,38.226-29.844,65.361-71.193,65.361h-.264Z" transform="translate(4399 -455)" fill="#082340"/>
  </g>
</svg>
